# Blender v2.82 (sub 7) OBJ File: ''
# www.blender.org
mtllib tunnel_block_2_.mtl
o Box005
v -9.500000 -49.999996 -50.132500
v 0.000000 -49.999996 -50.132500
v 0.000000 -50.000000 50.000000
v -9.500000 -50.000000 50.000000
v -9.500000 50.000008 -50.132492
v -9.500000 50.000000 50.000004
v 0.000000 50.000000 50.000004
v 0.000000 50.000008 -50.132492
v -50.025902 -9.499996 -50.117996
v -50.025902 0.000004 -50.117996
v 50.051800 0.000004 -50.066299
v 50.051800 -9.499996 -50.066299
v -50.000000 -9.500000 50.000000
v -50.000000 0.000000 50.000004
v 9.500000 -49.999996 -50.132500
v 50.038799 -49.999996 -50.058998
v 50.025902 -50.000000 50.000000
v 9.500000 -50.000000 50.000000
v -50.000000 -50.000000 50.000000
v -50.025902 -49.999996 -50.117996
v 9.500000 50.000000 50.000004
v 50.025902 50.000000 50.000004
v 50.038799 50.000008 -50.058990
v 9.500000 50.000008 -50.132492
v -50.025902 50.000008 -50.117989
v -50.000000 50.000000 50.000004
v 50.080700 -4.717094 5.341003
v 50.080700 -0.219799 9.225704
v 50.025902 0.000000 50.000004
v 50.025902 -9.500000 50.000000
v 50.080700 0.801903 -9.725296
v 50.080700 -3.862095 -9.990696
v 50.051800 6.333305 -50.066299
v -2.444500 -11.226398 50.000000
v -8.015000 -5.551701 50.000004
v 50.025902 6.333302 50.000004
v 8.201100 5.182301 50.000004
v 11.775300 -0.861500 50.000004
v 50.080700 50.000000 -9.499996
v 50.080700 50.000000 0.000004
v 50.080700 9.875004 -4.374695
v 50.080700 7.277004 -9.555195
v 50.080700 -8.202797 2.681999
v 50.080700 -49.999996 0.000000
v 50.080700 -49.999996 -9.500000
v 50.080700 -8.148396 -3.174198
v -50.025902 9.500004 -50.117996
v 50.051800 9.500004 -50.066299
v -50.025902 6.333305 -50.117996
v -3.193200 6.797001 50.000004
v 2.663000 7.925999 50.000004
v 3.411700 -10.097401 50.000000
v 7.316700 -5.956902 50.000004
v -50.000000 9.500000 50.000004
v -50.000000 6.333302 50.000004
v 50.080700 9.820705 1.481503
v 50.080700 50.000000 9.500004
v 50.025902 9.500000 50.000004
v 50.080700 6.422005 5.776505
v 50.080700 -50.000000 9.500000
v -7.130600 5.587399 50.000004
v -7.175700 -0.219700 50.000004
v 41.572701 -6.068699 7.865604
v 43.181301 0.889099 8.242702
v 32.726299 -5.894497 6.164303
v 34.667702 -0.025299 8.429005
v 25.142200 -4.383499 8.233006
v 27.063400 2.044800 9.535305
v 19.335400 -3.221500 9.222305
v 22.819201 0.465199 12.219105
v 12.515500 -3.883801 13.935505
v 18.087700 0.109798 16.628605
v 8.027800 -4.347301 24.740501
v 11.568000 1.454102 24.412903
v 10.056600 -6.395100 33.541203
v 8.560100 0.812698 31.885801
v 6.482500 -5.099701 41.684700
v 8.897800 0.626598 40.166000
v 40.911301 -8.303898 1.883499
v 32.449299 -7.643795 2.362000
v 23.801901 -10.069996 1.733700
v 18.281000 -8.570801 6.621101
v 10.472400 -9.112000 11.715302
v 3.542400 -8.404900 22.695602
v 3.417900 -8.440899 32.571404
v 2.098000 -8.620899 41.297203
v 40.165798 -9.126396 -3.931599
v 31.703800 -9.566895 -3.452999
v 22.552401 -7.975597 -3.994301
v 15.591600 -8.318695 1.411701
v 6.163500 -9.953400 7.739899
v -1.866400 -7.243698 20.433702
v -2.392000 -7.877201 31.786503
v -3.758200 -8.545300 41.021500
v 38.837601 -5.667797 -7.220398
v 29.991199 -5.280296 -8.921696
v 21.102699 -5.747097 -6.557095
v 11.605600 -4.549194 -4.018394
v 0.723200 -4.238396 4.137104
v -6.404500 -5.192402 19.566202
v -5.223200 -3.938999 32.278503
v -8.849200 -5.570702 41.758503
v 38.945202 0.142303 -10.253796
v 30.431700 1.068005 -10.067497
v 21.231400 0.023502 -8.521595
v 12.512500 0.505802 -3.712997
v 2.953400 1.205704 5.182404
v -6.568400 -0.022701 18.833202
v -10.402500 0.920898 31.190302
v -10.053200 1.530300 41.125801
v 39.387001 5.471302 -8.077297
v 30.866400 5.858803 -7.930996
v 21.748400 5.392002 -6.812996
v 13.375200 6.589905 -2.333096
v 2.468200 6.900703 4.700703
v -6.789600 5.946701 18.691902
v -8.265300 7.200100 31.319902
v -7.290900 5.568401 41.068604
v 40.105801 8.897102 -3.415794
v 31.357800 8.456604 -4.559296
v 22.899000 10.047905 -2.126396
v 15.522000 9.704803 1.588406
v 5.413700 8.070099 7.304802
v -0.544800 10.779701 21.072903
v -3.072900 10.146301 31.876102
v -4.449300 9.478199 41.170204
v 41.013199 9.719604 2.370705
v 32.265202 10.379704 1.227303
v 24.307199 7.953403 3.559002
v 18.353800 9.452599 6.715702
v 9.828300 8.911499 11.154305
v 4.920200 9.618599 23.180403
v 2.751300 9.582600 32.497299
v 1.406900 9.402599 41.281403
v 40.941502 5.070400 7.216805
v 32.420898 5.244598 7.363102
v 24.629900 6.755600 7.659103
v 20.066799 7.917599 11.507004
v 13.489900 7.255299 15.417503
v 7.232700 6.791801 24.992802
v 6.910000 4.743999 33.776802
v 8.040800 6.039398 42.193604
vt 0.198295 0.357562
vt 0.166655 0.357602
vt 0.166742 0.000210
vt 0.198381 0.000170
vt 0.531565 0.000013
vt 0.531651 0.357536
vt 0.500011 0.357530
vt 0.499925 0.000007
vt 0.801591 0.000045
vt 0.833269 0.000037
vt 0.833270 0.357266
vt 0.801591 0.357273
vt 0.864548 0.357813
vt 0.864548 0.715259
vt 0.832964 0.715219
vt 0.832964 0.357773
vt 0.135015 0.357642
vt 0.000000 0.357550
vt 0.000129 0.000421
vt 0.135102 0.000250
vt 0.333268 0.000000
vt 0.333268 0.357340
vt 0.468371 0.357523
vt 0.333397 0.357495
vt 0.333268 0.000234
vt 0.468284 0.000000
vt 0.666539 0.000093
vt 0.666539 0.357564
vt 0.484271 0.555371
vt 0.499268 0.569241
vt 0.500000 0.714811
vt 0.468321 0.714806
vt 0.502675 0.501586
vt 0.487122 0.500637
vt 0.500000 0.357569
vt 0.521119 0.357572
vt 0.158236 0.496319
vt 0.139701 0.516544
vt 0.000000 0.536122
vt 0.000000 0.502211
vt 0.332826 0.559299
vt 0.193658 0.554952
vt 0.205551 0.533398
vt 0.332826 0.536691
vt 0.666732 0.502414
vt 0.666733 0.536330
vt 0.532930 0.520692
vt 0.524267 0.502197
vt 0.472647 0.545876
vt 0.333269 0.536282
vt 0.333269 0.502366
vt 0.472829 0.524970
vt 0.864948 0.000030
vt 1.000000 0.000000
vt 1.000000 0.357182
vt 0.864948 0.357259
vt 0.854389 0.000033
vt 0.854389 0.357261
vt 0.666539 0.357257
vt 0.666539 0.000075
vt 0.197980 0.714941
vt 0.166370 0.714887
vt 0.155745 0.560651
vt 0.175231 0.564715
vt 0.177722 0.500382
vt 0.166370 0.357926
vt 0.197980 0.357980
vt 0.190715 0.515184
vt 0.801380 0.715179
vt 0.666733 0.715010
vt 0.666733 0.357564
vt 0.801380 0.357734
vt 0.811908 0.715192
vt 0.811908 0.357747
vt 0.999195 0.357982
vt 0.999195 0.715428
vt 0.532749 0.541599
vt 0.666733 0.570245
vt 0.666731 0.714835
vt 0.531679 0.714815
vt 0.521416 0.556931
vt 0.521119 0.714814
vt 0.333268 0.714787
vt 0.333269 0.570197
vt 0.333268 0.357572
vt 0.468321 0.357564
vt 0.531679 0.357574
vt 0.666731 0.357620
vt 0.142644 0.556311
vt 0.134760 0.714833
vt 0.000000 0.714603
vt 0.000000 0.570034
vt 0.142493 0.535582
vt 0.000000 0.558730
vt 0.000000 0.357642
vt 0.134760 0.357872
vt 0.332826 0.358210
vt 0.332826 0.502780
vt 0.332826 0.570602
vt 0.332826 0.715172
vt 0.107217 0.748911
vt 0.084479 0.741401
vt 0.089876 0.717217
vt 0.104748 0.718042
vt 0.104437 0.780205
vt 0.085442 0.771964
vt 0.097602 0.806995
vt 0.076721 0.798594
vt 0.506134 0.885910
vt 0.520872 0.887032
vt 0.524027 0.904415
vt 0.092339 0.827452
vt 0.501767 0.856787
vt 0.520562 0.863990
vt 0.162404 0.757459
vt 0.144899 0.751337
vt 0.157264 0.725656
vt 0.517381 0.818524
vt 0.162404 0.789751
vt 0.140114 0.777724
vt 0.150682 0.816767
vt 0.134089 0.806567
vt 0.146922 0.846322
vt 0.131670 0.841964
vt 0.539105 0.960034
vt 0.554680 0.946662
vt 0.568106 0.974619
vt 0.185769 0.747833
vt 0.174217 0.747833
vt 0.174486 0.715172
vt 0.520599 0.937054
vt 0.530122 0.928152
vt 0.499434 0.916671
vt 0.517345 0.903393
vt 0.109815 0.832369
vt 0.498191 0.890220
vt 0.109815 0.860767
vt 0.092975 0.852328
vt 0.502663 0.812509
vt 0.648548 0.724597
vt 0.664482 0.714835
vt 0.664482 0.754648
vt 0.526075 0.787706
vt 0.543469 0.802127
vt 0.543985 0.762700
vt 0.554567 0.772622
vt 0.159241 0.849859
vt 0.568106 0.744650
vt 0.523542 0.972626
vt 0.562205 0.981582
vt 0.548147 0.996097
vt 0.505188 0.949763
vt 0.482514 0.927444
vt 0.479440 0.896207
vt 0.473051 0.856486
vt 0.492436 0.857601
vt 0.484572 0.804110
vt 0.510683 0.774678
vt 0.529774 0.748343
vt 0.554722 0.729736
vt 0.578918 0.754668
vt 0.568106 0.749474
vt 0.574895 0.714899
vt 0.648548 0.754900
vt 0.625677 0.754900
vt 0.633822 0.714835
vt 0.487518 0.958472
vt 0.576980 0.785736
vt 0.472707 0.929841
vt 0.456678 0.899039
vt 0.451044 0.850848
vt 0.471717 0.794394
vt 0.012907 0.815854
vt 0.000000 0.812950
vt 0.004730 0.772638
vt 0.504777 0.765773
vt 0.519364 0.733131
vt 0.005197 0.849448
vt 0.541064 0.714835
vt 0.598048 0.755715
vt 0.588722 0.714835
vt 0.604200 0.716641
vt 0.598119 0.786267
vt 0.591492 0.818848
vt 0.572425 0.817629
vt 0.590281 0.851091
vt 0.573183 0.852341
vt 0.589725 0.887389
vt 0.570828 0.893002
vt 0.028985 0.769019
vt 0.011623 0.770345
vt 0.018545 0.715172
vt 0.036480 0.720093
vt 0.489524 0.754660
vt 0.029176 0.813508
vt 0.028931 0.849022
vt 0.514086 0.730856
vt 0.021154 0.880012
vt 0.003392 0.878752
vt 0.615995 0.756672
vt 0.625677 0.719101
vt 0.614277 0.787038
vt 0.609570 0.819439
vt 0.610835 0.850643
vt 0.608408 0.891117
vt 0.048869 0.770001
vt 0.055522 0.719812
vt 0.050096 0.815380
vt 0.042457 0.849636
vt 0.040473 0.881440
vt 0.405422 0.755297
vt 0.393664 0.744785
vt 0.415827 0.714835
vt 0.427186 0.728416
vt 0.381718 0.773738
vt 0.373306 0.766059
vt 0.625677 0.818246
vt 0.366512 0.800858
vt 0.357218 0.828562
vt 0.343638 0.823486
vt 0.353883 0.791279
vt 0.346132 0.868094
vt 0.333268 0.868490
vt 0.362686 0.918581
vt 0.343033 0.927461
vt 0.381389 0.952800
vt 0.368102 0.963933
vt 0.055522 0.850779
vt 0.399435 0.980277
vt 0.174217 0.750015
vt 0.162404 0.744435
vt 0.174217 0.715172
vt 0.044610 0.881486
vt 0.420695 0.768141
vt 0.440587 0.743622
vt 0.396786 0.786637
vt 0.383313 0.812071
vt 0.375842 0.834928
vt 0.365460 0.867316
vt 0.380948 0.910608
vt 0.397010 0.940117
vt 0.413876 0.966214
vt 0.437128 0.985707
vt 0.423167 1.000000
vt 0.432473 0.780676
vt 0.451044 0.754610
vt 0.412154 0.801940
vt 0.393693 0.821870
vt 0.391231 0.843100
vt 0.384380 0.869336
vt 0.391218 0.909512
vt 0.125472 0.780827
vt 0.109815 0.772119
vt 0.117825 0.739858
vt 0.126078 0.748631
vt 0.432646 0.952166
vt 0.114769 0.808867
vt 0.451044 0.972005
vt 0.070004 0.748189
vt 0.067713 0.715172
vt 0.067343 0.778490
vt 0.060419 0.805857
vt 0.080995 0.814357
vt 0.055522 0.822145
vt 0.081114 0.831691
vt 0.056200 0.846083
vt 0.133998 0.715172
vt 0.111244 0.836649
vn -0.0000 -1.0000 -0.0000
vn 0.0000 1.0000 0.0000
vn 0.0005 0.0000 -1.0000
vn 0.0005 -0.0001 -1.0000
vn -1.0000 0.0000 0.0003
vn 1.0000 -0.0002 0.0010
vn 1.0000 -0.0003 0.0013
vn 1.0000 -0.0000 0.0013
vn 1.0000 0.0000 -0.0007
vn 1.0000 -0.0005 -0.0006
vn -0.0000 -0.0000 1.0000
vn 1.0000 0.0001 -0.0004
vn 1.0000 -0.0000 0.0000
vn 1.0000 0.0000 -0.0005
vn 1.0000 0.0001 -0.0006
vn 1.0000 -0.0002 -0.0004
vn 0.0006 0.0000 -1.0000
vn 0.0005 0.0001 -1.0000
vn 0.0006 -0.0002 -1.0000
vn 1.0000 0.0002 0.0006
vn 1.0000 -0.0002 0.0008
vn 1.0000 -0.0001 0.0012
vn 1.0000 0.0000 0.0012
vn 1.0000 0.0012 0.0012
vn 1.0000 0.0000 0.0014
vn 1.0000 0.0000 0.0007
vn 1.0000 -0.0001 -0.0008
vn 1.0000 -0.0002 -0.0007
vn 1.0000 0.0001 -0.0008
vn 1.0000 0.0003 -0.0010
vn -0.0016 0.6058 -0.7956
vn 0.0425 -0.1405 -0.9892
vn -0.0528 0.0109 -0.9985
vn -0.1795 0.7030 -0.6882
vn -0.0420 0.6801 -0.7319
vn -0.0906 0.0955 -0.9913
vn -0.1254 0.4885 -0.8635
vn -0.2344 -0.1065 -0.9663
vn -0.3448 0.5835 -0.7353
vn -0.6473 0.3239 -0.6900
vn -0.5718 0.6856 -0.4505
vn -0.7105 0.2708 -0.6495
vn -0.6872 0.7254 -0.0382
vn -0.8716 -0.1623 -0.4626
vn -0.8494 0.5146 -0.1172
vn -0.9290 -0.2992 -0.2178
vn -0.8319 0.5530 -0.0452
vn -0.9835 0.0922 0.1559
vn -0.7571 0.6231 0.1963
vn -0.9564 0.1728 0.2355
vn -0.0245 0.9567 -0.2900
vn 0.0018 0.8764 -0.4817
vn -0.0276 0.9496 -0.3123
vn -0.1004 0.9932 -0.0581
vn -0.1959 0.8709 -0.4508
vn -0.3339 0.8666 -0.3709
vn -0.2055 0.9775 -0.0483
vn -0.1678 0.9839 0.0617
vn -0.2842 0.9556 0.0779
vn -0.4619 0.8665 0.1893
vn -0.0824 0.9316 0.3541
vn -0.0713 0.9488 0.3076
vn 0.0821 0.9841 0.1574
vn 0.1205 0.8913 0.4371
vn 0.1835 0.9438 0.2749
vn 0.2273 0.9459 0.2314
vn 0.3418 0.9398 0.0028
vn 0.4659 0.8757 0.1266
vn 0.3323 0.9351 0.1229
vn 0.2666 0.9442 0.1931
vn -0.0329 0.5826 0.8121
vn 0.0076 0.4686 0.8834
vn 0.0280 0.4966 0.8675
vn 0.2708 0.5590 0.7837
vn 0.4649 0.3884 0.7956
vn 0.7216 0.2257 0.6545
vn 0.7902 0.5863 0.1783
vn 0.7776 0.6185 0.1128
vn 0.8575 0.5103 0.0659
vn 0.9316 0.3623 -0.0283
vn 0.0408 0.0316 0.9987
vn 0.0275 -0.0976 0.9948
vn 0.0502 -0.1024 0.9935
vn 0.3352 -0.0052 0.9421
vn 0.5102 -0.1386 0.8488
vn 0.7392 -0.1247 0.6618
vn 0.9253 0.0079 0.3792
vn 0.9858 0.1641 0.0356
vn 0.9919 -0.1231 -0.0326
vn 0.9708 -0.0189 -0.2393
vn 0.0505 -0.5837 0.8104
vn 0.1716 -0.5270 0.8324
vn 0.0396 -0.6094 0.7919
vn 0.2611 -0.5289 0.8075
vn 0.3922 -0.5932 0.7031
vn 0.6111 -0.5232 0.5940
vn 0.8604 -0.3955 0.3214
vn 0.7953 -0.6035 0.0582
vn 0.8049 -0.5824 -0.1139
vn 0.7314 -0.6681 -0.1369
vn 0.0521 -0.9300 0.3638
vn 0.0922 -0.9620 0.2572
vn 0.0274 -0.9004 0.4343
vn 0.0132 -0.9656 0.2598
vn 0.1895 -0.9501 0.2480
vn 0.1418 -0.9702 0.1964
vn 0.1957 -0.9743 0.1115
vn 0.2340 -0.9722 0.0057
vn 0.4409 -0.8779 -0.1870
vn 0.3250 -0.9224 -0.2086
vn -0.0176 -0.9392 -0.3430
vn -0.0010 -0.9435 -0.3315
vn 0.0888 -0.9879 -0.1273
vn -0.1232 -0.9679 -0.2191
vn -0.1347 -0.9768 -0.1663
vn -0.0095 -0.9973 -0.0726
vn -0.4439 -0.8910 -0.0950
vn -0.4130 -0.9089 -0.0583
vn -0.2174 -0.9706 -0.1038
vn -0.1996 -0.9645 -0.1728
vn -0.0385 -0.4955 -0.8678
vn 0.0066 -0.6350 -0.7725
vn -0.1070 -0.5338 -0.8388
vn -0.3254 -0.7413 -0.5870
vn -0.4244 -0.7261 -0.5409
vn -0.3820 -0.8083 -0.4481
vn -0.7100 -0.6475 -0.2769
vn -0.8724 -0.4883 0.0209
vn -0.7725 -0.6326 0.0562
vn -0.6907 -0.7203 -0.0645
usemtl Cave_Material.002
s 1
f 1/1/1 2/2/1 3/3/1
f 3/3/1 4/4/1 1/1/1
f 5/5/2 6/6/2 7/7/2
f 7/7/2 8/8/2 5/5/2
f 9/9/3 10/10/3 11/11/3
f 11/11/3 12/12/4 9/9/3
f 9/13/5 13/14/5 14/15/5
f 14/15/5 10/16/5 9/13/5
f 15/17/1 16/18/1 17/19/1
f 17/19/1 18/20/1 15/17/1
f 2/2/1 15/17/1 18/20/1
f 18/20/1 3/3/1 2/2/1
f 4/4/1 19/21/1 20/22/1
f 20/22/1 1/1/1 4/4/1
f 21/23/2 22/24/2 23/25/2
f 23/25/2 24/26/2 21/23/2
f 21/23/2 24/26/2 8/8/2
f 8/8/2 7/7/2 21/23/2
f 5/5/2 25/27/2 26/28/2
f 26/28/2 6/6/2 5/5/2
f 27/29/6 28/30/7 29/31/8
f 29/31/8 30/32/8 27/29/6
f 31/33/9 32/34/10 11/35/9
f 11/35/9 33/36/9 31/33/9
f 34/37/11 35/38/11 14/39/11
f 14/39/11 13/40/11 34/37/11
f 36/41/11 37/42/11 38/43/11
f 38/43/11 29/44/11 36/41/11
f 39/45/12 40/46/13 41/47/13
f 41/47/13 42/48/14 39/45/12
f 43/49/13 44/50/13 45/51/15
f 45/51/15 46/52/16 43/49/13
f 47/53/3 25/54/17 23/55/18
f 23/55/18 48/56/18 47/53/3
f 49/57/3 47/53/3 48/56/18
f 48/56/18 33/58/3 49/57/3
f 10/10/3 49/57/3 33/58/3
f 33/58/3 11/11/3 10/10/3
f 12/12/4 16/59/19 20/60/3
f 20/60/3 9/9/3 12/12/4
f 21/61/11 7/62/11 50/63/11
f 50/63/11 51/64/11 21/61/11
f 52/65/11 3/66/11 18/67/11
f 18/67/11 53/68/11 52/65/11
f 54/69/5 26/70/5 25/71/5
f 25/71/5 47/72/5 54/69/5
f 55/73/5 54/69/5 47/72/5
f 47/72/5 49/74/5 55/73/5
f 55/73/5 49/74/5 10/16/5
f 10/16/5 14/15/5 55/73/5
f 9/13/5 20/75/5 19/76/5
f 19/76/5 13/14/5 9/13/5
f 56/77/20 57/78/21 22/79/22
f 22/79/22 58/80/23 56/77/20
f 59/81/24 56/77/20 58/80/23
f 58/80/23 36/82/8 59/81/24
f 28/30/7 59/81/24 36/82/8
f 36/82/8 29/31/8 28/30/7
f 30/32/8 17/83/25 60/84/26
f 60/84/26 27/29/6 30/32/8
f 40/46/13 57/78/21 56/77/20
f 56/77/20 41/47/13 40/46/13
f 27/29/6 60/84/26 44/50/13
f 44/50/13 43/49/13 27/29/6
f 46/52/16 45/51/15 16/85/27
f 16/85/27 12/86/28 46/52/16
f 32/34/10 46/52/16 12/86/28
f 12/86/28 11/35/9 32/34/10
f 48/87/29 23/88/30 39/45/12
f 39/45/12 42/48/14 48/87/29
f 33/36/9 48/87/29 42/48/14
f 42/48/14 31/33/9 33/36/9
f 61/89/11 6/90/11 26/91/11
f 26/91/11 54/92/11 61/89/11
f 62/93/11 61/89/11 54/92/11
f 54/92/11 55/94/11 62/93/11
f 35/38/11 62/93/11 55/94/11
f 55/94/11 14/39/11 35/38/11
f 13/40/11 19/95/11 4/96/11
f 4/96/11 34/37/11 13/40/11
f 50/63/11 7/62/11 6/90/11
f 6/90/11 61/89/11 50/63/11
f 34/37/11 4/96/11 3/66/11
f 3/66/11 52/65/11 34/37/11
f 53/68/11 18/67/11 17/97/11
f 17/97/11 30/98/11 53/68/11
f 53/68/11 30/98/11 29/44/11
f 29/44/11 38/43/11 53/68/11
f 58/99/11 22/100/11 21/61/11
f 21/61/11 51/64/11 58/99/11
f 36/41/11 58/99/11 51/64/11
f 51/64/11 37/42/11 36/41/11
f 63/101/31 64/102/32 28/103/33
f 28/103/33 27/104/34 63/101/31
f 65/105/35 66/106/36 64/102/32
f 64/102/32 63/101/31 65/105/35
f 67/107/37 68/108/38 66/106/36
f 66/106/36 65/105/35 67/107/37
f 69/109/39 70/110/40 68/111/38
f 68/108/38 67/107/37 69/112/39
f 71/113/41 72/114/42 70/110/40
f 70/110/40 69/109/39 71/113/41
f 73/115/43 74/116/44 72/117/42
f 72/114/42 71/113/41 73/118/43
f 75/119/45 76/120/46 74/116/44
f 74/116/44 73/115/43 75/119/45
f 77/121/47 78/122/48 76/120/46
f 76/120/46 75/119/45 77/121/47
f 53/123/49 38/124/50 78/122/48
f 78/122/48 77/121/47 53/123/49
f 79/125/51 63/126/31 27/127/34
f 27/128/34 43/129/52 79/130/51
f 80/131/53 65/132/35 63/126/31
f 63/126/31 79/125/51 80/131/53
f 81/133/54 67/134/37 65/132/35
f 65/132/35 80/131/53 81/133/54
f 82/135/55 69/112/39 67/107/37
f 67/134/37 81/133/54 82/136/55
f 83/137/56 71/138/41 69/112/39
f 69/112/39 82/135/55 83/137/56
f 84/139/57 73/118/43 71/113/41
f 71/140/41 83/141/56 84/142/57
f 85/143/58 75/144/45 73/118/43
f 73/118/43 84/139/57 85/143/58
f 86/145/59 77/146/47 75/144/45
f 75/144/45 85/143/58 86/145/59
f 52/147/60 53/123/49 77/121/47
f 77/146/47 86/145/59 52/148/60
f 87/149/61 79/125/51 43/150/52
f 43/150/52 46/151/62 87/149/61
f 88/152/63 80/131/53 79/125/51
f 79/125/51 87/149/61 88/152/63
f 89/153/64 81/133/54 80/131/53
f 80/131/53 88/152/63 89/153/64
f 90/154/65 82/136/55 81/133/54
f 81/133/54 89/153/64 90/154/65
f 91/155/66 83/156/56 82/136/55
f 82/136/55 90/154/65 91/155/66
f 92/157/67 84/139/57 83/156/56
f 83/156/56 91/155/66 92/157/67
f 93/158/68 85/143/58 84/139/57
f 84/139/57 92/157/67 93/158/68
f 94/159/69 86/145/59 85/143/58
f 85/143/58 93/158/68 94/159/69
f 34/160/70 52/148/60 86/145/59
f 86/145/59 94/159/69 34/160/70
f 95/161/71 87/162/61 46/163/62
f 46/164/62 32/165/72 95/166/71
f 96/167/73 88/152/63 87/149/61
f 87/162/61 95/161/71 96/168/73
f 97/169/74 89/153/64 88/152/63
f 88/152/63 96/167/73 97/169/74
f 98/170/75 90/154/65 89/153/64
f 89/153/64 97/169/74 98/170/75
f 99/171/76 91/155/66 90/154/65
f 90/154/65 98/170/75 99/171/76
f 100/172/77 92/157/67 91/155/66
f 91/155/66 99/171/76 100/172/77
f 101/173/78 93/174/68 92/175/67
f 92/157/67 100/172/77 101/176/78
f 102/177/79 94/159/69 93/158/68
f 93/174/68 101/173/78 102/178/79
f 35/179/80 34/160/70 94/159/69
f 94/159/69 102/177/79 35/179/80
f 103/180/81 95/161/71 32/181/72
f 32/181/72 31/182/82 103/180/81
f 104/183/83 96/168/73 95/161/71
f 95/161/71 103/180/81 104/183/83
f 105/184/84 97/185/74 96/168/73
f 96/168/73 104/183/83 105/184/84
f 106/186/85 98/187/75 97/185/74
f 97/185/74 105/184/84 106/186/85
f 107/188/86 99/189/76 98/187/75
f 98/187/75 106/186/85 107/188/86
f 108/190/87 100/191/77 99/192/76
f 99/192/76 107/193/86 108/190/87
f 109/194/88 101/176/78 100/172/77
f 100/191/77 108/190/87 109/195/88
f 110/196/89 102/178/79 101/173/78
f 101/176/78 109/194/88 110/197/89
f 62/198/90 35/199/80 102/178/79
f 102/178/79 110/196/89 62/198/90
f 111/200/91 103/180/81 31/182/82
f 31/182/82 42/201/92 111/200/91
f 112/202/93 104/183/83 103/180/81
f 103/180/81 111/200/91 112/202/93
f 113/203/94 105/184/84 104/183/83
f 104/183/83 112/202/93 113/203/94
f 114/204/95 106/186/85 105/184/84
f 105/184/84 113/203/94 114/204/95
f 115/205/96 107/188/86 106/186/85
f 106/186/85 114/204/95 115/205/96
f 116/206/97 108/190/87 107/193/86
f 107/193/86 115/207/96 116/206/97
f 117/208/98 109/195/88 108/190/87
f 108/190/87 116/206/97 117/208/98
f 118/209/99 110/196/89 109/195/88
f 109/195/88 117/208/98 118/209/99
f 61/210/100 62/198/90 110/196/89
f 110/196/89 118/209/99 61/210/100
f 119/211/101 111/212/91 42/213/92
f 42/213/92 41/214/102 119/211/101
f 120/215/103 112/216/93 111/212/91
f 111/212/91 119/211/101 120/215/103
f 121/217/104 113/203/94 112/202/93
f 112/216/93 120/215/103 121/218/104
f 122/219/105 114/220/95 113/221/94
f 113/221/94 121/218/104 122/219/105
f 123/222/106 115/223/96 114/220/95
f 114/220/95 122/219/105 123/222/106
f 124/224/107 116/225/97 115/223/96
f 115/223/96 123/222/106 124/224/107
f 125/226/108 117/227/98 116/225/97
f 116/225/97 124/224/107 125/226/108
f 126/228/109 118/209/99 117/208/98
f 117/227/98 125/226/108 126/229/109
f 50/230/110 61/231/100 118/232/99
f 118/209/99 126/228/109 50/233/110
f 127/234/111 119/211/101 41/214/102
f 41/214/102 56/235/112 127/234/111
f 128/236/113 120/215/103 119/211/101
f 119/211/101 127/234/111 128/236/113
f 129/237/114 121/218/104 120/215/103
f 120/215/103 128/236/113 129/237/114
f 130/238/115 122/219/105 121/218/104
f 121/218/104 129/237/114 130/238/115
f 131/239/116 123/222/106 122/219/105
f 122/219/105 130/238/115 131/239/116
f 132/240/117 124/224/107 123/222/106
f 123/222/106 131/239/116 132/240/117
f 133/241/118 125/226/108 124/224/107
f 124/224/107 132/240/117 133/241/118
f 134/242/119 126/229/109 125/226/108
f 125/226/108 133/241/118 134/242/119
f 51/243/120 50/244/110 126/229/109
f 126/229/109 134/242/119 51/243/120
f 135/245/121 127/234/111 56/235/112
f 56/235/112 59/246/122 135/245/121
f 136/247/123 128/236/113 127/234/111
f 127/234/111 135/245/121 136/247/123
f 137/248/124 129/237/114 128/236/113
f 128/236/113 136/247/123 137/248/124
f 138/249/125 130/238/115 129/237/114
f 129/237/114 137/248/124 138/249/125
f 139/250/126 131/239/116 130/238/115
f 130/238/115 138/249/125 139/250/126
f 140/251/127 132/240/117 131/239/116
f 131/239/116 139/250/126 140/251/127
f 141/252/128 133/253/118 132/254/117
f 132/254/117 140/255/127 141/252/128
f 142/256/129 134/242/119 133/241/118
f 133/253/118 141/252/128 142/257/129
f 37/258/130 51/243/120 134/242/119
f 134/242/119 142/256/129 37/258/130
f 64/102/32 135/259/121 59/260/122
f 59/260/122 28/103/33 64/102/32
f 66/106/36 136/261/123 135/259/121
f 135/259/121 64/102/32 66/106/36
f 68/108/38 137/262/124 136/261/123
f 136/261/123 66/106/36 68/108/38
f 70/263/40 138/264/125 137/262/124
f 137/262/124 68/108/38 70/263/40
f 72/265/42 139/266/126 138/264/125
f 138/264/125 70/263/40 72/265/42
f 74/116/44 140/255/127 139/267/126
f 139/267/126 72/117/42 74/116/44
f 76/120/46 141/252/128 140/255/127
f 140/255/127 74/116/44 76/120/46
f 78/122/48 142/257/129 141/252/128
f 141/252/128 76/120/46 78/122/48
f 38/124/50 37/268/130 142/257/129
f 142/257/129 78/122/48 38/124/50
