# Blender v2.82 (sub 7) OBJ File: ''
# www.blender.org
mtllib tunnel_block_1_.mtl
o Box001.001
v 0.000000 -49.999996 -49.902206
v 0.000000 -50.000000 49.916985
v -9.500000 -50.000000 49.916985
v -9.500000 -49.999996 -49.902206
v 0.000000 50.000008 -49.902199
v -9.500000 50.000008 -49.902199
v -9.500000 50.000000 49.916988
v 0.000000 50.000000 49.916988
v 50.000000 0.000004 -49.902206
v 50.000000 0.000000 49.888119
v 50.000000 -9.500000 49.888119
v 50.000000 -9.499996 -49.902206
v -50.000000 0.000004 -49.902206
v -50.000000 -9.499996 -49.902206
v -50.000000 -9.500000 49.888119
v -50.000000 0.000000 49.888119
v 50.000000 -49.999996 -49.902206
v 50.000000 -50.000000 49.888119
v 9.500000 -50.000000 49.916985
v 9.500000 -49.999996 -49.902206
v -50.000000 -50.000000 49.888119
v -50.000000 -49.999996 -49.902206
v 50.000000 50.000000 49.888123
v 50.000000 50.000008 -49.902199
v 9.500000 50.000008 -49.902199
v 9.500000 50.000000 49.916988
v -50.000000 50.000008 -49.902199
v -50.000000 50.000000 49.888123
v 9.225700 -0.219799 49.916988
v 5.341000 -4.717098 49.916988
v -9.990700 -3.862099 49.916988
v -9.725300 0.801899 49.916988
v -50.000000 6.333302 49.888119
v -8.015000 -5.551697 -49.902206
v -2.444500 -11.226395 -49.902206
v 11.775300 -0.861496 -49.902206
v 8.201100 5.182304 -49.902206
v 50.000000 6.333305 -49.902206
v -4.374700 9.875000 49.916988
v -9.555200 7.277000 49.916988
v 2.682000 -8.202801 49.916985
v -3.174200 -8.148399 49.916985
v 50.000000 9.500000 49.888119
v 50.000000 9.500004 -49.902206
v 50.000000 6.333302 49.888119
v -3.193200 6.797005 -49.902206
v 2.663000 7.926003 -49.902206
v 3.411700 -10.097397 -49.902206
v 7.316700 -5.956898 -49.902206
v -50.000000 9.500004 -49.902206
v -50.000000 9.500000 49.888119
v -50.000000 6.333305 -49.902206
v 1.481500 9.820702 49.916988
v 5.776500 6.422001 49.916988
v -7.130600 5.587402 -49.902206
v -7.175700 -0.219696 -49.902206
v 8.713800 0.889099 40.212196
v 8.063100 -6.068699 38.309731
v 9.192500 -0.025299 29.098608
v 6.625100 -5.894501 27.196112
v 9.095500 2.044800 17.984987
v 7.340400 -4.383499 16.082523
v 8.804000 0.465199 6.871399
v 4.466700 -3.221497 4.968937
v 11.135600 0.109802 -4.242191
v 5.135900 -3.883797 -6.144653
v 9.366700 1.454105 -15.355782
v 6.152100 -4.347298 -17.258240
v 7.175700 0.812702 -26.469398
v 8.810800 -6.395096 -28.371834
v 8.897800 0.626602 -37.582993
v 6.482500 -5.099697 -39.485458
v 2.057100 -8.303902 38.795132
v 2.832500 -7.643799 27.681543
v 0.715600 -10.070000 16.567951
v 1.686800 -8.570797 5.454365
v 2.143800 -9.111996 -5.659256
v 1.237800 -8.404896 -16.772850
v 2.112900 -8.440895 -27.886436
v 2.098000 -8.620895 -39.000031
v -3.799000 -9.126400 39.140396
v -3.023600 -9.566898 28.026810
v -5.140600 -7.975601 16.913219
v -4.169300 -8.318695 5.799629
v -3.712400 -9.953396 -5.313992
v -4.618400 -7.243694 -16.427582
v -3.743300 -7.877197 -27.541168
v -3.758200 -8.545296 -38.654762
v -7.268500 -5.667801 38.217197
v -8.706600 -5.280300 27.103609
v -7.991300 -5.747101 15.989990
v -10.865000 -4.549194 4.876400
v -10.195800 -4.238396 -6.237190
v -9.179600 -5.192398 -17.350777
v -6.520900 -3.938995 -28.464371
v -8.849200 -5.570698 -39.577988
v -10.237200 0.142300 39.009830
v -9.758500 1.068001 27.896242
v -9.855500 0.023499 16.782623
v -10.147000 0.505802 5.669033
v -7.815400 1.205704 -5.444553
v -9.584300 -0.022697 -16.558144
v -11.775300 0.920902 -27.671738
v -10.053200 1.530304 -38.785355
v -8.017100 5.471298 39.081432
v -7.579000 5.858799 27.967842
v -8.071400 5.391998 16.854221
v -8.520600 6.589905 5.740631
v -8.496700 6.900703 -5.372952
v -9.840500 5.946705 -16.486549
v -9.634900 7.200104 -27.600136
v -7.290900 5.568405 -38.713722
v -3.301500 8.897099 38.954201
v -4.173200 8.456600 27.840609
v -3.246700 10.047901 16.726990
v -4.051100 9.704803 5.613400
v -4.566500 8.070103 -5.500187
v -3.157900 10.779705 -16.613777
v -4.413800 10.146305 -27.727371
v -4.449300 9.478203 -38.840988
v 2.554600 9.719601 38.814835
v 1.683000 10.379700 27.701242
v 2.609500 7.953400 16.587658
v 1.805100 9.452602 5.474068
v 1.289700 8.911503 -5.639553
v 2.698300 9.618603 -16.753151
v 1.442400 9.582603 -27.866730
v 1.406900 9.402603 -38.980324
v 7.314600 5.070400 37.672165
v 7.752700 5.244598 26.558577
v 7.260300 6.755600 15.444992
v 6.811100 7.917603 4.331402
v 6.835000 7.255302 -6.782215
v 5.491200 6.791805 -17.895813
v 5.696700 4.744003 -29.009399
v 8.040800 6.039402 -40.122993
vt 0.314660 0.749649
vt 0.314660 0.000002
vt 0.334588 0.000005
vt 0.334588 0.749651
vt 0.104887 0.000010
vt 0.124816 0.000008
vt 0.124816 0.749657
vt 0.104887 0.749659
vt 0.524377 0.000002
vt 0.524377 0.749445
vt 0.504459 0.749445
vt 0.504459 0.000003
vt 0.733946 0.000030
vt 0.753846 0.000024
vt 0.753846 0.749460
vt 0.733946 0.749466
vt 0.209775 0.749636
vt 0.209775 0.000207
vt 0.294732 0.000000
vt 0.294732 0.749646
vt 0.419545 0.000232
vt 0.419545 0.749661
vt 0.000000 0.749452
vt 0.000000 0.000020
vt 0.084959 0.000012
vt 0.084959 0.749661
vt 0.209775 0.000000
vt 0.209775 0.749432
vt 0.419574 0.874831
vt 0.505118 0.875381
vt 0.513268 0.886639
vt 0.419574 0.898613
vt 0.629373 0.874831
vt 0.545434 0.884499
vt 0.544877 0.872823
vt 0.629373 0.858976
vt 0.314674 1.000000
vt 0.326322 0.894895
vt 0.338227 0.880950
vt 0.334605 1.000000
vt 0.316482 0.845352
vt 0.303802 0.854300
vt 0.301387 0.749661
vt 0.314674 0.749661
vt 0.533652 0.850110
vt 0.524474 0.749661
vt 0.544405 0.749661
vt 0.544520 0.856613
vt 0.544405 1.000000
vt 0.524474 1.000000
vt 0.518847 0.895365
vt 0.531133 0.895229
vt 0.629209 0.000000
vt 0.629209 0.749443
vt 0.544295 0.749445
vt 0.544295 0.000002
vt 0.537656 0.749445
vt 0.537656 0.000002
vt 0.419545 0.749448
vt 0.419545 0.000005
vt 0.300414 0.882824
vt 0.209775 0.874831
vt 0.209775 0.851048
vt 0.298046 0.868164
vt 0.419574 0.851048
vt 0.419574 0.874831
vt 0.335859 0.866290
vt 0.327172 0.856514
vt 0.629209 0.749496
vt 0.629209 0.000060
vt 0.714046 0.000036
vt 0.714046 0.749472
vt 0.720680 0.000034
vt 0.720680 0.749470
vt 0.838683 0.000000
vt 0.838683 0.749436
vt 0.419574 0.749661
vt 0.504543 0.749661
vt 0.521366 0.850246
vt 0.419574 0.851048
vt 0.512355 0.858754
vt 0.419574 0.858976
vt 0.504543 1.000000
vt 0.419574 1.000000
vt 0.629373 1.000000
vt 0.629373 0.898613
vt 0.629373 0.749661
vt 0.629373 0.851048
vt 0.209775 1.000000
vt 0.209775 0.898613
vt 0.302952 0.892681
vt 0.294744 1.000000
vt 0.315135 0.892794
vt 0.301387 1.000000
vt 0.419574 0.898613
vt 0.419574 1.000000
vt 0.419574 0.749661
vt 0.334605 0.749661
vt 0.209775 0.749661
vt 0.294744 0.749661
vt 0.910924 0.749887
vt 0.908056 0.677023
vt 0.922459 0.662588
vt 0.919890 0.749758
vt 0.909472 0.593548
vt 0.921371 0.579115
vt 0.904568 0.510127
vt 0.917733 0.495692
vt 0.844141 0.510266
vt 0.844144 0.426778
vt 0.853028 0.412355
vt 0.914408 0.412226
vt 0.838683 0.343360
vt 0.851045 0.328899
vt 0.907749 0.343184
vt 0.904170 0.259733
vt 0.915852 0.245296
vt 0.848340 0.245452
vt 0.904702 0.176237
vt 0.919896 0.161818
vt 0.904737 0.092788
vt 0.916355 0.078360
vt 0.907575 0.000270
vt 0.917727 0.000123
vt 0.853404 0.749905
vt 0.847067 0.662774
vt 0.859619 0.666269
vt 0.024118 0.833657
vt 0.017165 0.750536
vt 0.024118 0.749661
vt 0.849531 0.579286
vt 0.857455 0.582832
vt 0.847521 0.495859
vt 0.861260 0.499296
vt 0.925312 0.415735
vt 0.858713 0.415874
vt 0.915318 0.328757
vt 0.925943 0.332267
vt 0.858544 0.248945
vt 0.923801 0.248811
vt 0.842140 0.162018
vt 0.856149 0.165501
vt 0.846507 0.078526
vt 0.855616 0.082037
vt 0.925943 0.000000
vt 0.852265 0.000171
vt 0.858870 0.749806
vt 0.871894 0.668733
vt 0.871156 0.749688
vt 0.869695 0.585281
vt 0.873629 0.501798
vt 0.871022 0.418352
vt 0.857179 0.332415
vt 0.869453 0.334879
vt 0.870883 0.251435
vt 0.868468 0.167983
vt 0.867920 0.084513
vt 0.864514 0.000038
vt 0.879236 0.661775
vt 0.885592 0.749607
vt 0.881707 0.578290
vt 0.879634 0.494837
vt 0.885142 0.411334
vt 0.883190 0.327890
vt 0.880470 0.244437
vt 0.964409 0.251389
vt 0.963404 0.167920
vt 0.971473 0.161018
vt 0.874375 0.161046
vt 0.878648 0.077516
vt 0.968134 0.077534
vt 0.876381 0.000000
vt 0.969561 0.749666
vt 0.966250 0.661788
vt 0.978190 0.667789
vt 0.979360 0.749710
vt 0.967212 0.578324
vt 0.980424 0.584333
vt 0.966544 0.494857
vt 0.978484 0.500859
vt 0.969096 0.411398
vt 0.979730 0.417399
vt 0.970055 0.327938
vt 0.981630 0.333944
vt 0.968388 0.244466
vt 0.979178 0.250466
vt 0.885592 0.166956
vt 0.981249 0.167006
vt 0.982913 0.083550
vt 0.881441 0.083538
vt 0.968475 0.000000
vt 0.979718 0.000050
vt 0.989529 0.668379
vt 0.992948 0.749769
vt 0.990631 0.584919
vt 0.989872 0.501449
vt 0.992607 0.417995
vt 0.993517 0.334533
vt 0.991673 0.251058
vt 0.994573 0.167605
vt 0.991586 0.084130
vt 0.991896 0.000103
vt 0.927314 0.749759
vt 0.930470 0.668349
vt 0.940241 0.667423
vt 0.938091 0.749774
vt 0.931239 0.584890
vt 0.938291 0.583957
vt 1.000000 0.500544
vt 0.940042 0.500513
vt 0.930085 0.501421
vt 0.928964 0.417978
vt 0.938229 0.417049
vt 0.999477 0.417075
vt 0.928866 0.334519
vt 0.937068 0.333563
vt 0.925943 0.251048
vt 0.939791 0.250134
vt 0.926194 0.167602
vt 0.937042 0.166667
vt 1.000000 0.083215
vt 0.936854 0.083193
vt 0.017165 0.834285
vt 0.009006 0.750824
vt 0.017165 0.749661
vt 0.994729 0.000121
vt 0.952495 0.666362
vt 0.950377 0.749746
vt 0.950506 0.582912
vt 0.952398 0.499408
vt 0.950521 0.415971
vt 0.949321 0.332502
vt 0.952115 0.249043
vt 0.949344 0.165585
vt 0.949139 0.082119
vt 0.939446 0.000077
vt 0.951691 0.000067
vt 0.888987 0.750018
vt 0.888769 0.666650
vt 0.899007 0.658020
vt 0.009006 0.842872
vt 0.000000 0.751439
vt 0.009006 0.749661
vt 0.963404 0.574226
vt 0.898138 0.574566
vt 0.962181 0.490787
vt 0.961061 0.407343
vt 0.960998 0.323870
vt 0.029895 0.841851
vt 0.024118 0.758672
vt 0.029895 0.749661
vt 0.958058 0.240406
vt 0.886219 0.249341
vt 0.885592 0.165867
vt 0.896167 0.157228
vt 0.035229 0.842100
vt 0.029895 0.758847
vt 0.035229 0.749661
vt 0.963158 0.073456
vt 0.893172 0.073816
vt 0.963404 0.000000
vt 0.896608 0.749990
vt 0.894359 0.491131
vt 0.891317 0.407689
vt 0.907287 0.426631
vt 0.892152 0.324214
vt 0.892410 0.240729
vt 0.894497 0.000359
vn 0.0000 -1.0000 -0.0000
vn 0.0000 1.0000 0.0000
vn 1.0000 0.0000 0.0000
vn -1.0000 0.0000 0.0000
vn -0.0007 0.0000 1.0000
vn -0.0007 0.0002 1.0000
vn -0.0006 0.0002 1.0000
vn -0.0006 -0.0000 1.0000
vn 0.0007 -0.0000 1.0000
vn 0.0006 0.0005 1.0000
vn 0.0008 -0.0001 1.0000
vn 0.0008 -0.0000 1.0000
vn 0.0000 0.0000 -1.0000
vn 0.0000 0.0000 1.0000
vn 0.0003 -0.0000 1.0000
vn 0.0006 -0.0000 1.0000
vn 0.0003 0.0001 1.0000
vn -0.0004 0.0001 1.0000
vn -0.0003 -0.0001 1.0000
vn -0.0006 -0.0006 1.0000
vn 0.0006 0.0001 1.0000
vn -0.9899 -0.0055 -0.1415
vn -0.9900 -0.1405 0.0113
vn -0.7850 0.6193 -0.0163
vn -0.6576 0.7168 -0.2318
vn -0.9952 0.0775 -0.0601
vn -0.7448 0.6671 0.0194
vn -0.9959 -0.0289 0.0855
vn -0.8496 0.4809 0.2168
vn -0.9359 0.3103 -0.1666
vn -0.8101 0.5820 0.0704
vn -0.9731 0.2191 -0.0709
vn -0.7039 0.7024 -0.1057
vn -0.9724 -0.1195 0.2002
vn -0.6817 0.7012 -0.2088
vn -0.9561 -0.2671 0.1204
vn -0.8485 0.5290 0.0152
vn -0.9552 0.0299 -0.2943
vn -0.8484 0.5289 -0.0240
vn -0.9305 0.2045 -0.3040
vn -0.7567 0.5989 -0.2622
vn -0.3147 0.9480 -0.0473
vn -0.4950 0.8688 -0.0145
vn -0.3035 0.9527 -0.0136
vn -0.1351 0.9869 -0.0884
vn -0.4805 0.8745 0.0655
vn -0.5330 0.8436 0.0652
vn -0.2732 0.9617 -0.0202
vn -0.1833 0.9782 -0.0973
vn -0.3069 0.9435 -0.1252
vn -0.4511 0.8572 -0.2485
vn 0.3287 0.9388 -0.1028
vn 0.3195 0.9412 -0.1100
vn 0.1382 0.9846 0.1068
vn 0.4199 0.9064 -0.0462
vn 0.3435 0.9389 -0.0213
vn 0.2491 0.9665 0.0621
vn 0.3350 0.9248 0.1805
vn 0.4504 0.8882 -0.0910
vn 0.3222 0.9366 -0.1377
vn 0.2538 0.9340 -0.2514
vn 0.7967 0.6042 -0.0139
vn 0.8807 0.4733 0.0171
vn 0.8610 0.5055 -0.0565
vn 0.8145 0.5769 -0.0608
vn 0.9291 0.3679 -0.0367
vn 0.9638 0.2663 -0.0134
vn 0.7759 0.6096 0.1626
vn 0.7900 0.6131 0.0068
vn 0.8642 0.5019 -0.0362
vn 0.9239 0.3812 0.0341
vn 0.9972 -0.0017 0.0749
vn 0.9898 -0.1353 0.0445
vn 0.9946 -0.1005 -0.0272
vn 0.9999 0.0058 -0.0093
vn 0.9937 -0.1090 0.0256
vn 0.9940 -0.1027 0.0363
vn 0.9862 -0.0252 -0.1635
vn 0.9910 0.1003 0.0884
vn 0.9830 -0.1124 0.1453
vn 0.9491 0.0052 0.3149
vn 0.8129 -0.5692 0.1232
vn 0.8144 -0.5085 0.2796
vn 0.7871 -0.6165 -0.0226
vn 0.8402 -0.5397 -0.0527
vn 0.7969 -0.6021 -0.0495
vn 0.8124 -0.5784 -0.0741
vn 0.9213 -0.3806 -0.0793
vn 0.8042 -0.5915 0.0586
vn 0.7644 -0.5986 0.2394
vn 0.7011 -0.6890 0.1836
vn 0.3479 -0.9328 0.0935
vn 0.2755 -0.9507 0.1424
vn 0.4130 -0.9107 0.0029
vn 0.2015 -0.9709 -0.1292
vn 0.3159 -0.9472 0.0555
vn 0.2296 -0.9702 -0.0771
vn 0.1590 -0.9776 -0.1380
vn 0.2475 -0.9681 0.0399
vn 0.3750 -0.8846 0.2773
vn 0.3522 -0.8957 0.2715
vn -0.3552 -0.9336 -0.0471
vn -0.3288 -0.9444 -0.0059
vn -0.1375 -0.9843 0.1110
vn -0.2168 -0.9760 0.0185
vn -0.2044 -0.9788 -0.0106
vn -0.1192 -0.9914 0.0545
vn -0.4647 -0.8812 -0.0871
vn -0.4043 -0.9144 0.0217
vn -0.2413 -0.9641 0.1109
vn -0.2222 -0.9474 0.2302
vn -0.8417 -0.5355 -0.0694
vn -0.7632 -0.6460 -0.0145
vn -0.8429 -0.5336 -0.0693
vn -0.7263 -0.6874 0.0095
vn -0.6524 -0.7562 -0.0503
vn -0.6277 -0.7701 0.1136
vn -0.7500 -0.6451 0.1462
vn -0.8538 -0.4984 -0.1507
vn -0.7544 -0.6441 -0.1269
vn -0.6933 -0.7156 0.0852
usemtl Cave_Material.001
s 1
f 1/1/1 2/2/1 3/3/1
f 3/3/1 4/4/1 1/1/1
f 5/5/2 6/6/2 7/7/2
f 7/7/2 8/8/2 5/5/2
f 9/9/3 10/10/3 11/11/3
f 11/11/3 12/12/3 9/9/3
f 13/13/4 14/14/4 15/15/4
f 15/15/4 16/16/4 13/13/4
f 17/17/1 18/18/1 19/19/1
f 19/19/1 20/20/1 17/17/1
f 20/20/1 19/19/1 2/2/1
f 2/2/1 1/1/1 20/20/1
f 21/21/1 22/22/1 4/4/1
f 4/4/1 3/3/1 21/21/1
f 23/23/2 24/24/2 25/25/2
f 25/25/2 26/26/2 23/23/2
f 8/8/2 26/26/2 25/25/2
f 25/25/2 5/5/2 8/8/2
f 27/27/2 28/28/2 7/7/2
f 7/7/2 6/6/2 27/27/2
f 10/29/5 29/30/6 30/31/7
f 30/31/7 11/32/8 10/29/5
f 16/33/9 31/34/10 32/35/11
f 32/35/11 33/36/12 16/33/9
f 13/37/13 34/38/13 35/39/13
f 35/39/13 14/40/13 13/37/13
f 36/41/13 37/42/13 38/43/13
f 38/43/13 9/44/13 36/41/13
f 39/45/14 8/46/14 7/47/15
f 7/47/15 40/48/16 39/45/14
f 3/49/15 2/50/14 41/51/14
f 41/51/14 42/52/17 3/49/15
f 24/53/3 23/54/3 43/55/3
f 43/55/3 44/56/3 24/53/3
f 44/56/3 43/55/3 45/57/3
f 45/57/3 38/58/3 44/56/3
f 38/58/3 45/57/3 10/10/3
f 10/10/3 9/9/3 38/58/3
f 18/59/3 17/60/3 12/12/3
f 12/12/3 11/11/3 18/59/3
f 46/61/13 5/62/13 25/63/13
f 25/63/13 47/64/13 46/61/13
f 20/65/13 1/66/13 48/67/13
f 48/67/13 49/68/13 20/65/13
f 28/69/4 27/70/4 50/71/4
f 50/71/4 51/72/4 28/69/4
f 51/72/4 50/71/4 52/73/4
f 52/73/4 33/74/4 51/72/4
f 16/16/4 33/74/4 52/73/4
f 52/73/4 13/13/4 16/16/4
f 22/75/4 21/76/4 15/15/4
f 15/15/4 14/14/4 22/75/4
f 23/77/8 26/78/18 53/79/19
f 53/79/19 43/80/8 23/77/8
f 43/80/8 53/79/19 54/81/20
f 54/81/20 45/82/8 43/80/8
f 45/82/8 54/81/20 29/30/6
f 29/30/6 10/29/5 45/82/8
f 19/83/14 18/84/5 11/32/8
f 11/32/8 30/31/7 19/83/14
f 53/79/19 26/78/18 8/46/14
f 8/46/14 39/45/14 53/79/19
f 2/50/14 19/83/14 30/31/7
f 30/31/7 41/51/14 2/50/14
f 21/85/16 3/49/15 42/52/17
f 42/52/17 15/86/21 21/85/16
f 15/86/21 42/52/17 31/34/10
f 31/34/10 16/33/9 15/86/21
f 7/47/15 28/87/9 51/88/9
f 51/88/9 40/48/16 7/47/15
f 40/48/16 51/88/9 33/36/12
f 33/36/12 32/35/11 40/48/16
f 27/89/13 6/90/13 55/91/13
f 55/91/13 50/92/13 27/89/13
f 50/92/13 55/91/13 56/93/13
f 56/93/13 52/94/13 50/92/13
f 52/94/13 56/93/13 34/38/13
f 34/38/13 13/37/13 52/94/13
f 4/95/13 22/96/13 14/40/13
f 14/40/13 35/39/13 4/95/13
f 6/90/13 5/62/13 46/61/13
f 46/61/13 55/91/13 6/90/13
f 1/66/13 4/95/13 35/39/13
f 35/39/13 48/67/13 1/66/13
f 17/97/13 20/65/13 49/68/13
f 49/68/13 12/98/13 17/97/13
f 9/44/13 12/98/13 49/68/13
f 49/68/13 36/41/13 9/44/13
f 25/63/13 24/99/13 44/100/13
f 44/100/13 47/64/13 25/63/13
f 47/64/13 44/100/13 38/43/13
f 38/43/13 37/42/13 47/64/13
f 29/101/22 57/102/23 58/103/24
f 58/103/24 30/104/25 29/101/22
f 57/102/23 59/105/26 60/106/27
f 60/106/27 58/103/24 57/102/23
f 59/105/26 61/107/28 62/108/29
f 62/108/29 60/106/27 59/105/26
f 61/109/28 63/110/30 64/111/31
f 64/112/31 62/108/29 61/107/28
f 63/110/30 65/113/32 66/114/33
f 66/114/33 64/111/31 63/110/30
f 65/115/32 67/116/34 68/117/35
f 68/118/35 66/114/33 65/113/32
f 67/116/34 69/119/36 70/120/37
f 70/120/37 68/117/35 67/116/34
f 69/119/36 71/121/38 72/122/39
f 72/122/39 70/120/37 69/119/36
f 71/121/38 36/123/40 49/124/41
f 49/124/41 72/122/39 71/121/38
f 30/125/25 58/126/24 73/127/42
f 73/128/42 41/129/43 30/130/25
f 58/126/24 60/131/27 74/132/44
f 74/132/44 73/127/42 58/126/24
f 60/131/27 62/133/29 75/134/45
f 75/134/45 74/132/44 60/131/27
f 62/108/29 64/112/31 76/135/46
f 76/136/46 75/134/45 62/133/29
f 64/112/31 66/137/33 77/138/47
f 77/138/47 76/135/46 64/112/31
f 66/114/33 68/118/35 78/139/48
f 78/140/48 77/138/47 66/137/33
f 68/118/35 70/141/37 79/142/49
f 79/142/49 78/139/48 68/118/35
f 70/141/37 72/143/39 80/144/50
f 80/144/50 79/142/49 70/141/37
f 72/122/39 49/124/41 48/145/51
f 48/146/51 80/144/50 72/143/39
f 41/147/43 73/127/42 81/148/52
f 81/148/52 42/149/53 41/147/43
f 73/127/42 74/132/44 82/150/54
f 82/150/54 81/148/52 73/127/42
f 74/132/44 75/134/45 83/151/55
f 83/151/55 82/150/54 74/132/44
f 75/134/45 76/136/46 84/152/56
f 84/152/56 83/151/55 75/134/45
f 76/136/46 77/153/47 85/154/57
f 85/154/57 84/152/56 76/136/46
f 77/153/47 78/139/48 86/155/58
f 86/155/58 85/154/57 77/153/47
f 78/139/48 79/142/49 87/156/59
f 87/156/59 86/155/58 78/139/48
f 79/142/49 80/144/50 88/157/60
f 88/157/60 87/156/59 79/142/49
f 80/144/50 48/146/51 35/158/61
f 35/158/61 88/157/60 80/144/50
f 42/149/53 81/148/52 89/159/62
f 89/159/62 31/160/63 42/149/53
f 81/148/52 82/150/54 90/161/64
f 90/161/64 89/159/62 81/148/52
f 82/150/54 83/151/55 91/162/65
f 91/162/65 90/161/64 82/150/54
f 83/151/55 84/152/56 92/163/66
f 92/163/66 91/162/65 83/151/55
f 84/152/56 85/154/57 93/164/67
f 93/164/67 92/163/66 84/152/56
f 85/154/57 86/155/58 94/165/68
f 94/165/68 93/164/67 85/154/57
f 86/166/58 87/167/59 95/168/69
f 95/169/69 94/165/68 86/155/58
f 87/156/59 88/157/60 96/170/70
f 96/171/70 95/168/69 87/167/59
f 88/157/60 35/158/61 34/172/71
f 34/172/71 96/170/70 88/157/60
f 31/173/63 89/174/62 97/175/72
f 97/175/72 32/176/73 31/173/63
f 89/174/62 90/177/64 98/178/74
f 98/178/74 97/175/72 89/174/62
f 90/177/64 91/179/65 99/180/75
f 99/180/75 98/178/74 90/177/64
f 91/179/65 92/181/66 100/182/76
f 100/182/76 99/180/75 91/179/65
f 92/181/66 93/183/67 101/184/77
f 101/184/77 100/182/76 92/181/66
f 93/183/67 94/185/68 102/186/78
f 102/186/78 101/184/77 93/183/67
f 94/165/68 95/169/69 103/187/79
f 103/188/79 102/186/78 94/185/68
f 95/168/69 96/171/70 104/189/80
f 104/190/80 103/187/79 95/169/69
f 96/171/70 34/191/71 56/192/81
f 56/192/81 104/189/80 96/171/70
f 32/176/73 97/175/72 105/193/82
f 105/193/82 40/194/83 32/176/73
f 97/175/72 98/178/74 106/195/84
f 106/195/84 105/193/82 97/175/72
f 98/178/74 99/180/75 107/196/85
f 107/196/85 106/195/84 98/178/74
f 99/180/75 100/182/76 108/197/86
f 108/197/86 107/196/85 99/180/75
f 100/182/76 101/184/77 109/198/87
f 109/198/87 108/197/86 100/182/76
f 101/184/77 102/186/78 110/199/88
f 110/199/88 109/198/87 101/184/77
f 102/186/78 103/188/79 111/200/89
f 111/200/89 110/199/88 102/186/78
f 103/188/79 104/189/80 112/201/90
f 112/201/90 111/200/89 103/188/79
f 104/189/80 56/192/81 55/202/91
f 55/202/91 112/201/90 104/189/80
f 40/203/83 105/204/82 113/205/92
f 113/205/92 39/206/93 40/203/83
f 105/204/82 106/207/84 114/208/94
f 114/208/94 113/205/92 105/204/82
f 106/195/84 107/196/85 115/209/95
f 115/210/95 114/208/94 106/207/84
f 107/211/85 108/212/86 116/213/96
f 116/214/96 115/209/95 107/196/85
f 108/212/86 109/215/87 117/216/97
f 117/216/97 116/213/96 108/212/86
f 109/215/87 110/217/88 118/218/98
f 118/218/98 117/216/97 109/215/87
f 110/217/88 111/219/89 119/220/99
f 119/220/99 118/218/98 110/217/88
f 111/200/89 112/201/90 120/221/100
f 120/222/100 119/220/99 111/219/89
f 112/223/90 55/224/91 46/225/101
f 46/226/101 120/221/100 112/201/90
f 39/206/93 113/205/92 121/227/102
f 121/227/102 53/228/103 39/206/93
f 113/205/92 114/208/94 122/229/104
f 122/229/104 121/227/102 113/205/92
f 114/208/94 115/210/95 123/230/105
f 123/230/105 122/229/104 114/208/94
f 115/210/95 116/213/96 124/231/106
f 124/231/106 123/230/105 115/210/95
f 116/213/96 117/216/97 125/232/107
f 125/232/107 124/231/106 116/213/96
f 117/216/97 118/218/98 126/233/108
f 126/233/108 125/232/107 117/216/97
f 118/218/98 119/220/99 127/234/109
f 127/234/109 126/233/108 118/218/98
f 119/220/99 120/222/100 128/235/110
f 128/235/110 127/234/109 119/220/99
f 120/222/100 46/236/101 47/237/111
f 47/237/111 128/235/110 120/222/100
f 53/238/103 121/239/102 129/240/112
f 129/241/112 54/242/113 53/243/103
f 121/227/102 122/229/104 130/244/114
f 130/245/114 129/240/112 121/239/102
f 122/229/104 123/230/105 131/246/115
f 131/246/115 130/244/114 122/229/104
f 123/230/105 124/231/106 132/247/116
f 132/247/116 131/246/115 123/230/105
f 124/231/106 125/232/107 133/248/117
f 133/248/117 132/247/116 124/231/106
f 125/249/107 126/250/108 134/251/118
f 134/252/118 133/248/117 125/232/107
f 126/253/108 127/254/109 135/255/119
f 135/256/119 134/257/118 126/258/108
f 127/234/109 128/235/110 136/259/120
f 136/260/120 135/255/119 127/254/109
f 128/235/110 47/237/111 37/261/121
f 37/261/121 136/259/120 128/235/110
f 54/262/113 129/240/112 57/102/23
f 57/102/23 29/101/22 54/262/113
f 129/240/112 130/245/114 59/105/26
f 59/105/26 57/102/23 129/240/112
f 130/245/114 131/263/115 61/107/28
f 61/107/28 59/105/26 130/245/114
f 131/263/115 132/264/116 63/265/30
f 63/265/30 61/107/28 131/263/115
f 132/264/116 133/266/117 65/115/32
f 65/115/32 63/265/30 132/264/116
f 133/266/117 134/267/118 67/116/34
f 67/116/34 65/115/32 133/266/117
f 134/267/118 135/255/119 69/119/36
f 69/119/36 67/116/34 134/267/118
f 135/255/119 136/260/120 71/121/38
f 71/121/38 69/119/36 135/255/119
f 136/260/120 37/268/121 36/123/40
f 36/123/40 71/121/38 136/260/120
