# Blender v2.82 (sub 7) OBJ File: ''
# www.blender.org
mtllib tunnel_block_2.mtl
o Box005
v -9.500000 -49.999996 -50.132500
v 0.000000 -49.999996 -50.132500
v 0.000000 -50.000000 50.000000
v -9.500000 -50.000000 50.000000
v -9.500000 50.000008 -50.132492
v -9.500000 50.000000 50.000004
v 0.000000 50.000000 50.000004
v 0.000000 50.000008 -50.132492
v -50.025902 -9.499996 -50.117996
v -50.025902 0.000004 -50.117996
v 50.051800 0.000004 -50.066299
v 50.051800 -9.499996 -50.066299
v -50.000000 -9.500000 50.000000
v -50.000000 0.000000 50.000004
v 9.500000 -49.999996 -50.132500
v 50.038799 -49.999996 -50.058998
v 50.025902 -50.000000 50.000000
v 9.500000 -50.000000 50.000000
v -50.000000 -50.000000 50.000000
v -50.025902 -49.999996 -50.117996
v 9.500000 50.000000 50.000004
v 50.025902 50.000000 50.000004
v 50.038799 50.000008 -50.058990
v 9.500000 50.000008 -50.132492
v -50.025902 50.000008 -50.117989
v -50.000000 50.000000 50.000004
v 50.080700 -4.717094 5.341003
v 50.080700 -0.219799 9.225704
v 50.025902 0.000000 50.000004
v 50.025902 -9.500000 50.000000
v 50.080700 0.801903 -9.725296
v 50.080700 -3.862095 -9.990696
v 50.051800 6.333305 -50.066299
v -2.444500 -11.226398 50.000000
v -8.015000 -5.551701 50.000004
v 50.025902 6.333302 50.000004
v 8.201100 5.182301 50.000004
v 11.775300 -0.861500 50.000004
v 50.080700 50.000000 -9.499996
v 50.080700 50.000000 0.000004
v 50.080700 9.875004 -4.374695
v 50.080700 7.277004 -9.555195
v 50.080700 -8.202797 2.681999
v 50.080700 -49.999996 0.000000
v 50.080700 -49.999996 -9.500000
v 50.080700 -8.148396 -3.174198
v -50.025902 9.500004 -50.117996
v 50.051800 9.500004 -50.066299
v -50.025902 6.333305 -50.117996
v -3.193200 6.797001 50.000004
v 2.663000 7.925999 50.000004
v 3.411700 -10.097401 50.000000
v 7.316700 -5.956902 50.000004
v -50.000000 9.500000 50.000004
v -50.000000 6.333302 50.000004
v 50.080700 9.820705 1.481503
v 50.080700 50.000000 9.500004
v 50.025902 9.500000 50.000004
v 50.080700 6.422005 5.776505
v 50.080700 -50.000000 9.500000
v -7.130600 5.587399 50.000004
v -7.175700 -0.219700 50.000004
v 41.572701 -6.068699 7.865604
v 43.181301 0.889099 8.242702
v 32.726299 -5.894497 6.164303
v 34.667702 -0.025299 8.429005
v 25.142200 -4.383499 8.233006
v 27.063400 2.044800 9.535305
v 19.335400 -3.221500 9.222305
v 22.819201 0.465199 12.219105
v 12.515500 -3.883801 13.935505
v 18.087700 0.109798 16.628605
v 8.027800 -4.347301 24.740501
v 11.568000 1.454102 24.412903
v 10.056600 -6.395100 33.541203
v 8.560100 0.812698 31.885801
v 6.482500 -5.099701 41.684700
v 8.897800 0.626598 40.166000
v 40.911301 -8.303898 1.883499
v 32.449299 -7.643795 2.362000
v 23.801901 -10.069996 1.733700
v 18.281000 -8.570801 6.621101
v 10.472400 -9.112000 11.715302
v 3.542400 -8.404900 22.695602
v 3.417900 -8.440899 32.571404
v 2.098000 -8.620899 41.297203
v 40.165798 -9.126396 -3.931599
v 31.703800 -9.566895 -3.452999
v 22.552401 -7.975597 -3.994301
v 15.591600 -8.318695 1.411701
v 6.163500 -9.953400 7.739899
v -1.866400 -7.243698 20.433702
v -2.392000 -7.877201 31.786503
v -3.758200 -8.545300 41.021500
v 38.837601 -5.667797 -7.220398
v 29.991199 -5.280296 -8.921696
v 21.102699 -5.747097 -6.557095
v 11.605600 -4.549194 -4.018394
v 0.723200 -4.238396 4.137104
v -6.404500 -5.192402 19.566202
v -5.223200 -3.938999 32.278503
v -8.849200 -5.570702 41.758503
v 38.945202 0.142303 -10.253796
v 30.431700 1.068005 -10.067497
v 21.231400 0.023502 -8.521595
v 12.512500 0.505802 -3.712997
v 2.953400 1.205704 5.182404
v -6.568400 -0.022701 18.833202
v -10.402500 0.920898 31.190302
v -10.053200 1.530300 41.125801
v 39.387001 5.471302 -8.077297
v 30.866400 5.858803 -7.930996
v 21.748400 5.392002 -6.812996
v 13.375200 6.589905 -2.333096
v 2.468200 6.900703 4.700703
v -6.789600 5.946701 18.691902
v -8.265300 7.200100 31.319902
v -7.290900 5.568401 41.068604
v 40.105801 8.897102 -3.415794
v 31.357800 8.456604 -4.559296
v 22.899000 10.047905 -2.126396
v 15.522000 9.704803 1.588406
v 5.413700 8.070099 7.304802
v -0.544800 10.779701 21.072903
v -3.072900 10.146301 31.876102
v -4.449300 9.478199 41.170204
v 41.013199 9.719604 2.370705
v 32.265202 10.379704 1.227303
v 24.307199 7.953403 3.559002
v 18.353800 9.452599 6.715702
v 9.828300 8.911499 11.154305
v 4.920200 9.618599 23.180403
v 2.751300 9.582600 32.497299
v 1.406900 9.402599 41.281403
v 40.941502 5.070400 7.216805
v 32.420898 5.244598 7.363102
v 24.629900 6.755600 7.659103
v 20.066799 7.917599 11.507004
v 13.489900 7.255299 15.417503
v 7.232700 6.791801 24.992802
v 6.910000 4.743999 33.776802
v 8.040800 6.039398 42.193604
vt -39.500000 0.000000
vt -49.000000 0.000000
vt -49.000000 100.000000
vt -39.500000 100.000000
vt 40.500000 0.000000
vt 40.500000 100.000000
vt 50.000000 100.000000
vt 50.000000 0.000000
vt 0.000000 40.500000
vt 0.000000 50.000000
vt 100.000000 50.000000
vt 100.000000 40.500000
vt 100.000000 40.500000
vt 0.000000 40.500000
vt 0.000000 50.000000
vt 100.000000 50.000000
vt -58.500000 0.000000
vt -99.000000 0.000000
vt -99.000000 100.000000
vt -58.500000 100.000000
vt 1.000000 100.000000
vt 1.000000 0.000000
vt 59.500000 100.000000
vt 100.000000 100.000000
vt 100.000000 0.000000
vt 59.500000 0.000000
vt 0.000000 0.000000
vt 0.000000 100.000000
vt 59.500000 40.500000
vt 59.500000 50.000000
vt 100.000000 50.000000
vt 100.000000 40.500000
vt 40.500000 56.333302
vt 40.500000 50.000000
vt 0.000000 50.000000
vt 0.000000 56.333302
vt 59.500000 40.500000
vt 59.500000 50.000000
vt 100.000000 50.000000
vt 100.000000 40.500000
vt 0.000000 56.333302
vt 40.500000 56.333302
vt 40.500000 50.000000
vt 0.000000 50.000000
vt 40.500000 100.000000
vt 50.000000 100.000000
vt 50.000000 59.500000
vt 40.500000 59.500000
vt 50.000000 40.500000
vt 50.000000 0.000000
vt 40.500000 0.000000
vt 40.500000 40.500000
vt 0.000000 59.500000
vt 0.000000 100.000000
vt 100.000000 100.000000
vt 100.000000 59.500000
vt 0.000000 56.333302
vt 100.000000 56.333302
vt 100.000000 0.000000
vt 0.000000 0.000000
vt 40.500000 100.000000
vt 50.000000 59.500000
vt 40.500000 59.500000
vt 50.000000 40.500000
vt 50.000000 0.000000
vt 40.500000 0.000000
vt 40.500000 40.500000
vt 0.000000 59.500000
vt 100.000000 100.000000
vt 100.000000 59.500000
vt 0.000000 56.333302
vt 100.000000 56.333302
vt 100.000000 0.000000
vt 0.000000 0.000000
vt 59.500000 59.500000
vt 59.500000 100.000000
vt 100.000000 59.500000
vt 59.500000 56.333302
vt 100.000000 56.333302
vt 100.000000 0.000000
vt 59.500000 0.000000
vt 0.000000 0.000000
vt 0.000000 40.500000
vt 0.000000 59.500000
vt 0.000000 100.000000
vt 59.500000 59.500000
vt 59.500000 100.000000
vt 100.000000 100.000000
vt 100.000000 59.500000
vt 59.500000 56.333302
vt 100.000000 56.333302
vt 100.000000 0.000000
vt 59.500000 0.000000
vt 0.000000 0.000000
vt 0.000000 40.500000
vt 0.000000 59.500000
vt 0.000000 100.000000
vt 9.004200 35.540001
vt 10.000000 35.540001
vt 10.000000 39.980000
vt 9.004200 39.980000
vt 9.004200 31.100000
vt 10.000000 31.100000
vt 9.004200 26.660000
vt 10.000000 26.660000
vt 9.004200 22.219999
vt 10.000000 22.219999
vt 9.004200 17.780001
vt 10.000000 17.780001
vt 9.004200 13.340000
vt 10.000000 13.340000
vt 9.004200 8.900000
vt 10.000000 8.900000
vt 9.004200 4.460000
vt 10.000000 4.460000
vt 9.004200 0.020000
vt 10.000000 0.020000
vt 8.002600 35.540001
vt 8.002600 39.980000
vt 8.002600 31.100000
vt 8.002600 26.660000
vt 8.002600 22.219999
vt 8.002600 17.780001
vt 8.002600 13.340000
vt 8.002600 8.900000
vt 8.002600 4.460000
vt 8.002600 0.020000
vt 6.997400 35.540001
vt 6.997400 39.980000
vt 6.997400 31.100000
vt 6.997400 26.660000
vt 6.997400 22.219999
vt 6.997400 17.780001
vt 6.997400 13.340000
vt 6.997400 8.900000
vt 6.997400 4.460000
vt 6.997400 0.020000
vt 5.995800 35.540001
vt 5.995800 39.980000
vt 5.995800 31.100000
vt 5.995800 26.660000
vt 5.995800 22.219999
vt 5.995800 17.780001
vt 5.995800 13.340000
vt 5.995800 8.900000
vt 5.995800 4.460000
vt 5.995800 0.020000
vt 5.000000 35.540001
vt 5.000000 39.980000
vt 5.000000 31.100000
vt 5.000000 26.660000
vt 5.000000 22.219999
vt 5.000000 17.780001
vt 5.000000 13.340000
vt 5.000000 8.900000
vt 5.000000 4.460000
vt 5.000000 0.020000
vt 4.004200 35.540001
vt 4.004200 39.980000
vt 4.004200 31.100000
vt 4.004200 26.660000
vt 4.004200 22.219999
vt 4.004200 17.780001
vt 4.004200 13.340000
vt 4.004200 8.900000
vt 4.004200 4.460000
vt 4.004200 0.020000
vt 3.002600 35.540001
vt 3.002600 39.980000
vt 3.002600 31.100000
vt 3.002600 26.660000
vt 3.002600 22.219999
vt 3.002600 17.780001
vt 3.002600 13.340000
vt 3.002600 8.900000
vt 3.002600 4.460000
vt 3.002600 0.020000
vt 1.997400 35.540001
vt 1.997400 39.980000
vt 1.997400 31.100000
vt 1.997400 26.660000
vt 1.997400 22.219999
vt 1.997400 17.780001
vt 1.997400 13.340000
vt 1.997400 8.900000
vt 1.997400 4.460000
vt 1.997400 0.020000
vt 0.995800 35.540001
vt 0.995800 39.980000
vt 0.995800 31.100000
vt 0.995800 26.660000
vt 0.995800 22.219999
vt 0.995800 17.780001
vt 0.995800 13.340000
vt 0.995800 8.900000
vt 0.995800 4.460000
vt 0.995800 0.020000
vt -0.000000 35.540001
vt -0.000000 39.980000
vt -0.000000 31.100000
vt -0.000000 26.660000
vt -0.000000 22.219999
vt -0.000000 17.780001
vt -0.000000 13.340000
vt -0.000000 8.900000
vt -0.000000 4.460000
vt -0.000000 0.020000
vn -0.0000 -1.0000 -0.0000
vn 0.0000 1.0000 0.0000
vn 0.0005 0.0000 -1.0000
vn 0.0005 -0.0001 -1.0000
vn -1.0000 0.0000 0.0003
vn 1.0000 -0.0002 0.0010
vn 1.0000 -0.0003 0.0013
vn 1.0000 -0.0000 0.0013
vn 1.0000 0.0000 -0.0007
vn 1.0000 -0.0005 -0.0006
vn -0.0000 -0.0000 1.0000
vn 1.0000 0.0001 -0.0004
vn 1.0000 -0.0000 0.0000
vn 1.0000 0.0000 -0.0005
vn 1.0000 0.0001 -0.0006
vn 1.0000 -0.0002 -0.0004
vn 0.0006 0.0000 -1.0000
vn 0.0005 0.0001 -1.0000
vn 0.0006 -0.0002 -1.0000
vn 1.0000 0.0002 0.0006
vn 1.0000 -0.0002 0.0008
vn 1.0000 -0.0001 0.0012
vn 1.0000 0.0000 0.0012
vn 1.0000 0.0012 0.0012
vn 1.0000 0.0000 0.0014
vn 1.0000 0.0000 0.0007
vn 1.0000 -0.0001 -0.0008
vn 1.0000 -0.0002 -0.0007
vn 1.0000 0.0001 -0.0008
vn 1.0000 0.0003 -0.0010
vn -0.0016 0.6058 -0.7956
vn 0.0425 -0.1405 -0.9892
vn -0.0528 0.0109 -0.9985
vn -0.1795 0.7030 -0.6882
vn -0.0420 0.6801 -0.7319
vn -0.0906 0.0955 -0.9913
vn -0.1254 0.4885 -0.8635
vn -0.2344 -0.1065 -0.9663
vn -0.3448 0.5835 -0.7353
vn -0.6473 0.3239 -0.6900
vn -0.5718 0.6856 -0.4505
vn -0.7105 0.2708 -0.6495
vn -0.6872 0.7254 -0.0382
vn -0.8716 -0.1623 -0.4626
vn -0.8494 0.5146 -0.1172
vn -0.9290 -0.2992 -0.2178
vn -0.8319 0.5530 -0.0452
vn -0.9835 0.0922 0.1559
vn -0.7571 0.6231 0.1963
vn -0.9564 0.1728 0.2355
vn -0.0245 0.9567 -0.2900
vn 0.0018 0.8764 -0.4817
vn -0.0276 0.9496 -0.3123
vn -0.1004 0.9932 -0.0581
vn -0.1959 0.8709 -0.4508
vn -0.3339 0.8666 -0.3709
vn -0.2055 0.9775 -0.0483
vn -0.1678 0.9839 0.0617
vn -0.2842 0.9556 0.0779
vn -0.4619 0.8665 0.1893
vn -0.0824 0.9316 0.3541
vn -0.0713 0.9488 0.3076
vn 0.0821 0.9841 0.1574
vn 0.1205 0.8913 0.4371
vn 0.1835 0.9438 0.2749
vn 0.2273 0.9459 0.2314
vn 0.3418 0.9398 0.0028
vn 0.4659 0.8757 0.1266
vn 0.3323 0.9351 0.1229
vn 0.2666 0.9442 0.1931
vn -0.0329 0.5826 0.8121
vn 0.0076 0.4686 0.8834
vn 0.0280 0.4966 0.8675
vn 0.2708 0.5590 0.7837
vn 0.4649 0.3884 0.7956
vn 0.7216 0.2257 0.6545
vn 0.7902 0.5863 0.1783
vn 0.7776 0.6185 0.1128
vn 0.8575 0.5103 0.0659
vn 0.9316 0.3623 -0.0283
vn 0.0408 0.0316 0.9987
vn 0.0275 -0.0976 0.9948
vn 0.0502 -0.1024 0.9935
vn 0.3352 -0.0052 0.9421
vn 0.5102 -0.1386 0.8488
vn 0.7392 -0.1247 0.6618
vn 0.9253 0.0079 0.3792
vn 0.9858 0.1641 0.0356
vn 0.9919 -0.1231 -0.0326
vn 0.9708 -0.0189 -0.2393
vn 0.0505 -0.5837 0.8104
vn 0.1716 -0.5270 0.8324
vn 0.0396 -0.6094 0.7919
vn 0.2611 -0.5289 0.8075
vn 0.3922 -0.5932 0.7031
vn 0.6111 -0.5232 0.5940
vn 0.8604 -0.3955 0.3214
vn 0.7953 -0.6035 0.0582
vn 0.8049 -0.5824 -0.1139
vn 0.7314 -0.6681 -0.1369
vn 0.0521 -0.9300 0.3638
vn 0.0922 -0.9620 0.2572
vn 0.0274 -0.9004 0.4343
vn 0.0132 -0.9656 0.2598
vn 0.1895 -0.9501 0.2480
vn 0.1418 -0.9702 0.1964
vn 0.1957 -0.9743 0.1115
vn 0.2340 -0.9722 0.0057
vn 0.4409 -0.8779 -0.1870
vn 0.3250 -0.9224 -0.2086
vn -0.0176 -0.9392 -0.3430
vn -0.0010 -0.9435 -0.3315
vn 0.0888 -0.9879 -0.1273
vn -0.1232 -0.9679 -0.2191
vn -0.1347 -0.9768 -0.1663
vn -0.0095 -0.9973 -0.0726
vn -0.4439 -0.8910 -0.0950
vn -0.4130 -0.9089 -0.0583
vn -0.2174 -0.9706 -0.1038
vn -0.1996 -0.9645 -0.1728
vn -0.0385 -0.4955 -0.8678
vn 0.0066 -0.6350 -0.7725
vn -0.1070 -0.5338 -0.8388
vn -0.3254 -0.7413 -0.5870
vn -0.4244 -0.7261 -0.5409
vn -0.3820 -0.8083 -0.4481
vn -0.7100 -0.6475 -0.2769
vn -0.8724 -0.4883 0.0209
vn -0.7725 -0.6326 0.0562
vn -0.6907 -0.7203 -0.0645
usemtl Cave_Material.001
s 1
f 1/1/1 2/2/1 3/3/1
f 3/3/1 4/4/1 1/1/1
f 5/5/2 6/6/2 7/7/2
f 7/7/2 8/8/2 5/5/2
f 9/9/3 10/10/3 11/11/3
f 11/11/3 12/12/4 9/9/3
f 9/13/5 13/14/5 14/15/5
f 14/15/5 10/16/5 9/13/5
f 15/17/1 16/18/1 17/19/1
f 17/19/1 18/20/1 15/17/1
f 2/2/1 15/17/1 18/20/1
f 18/20/1 3/3/1 2/2/1
f 4/4/1 19/21/1 20/22/1
f 20/22/1 1/1/1 4/4/1
f 21/23/2 22/24/2 23/25/2
f 23/25/2 24/26/2 21/23/2
f 21/23/2 24/26/2 8/8/2
f 8/8/2 7/7/2 21/23/2
f 5/5/2 25/27/2 26/28/2
f 26/28/2 6/6/2 5/5/2
f 27/29/6 28/30/7 29/31/8
f 29/31/8 30/32/8 27/29/6
f 31/33/9 32/34/10 11/35/9
f 11/35/9 33/36/9 31/33/9
f 34/37/11 35/38/11 14/39/11
f 14/39/11 13/40/11 34/37/11
f 36/41/11 37/42/11 38/43/11
f 38/43/11 29/44/11 36/41/11
f 39/45/12 40/46/13 41/47/13
f 41/47/13 42/48/14 39/45/12
f 43/49/13 44/50/13 45/51/15
f 45/51/15 46/52/16 43/49/13
f 47/53/3 25/54/17 23/55/18
f 23/55/18 48/56/18 47/53/3
f 49/57/3 47/53/3 48/56/18
f 48/56/18 33/58/3 49/57/3
f 10/10/3 49/57/3 33/58/3
f 33/58/3 11/11/3 10/10/3
f 12/12/4 16/59/19 20/60/3
f 20/60/3 9/9/3 12/12/4
f 21/61/11 7/7/11 50/62/11
f 50/62/11 51/63/11 21/61/11
f 52/64/11 3/65/11 18/66/11
f 18/66/11 53/67/11 52/64/11
f 54/68/5 26/28/5 25/69/5
f 25/69/5 47/70/5 54/68/5
f 55/71/5 54/68/5 47/70/5
f 47/70/5 49/72/5 55/71/5
f 55/71/5 49/72/5 10/16/5
f 10/16/5 14/15/5 55/71/5
f 9/13/5 20/73/5 19/74/5
f 19/74/5 13/14/5 9/13/5
f 56/75/20 57/76/21 22/24/22
f 22/24/22 58/77/23 56/75/20
f 59/78/24 56/75/20 58/77/23
f 58/77/23 36/79/8 59/78/24
f 28/30/7 59/78/24 36/79/8
f 36/79/8 29/31/8 28/30/7
f 30/32/8 17/80/25 60/81/26
f 60/81/26 27/29/6 30/32/8
f 40/46/13 57/76/21 56/75/20
f 56/75/20 41/47/13 40/46/13
f 27/29/6 60/81/26 44/50/13
f 44/50/13 43/49/13 27/29/6
f 46/52/16 45/51/15 16/82/27
f 16/82/27 12/83/28 46/52/16
f 32/34/10 46/52/16 12/83/28
f 12/83/28 11/35/9 32/34/10
f 48/84/29 23/85/30 39/45/12
f 39/45/12 42/48/14 48/84/29
f 33/36/9 48/84/29 42/48/14
f 42/48/14 31/33/9 33/36/9
f 61/86/11 6/87/11 26/88/11
f 26/88/11 54/89/11 61/86/11
f 62/90/11 61/86/11 54/89/11
f 54/89/11 55/91/11 62/90/11
f 35/38/11 62/90/11 55/91/11
f 55/91/11 14/39/11 35/38/11
f 13/40/11 19/92/11 4/93/11
f 4/93/11 34/37/11 13/40/11
f 50/62/11 7/7/11 6/87/11
f 6/87/11 61/86/11 50/62/11
f 34/37/11 4/93/11 3/65/11
f 3/65/11 52/64/11 34/37/11
f 53/67/11 18/66/11 17/94/11
f 17/94/11 30/95/11 53/67/11
f 53/67/11 30/95/11 29/44/11
f 29/44/11 38/43/11 53/67/11
f 58/96/11 22/97/11 21/61/11
f 21/61/11 51/63/11 58/96/11
f 36/41/11 58/96/11 51/63/11
f 51/63/11 37/42/11 36/41/11
f 63/98/31 64/99/32 28/100/33
f 28/100/33 27/101/34 63/98/31
f 65/102/35 66/103/36 64/99/32
f 64/99/32 63/98/31 65/102/35
f 67/104/37 68/105/38 66/103/36
f 66/103/36 65/102/35 67/104/37
f 69/106/39 70/107/40 68/105/38
f 68/105/38 67/104/37 69/106/39
f 71/108/41 72/109/42 70/107/40
f 70/107/40 69/106/39 71/108/41
f 73/110/43 74/111/44 72/109/42
f 72/109/42 71/108/41 73/110/43
f 75/112/45 76/113/46 74/111/44
f 74/111/44 73/110/43 75/112/45
f 77/114/47 78/115/48 76/113/46
f 76/113/46 75/112/45 77/114/47
f 53/116/49 38/117/50 78/115/48
f 78/115/48 77/114/47 53/116/49
f 79/118/51 63/98/31 27/101/34
f 27/101/34 43/119/52 79/118/51
f 80/120/53 65/102/35 63/98/31
f 63/98/31 79/118/51 80/120/53
f 81/121/54 67/104/37 65/102/35
f 65/102/35 80/120/53 81/121/54
f 82/122/55 69/106/39 67/104/37
f 67/104/37 81/121/54 82/122/55
f 83/123/56 71/108/41 69/106/39
f 69/106/39 82/122/55 83/123/56
f 84/124/57 73/110/43 71/108/41
f 71/108/41 83/123/56 84/124/57
f 85/125/58 75/112/45 73/110/43
f 73/110/43 84/124/57 85/125/58
f 86/126/59 77/114/47 75/112/45
f 75/112/45 85/125/58 86/126/59
f 52/127/60 53/116/49 77/114/47
f 77/114/47 86/126/59 52/127/60
f 87/128/61 79/118/51 43/119/52
f 43/119/52 46/129/62 87/128/61
f 88/130/63 80/120/53 79/118/51
f 79/118/51 87/128/61 88/130/63
f 89/131/64 81/121/54 80/120/53
f 80/120/53 88/130/63 89/131/64
f 90/132/65 82/122/55 81/121/54
f 81/121/54 89/131/64 90/132/65
f 91/133/66 83/123/56 82/122/55
f 82/122/55 90/132/65 91/133/66
f 92/134/67 84/124/57 83/123/56
f 83/123/56 91/133/66 92/134/67
f 93/135/68 85/125/58 84/124/57
f 84/124/57 92/134/67 93/135/68
f 94/136/69 86/126/59 85/125/58
f 85/125/58 93/135/68 94/136/69
f 34/137/70 52/127/60 86/126/59
f 86/126/59 94/136/69 34/137/70
f 95/138/71 87/128/61 46/129/62
f 46/129/62 32/139/72 95/138/71
f 96/140/73 88/130/63 87/128/61
f 87/128/61 95/138/71 96/140/73
f 97/141/74 89/131/64 88/130/63
f 88/130/63 96/140/73 97/141/74
f 98/142/75 90/132/65 89/131/64
f 89/131/64 97/141/74 98/142/75
f 99/143/76 91/133/66 90/132/65
f 90/132/65 98/142/75 99/143/76
f 100/144/77 92/134/67 91/133/66
f 91/133/66 99/143/76 100/144/77
f 101/145/78 93/135/68 92/134/67
f 92/134/67 100/144/77 101/145/78
f 102/146/79 94/136/69 93/135/68
f 93/135/68 101/145/78 102/146/79
f 35/147/80 34/137/70 94/136/69
f 94/136/69 102/146/79 35/147/80
f 103/148/81 95/138/71 32/139/72
f 32/139/72 31/149/82 103/148/81
f 104/150/83 96/140/73 95/138/71
f 95/138/71 103/148/81 104/150/83
f 105/151/84 97/141/74 96/140/73
f 96/140/73 104/150/83 105/151/84
f 106/152/85 98/142/75 97/141/74
f 97/141/74 105/151/84 106/152/85
f 107/153/86 99/143/76 98/142/75
f 98/142/75 106/152/85 107/153/86
f 108/154/87 100/144/77 99/143/76
f 99/143/76 107/153/86 108/154/87
f 109/155/88 101/145/78 100/144/77
f 100/144/77 108/154/87 109/155/88
f 110/156/89 102/146/79 101/145/78
f 101/145/78 109/155/88 110/156/89
f 62/157/90 35/147/80 102/146/79
f 102/146/79 110/156/89 62/157/90
f 111/158/91 103/148/81 31/149/82
f 31/149/82 42/159/92 111/158/91
f 112/160/93 104/150/83 103/148/81
f 103/148/81 111/158/91 112/160/93
f 113/161/94 105/151/84 104/150/83
f 104/150/83 112/160/93 113/161/94
f 114/162/95 106/152/85 105/151/84
f 105/151/84 113/161/94 114/162/95
f 115/163/96 107/153/86 106/152/85
f 106/152/85 114/162/95 115/163/96
f 116/164/97 108/154/87 107/153/86
f 107/153/86 115/163/96 116/164/97
f 117/165/98 109/155/88 108/154/87
f 108/154/87 116/164/97 117/165/98
f 118/166/99 110/156/89 109/155/88
f 109/155/88 117/165/98 118/166/99
f 61/167/100 62/157/90 110/156/89
f 110/156/89 118/166/99 61/167/100
f 119/168/101 111/158/91 42/159/92
f 42/159/92 41/169/102 119/168/101
f 120/170/103 112/160/93 111/158/91
f 111/158/91 119/168/101 120/170/103
f 121/171/104 113/161/94 112/160/93
f 112/160/93 120/170/103 121/171/104
f 122/172/105 114/162/95 113/161/94
f 113/161/94 121/171/104 122/172/105
f 123/173/106 115/163/96 114/162/95
f 114/162/95 122/172/105 123/173/106
f 124/174/107 116/164/97 115/163/96
f 115/163/96 123/173/106 124/174/107
f 125/175/108 117/165/98 116/164/97
f 116/164/97 124/174/107 125/175/108
f 126/176/109 118/166/99 117/165/98
f 117/165/98 125/175/108 126/176/109
f 50/177/110 61/167/100 118/166/99
f 118/166/99 126/176/109 50/177/110
f 127/178/111 119/168/101 41/169/102
f 41/169/102 56/179/112 127/178/111
f 128/180/113 120/170/103 119/168/101
f 119/168/101 127/178/111 128/180/113
f 129/181/114 121/171/104 120/170/103
f 120/170/103 128/180/113 129/181/114
f 130/182/115 122/172/105 121/171/104
f 121/171/104 129/181/114 130/182/115
f 131/183/116 123/173/106 122/172/105
f 122/172/105 130/182/115 131/183/116
f 132/184/117 124/174/107 123/173/106
f 123/173/106 131/183/116 132/184/117
f 133/185/118 125/175/108 124/174/107
f 124/174/107 132/184/117 133/185/118
f 134/186/119 126/176/109 125/175/108
f 125/175/108 133/185/118 134/186/119
f 51/187/120 50/177/110 126/176/109
f 126/176/109 134/186/119 51/187/120
f 135/188/121 127/178/111 56/179/112
f 56/179/112 59/189/122 135/188/121
f 136/190/123 128/180/113 127/178/111
f 127/178/111 135/188/121 136/190/123
f 137/191/124 129/181/114 128/180/113
f 128/180/113 136/190/123 137/191/124
f 138/192/125 130/182/115 129/181/114
f 129/181/114 137/191/124 138/192/125
f 139/193/126 131/183/116 130/182/115
f 130/182/115 138/192/125 139/193/126
f 140/194/127 132/184/117 131/183/116
f 131/183/116 139/193/126 140/194/127
f 141/195/128 133/185/118 132/184/117
f 132/184/117 140/194/127 141/195/128
f 142/196/129 134/186/119 133/185/118
f 133/185/118 141/195/128 142/196/129
f 37/197/130 51/187/120 134/186/119
f 134/186/119 142/196/129 37/197/130
f 64/198/32 135/188/121 59/189/122
f 59/189/122 28/199/33 64/198/32
f 66/200/36 136/190/123 135/188/121
f 135/188/121 64/198/32 66/200/36
f 68/201/38 137/191/124 136/190/123
f 136/190/123 66/200/36 68/201/38
f 70/202/40 138/192/125 137/191/124
f 137/191/124 68/201/38 70/202/40
f 72/203/42 139/193/126 138/192/125
f 138/192/125 70/202/40 72/203/42
f 74/204/44 140/194/127 139/193/126
f 139/193/126 72/203/42 74/204/44
f 76/205/46 141/195/128 140/194/127
f 140/194/127 74/204/44 76/205/46
f 78/206/48 142/196/129 141/195/128
f 141/195/128 76/205/46 78/206/48
f 38/207/50 37/197/130 142/196/129
f 142/196/129 78/206/48 38/207/50
