# 3ds Max Wavefront OBJ Exporter v0.97b - (c)2007 guruware
# File Created: 29.06.2020 18:19:43

mtllib tunnel_block_1.mtl

#
# object Box001
#

v  0.0000 -50.0000 -150.0000
v  0.0000 -50.0000 150.0000
v  -9.5000 -50.0000 150.0000
v  -9.5000 -50.0000 -150.0000
v  0.0000 50.0000 -150.0000
v  -9.5000 50.0000 -150.0000
v  -9.5000 50.0000 150.0000
v  0.0000 50.0000 150.0000
v  100.0000 0.0000 -150.0000
v  100.0000 0.0000 150.0000
v  100.0000 -9.5000 150.0000
v  100.0000 -9.5000 -150.0000
v  -100.0000 0.0000 -150.0000
v  -100.0000 -9.5000 -150.0000
v  -100.0000 -9.5000 150.0000
v  -100.0000 0.0000 150.0000
v  100.0000 -50.0000 -150.0000
v  100.0000 -50.0000 150.0000
v  9.5000 -50.0000 150.0000
v  9.5000 -50.0000 -150.0000
v  -100.0000 -50.0000 150.0000
v  -100.0000 -50.0000 -150.0000
v  100.0000 50.0000 150.0000
v  100.0000 50.0000 -150.0000
v  9.5000 50.0000 -150.0000
v  9.5000 50.0000 150.0000
v  -100.0000 50.0000 -150.0000
v  -100.0000 50.0000 150.0000
v  9.2257 -0.2198 150.0000
v  5.3410 -4.7171 150.0000
v  -9.9907 -3.8621 150.0000
v  -9.7253 0.8019 150.0000
v  -100.0000 6.3333 150.0000
v  -8.0150 -5.5517 -150.0000
v  -2.4445 -11.2264 -150.0000
v  11.7753 -0.8615 -150.0000
v  8.2011 5.1823 -150.0000
v  100.0000 6.3333 -150.0000
v  -4.3747 9.8750 150.0000
v  -9.5552 7.2770 150.0000
v  2.6820 -8.2028 150.0000
v  -3.1742 -8.1484 150.0000
v  100.0000 9.5000 150.0000
v  100.0000 9.5000 -150.0000
v  100.0000 6.3333 150.0000
v  -3.1932 6.7970 -150.0000
v  2.6630 7.9260 -150.0000
v  3.4117 -10.0974 -150.0000
v  7.3167 -5.9569 -150.0000
v  -100.0000 9.5000 -150.0000
v  -100.0000 9.5000 150.0000
v  -100.0000 6.3333 -150.0000
v  1.4815 9.8207 150.0000
v  5.7765 6.4220 150.0000
v  -7.1306 5.5874 -150.0000
v  -7.1757 -0.2197 -150.0000
v  8.7138 0.8891 120.6145
v  8.0631 -6.0687 114.9071
v  9.1925 -0.0253 87.2737
v  6.6251 -5.8945 81.5663
v  9.0955 2.0448 53.9329
v  7.3404 -4.3835 48.2254
v  8.8040 0.4652 20.5920
v  4.4667 -3.2215 14.8846
v  11.1356 0.1098 -12.7488
v  5.1359 -3.8838 -18.4562
v  9.3667 1.4541 -46.0896
v  6.1521 -4.3473 -51.7970
v  7.1757 0.8127 -79.4304
v  8.8108 -6.3951 -85.1378
v  8.8978 0.6266 -112.7712
v  6.4825 -5.0997 -118.4786
v  2.0571 -8.3039 116.3633
v  2.8325 -7.6438 83.0225
v  0.7156 -10.0700 49.6817
v  1.6868 -8.5708 16.3409
v  2.1438 -9.1120 -16.9999
v  1.2378 -8.4049 -50.3408
v  2.1129 -8.4409 -83.6816
v  2.0980 -8.6209 -117.0224
v  -3.7990 -9.1264 117.3991
v  -3.0236 -9.5669 84.0583
v  -5.1406 -7.9756 50.7175
v  -4.1693 -8.3187 17.3767
v  -3.7124 -9.9534 -15.9641
v  -4.6184 -7.2437 -49.3049
v  -3.7433 -7.8772 -82.6458
v  -3.7582 -8.5453 -115.9866
v  -7.2685 -5.6678 114.6295
v  -8.7066 -5.2803 81.2887
v  -7.9913 -5.7471 47.9479
v  -10.8650 -4.5492 14.6071
v  -10.1958 -4.2384 -18.7338
v  -9.1796 -5.1924 -52.0746
v  -6.5209 -3.9390 -85.4154
v  -8.8492 -5.5707 -118.7562
v  -10.2372 0.1423 117.0074
v  -9.7585 1.0680 83.6666
v  -9.8555 0.0235 50.3258
v  -10.1470 0.5058 16.9849
v  -7.8154 1.2057 -16.3559
v  -9.5843 -0.0227 -49.6967
v  -11.7753 0.9209 -83.0375
v  -10.0532 1.5303 -116.3783
v  -8.0171 5.4713 117.2222
v  -7.5790 5.8588 83.8814
v  -8.0714 5.3920 50.5406
v  -8.5206 6.5899 17.1998
v  -8.4967 6.9007 -16.1411
v  -9.8405 5.9467 -49.4819
v  -9.6349 7.2001 -82.8227
v  -7.2909 5.5684 -116.1635
v  -3.3015 8.8971 116.8405
v  -4.1732 8.4566 83.4997
v  -3.2467 10.0479 50.1589
v  -4.0511 9.7048 16.8181
v  -4.5665 8.0701 -16.5228
v  -3.1579 10.7797 -49.8636
v  -4.4138 10.1463 -83.2044
v  -4.4493 9.4782 -116.5452
v  2.5546 9.7196 116.4224
v  1.6830 10.3797 83.0816
v  2.6095 7.9534 49.7408
v  1.8051 9.4526 16.4000
v  1.2897 8.9115 -16.9409
v  2.6983 9.6186 -50.2817
v  1.4424 9.5826 -83.6225
v  1.4069 9.4026 -116.9633
v  7.3146 5.0704 112.9944
v  7.7527 5.2446 79.6536
v  7.2603 6.7556 46.3128
v  6.8111 7.9176 12.9720
v  6.8350 7.2553 -20.3688
v  5.4912 6.7918 -53.7096
v  5.6967 4.7440 -87.0505
v  8.0408 6.0394 -120.3913
# 136 vertices

vn 0.0000 -1.0000 0.0000
vn 0.0000 1.0000 -0.0000
vn 1.0000 0.0000 -0.0000
vn -1.0000 0.0000 -0.0000
vn -0.0000 -1.0000 0.0000
vn -0.0000 -1.0000 -0.0000
vn 0.0000 0.0000 1.0000
vn 0.0000 0.0000 -1.0000
vn -0.9946 0.0426 -0.0944
vn -0.9897 -0.1432 0.0067
vn -0.7911 0.6117 -0.0030
vn -0.7120 0.6890 -0.1353
vn -0.9959 0.0813 -0.0385
vn -0.7353 0.6777 0.0038
vn -0.9971 -0.0515 0.0559
vn -0.8653 0.4829 0.1345
vn -0.9378 0.3328 -0.0993
vn -0.7999 0.5993 0.0320
vn -0.9706 0.2354 -0.0501
vn -0.7065 0.7053 -0.0591
vn -0.9864 -0.1131 0.1191
vn -0.7030 0.7006 -0.1219
vn -0.9530 -0.2922 0.0804
vn -0.8596 0.5107 0.0173
vn -0.9777 0.0895 -0.1902
vn -0.8252 0.5642 -0.0258
vn -0.9700 0.1625 -0.1806
vn -0.7569 0.6336 -0.1604
vn -0.2876 0.9571 -0.0361
vn -0.4735 0.8807 -0.0111
vn -0.3232 0.9463 0.0037
vn -0.1455 0.9881 -0.0493
vn -0.4909 0.8701 0.0442
vn -0.5463 0.8364 0.0447
vn -0.2630 0.9646 -0.0173
vn -0.1484 0.9866 -0.0674
vn -0.3037 0.9503 -0.0693
vn -0.4668 0.8718 -0.1484
vn 0.3346 0.9403 -0.0625
vn 0.3049 0.9502 -0.0639
vn 0.1419 0.9878 0.0636
vn 0.4448 0.8948 -0.0396
vn 0.3183 0.9480 -0.0041
vn 0.2602 0.9650 0.0332
vn 0.3012 0.9469 0.1129
vn 0.4782 0.8764 -0.0567
vn 0.3107 0.9474 -0.0775
vn 0.2738 0.9501 -0.1498
vn 0.8056 0.5924 -0.0081
vn 0.8839 0.4677 0.0056
vn 0.8605 0.5084 -0.0327
vn 0.8219 0.5684 -0.0370
vn 0.9201 0.3916 -0.0100
vn 0.9686 0.2482 -0.0161
vn 0.7796 0.6193 0.0936
vn 0.7822 0.6230 0.0051
vn 0.8517 0.5239 -0.0121
vn 0.9360 0.3514 0.0178
vn 0.9987 0.0154 0.0494
vn 0.9947 -0.0980 0.0295
vn 0.9936 -0.1111 -0.0221
vn 1.0000 0.0003 -0.0057
vn 0.9908 -0.1356 0.0003
vn 0.9930 -0.1169 0.0179
vn 0.9963 -0.0030 -0.0864
vn 0.9851 0.1553 0.0739
vn 0.9879 -0.1373 0.0720
vn 0.9819 -0.0298 0.1869
vn 0.8090 -0.5838 0.0684
vn 0.8347 -0.5246 0.1676
vn 0.7841 -0.6205 -0.0150
vn 0.8409 -0.5403 -0.0299
vn 0.8033 -0.5950 -0.0267
vn 0.8185 -0.5729 -0.0418
vn 0.9126 -0.4058 -0.0509
vn 0.7956 -0.6051 0.0279
vn 0.8033 -0.5766 0.1488
vn 0.7459 -0.6556 0.1178
vn 0.3665 -0.9286 0.0580
vn 0.2567 -0.9629 0.0831
vn 0.4328 -0.9014 0.0093
vn 0.1966 -0.9772 -0.0798
vn 0.3060 -0.9515 0.0302
vn 0.2181 -0.9749 -0.0456
vn 0.1692 -0.9823 -0.0808
vn 0.2355 -0.9716 0.0204
vn 0.4272 -0.8867 0.1768
vn 0.3116 -0.9367 0.1596
vn -0.3437 -0.9387 -0.0252
vn -0.3309 -0.9437 -0.0022
vn -0.1507 -0.9864 0.0649
vn -0.2397 -0.9708 0.0052
vn -0.1940 -0.9810 -0.0053
vn -0.0955 -0.9947 0.0383
vn -0.4769 -0.8769 -0.0604
vn -0.4233 -0.9059 0.0106
vn -0.2313 -0.9705 0.0676
vn -0.1883 -0.9717 0.1427
vn -0.8471 -0.5299 -0.0415
vn -0.7667 -0.6419 -0.0075
vn -0.8448 -0.5334 -0.0422
vn -0.7080 -0.7061 0.0122
vn -0.6716 -0.7400 -0.0380
vn -0.6182 -0.7828 0.0715
vn -0.7587 -0.6449 0.0919
vn -0.8575 -0.5059 -0.0931
vn -0.7712 -0.6314 -0.0807
vn -0.6888 -0.7232 0.0511
# 108 vertex normals

vt -49.0000 100.0000 0.0000
vt -49.0000 0.0000 0.0000
vt -39.5000 0.0000 0.0000
vt -39.5000 100.0000 0.0000
vt 50.0000 100.0000 0.0000
vt 40.5000 100.0000 0.0000
vt 40.5000 0.0000 0.0000
vt 50.0000 0.0000 0.0000
vt 100.0000 50.0000 0.0000
vt 0.0000 50.0000 0.0000
vt 0.0000 40.5000 0.0000
vt 100.0000 40.5000 0.0000
vt -99.0000 100.0000 0.0000
vt -99.0000 0.0000 0.0000
vt -58.5000 0.0000 0.0000
vt -58.5000 100.0000 0.0000
vt 1.0000 0.0000 0.0000
vt 1.0000 100.0000 0.0000
vt 100.0000 0.0000 0.0000
vt 100.0000 100.0000 0.0000
vt 59.5000 100.0000 0.0000
vt 59.5000 0.0000 0.0000
vt 0.0000 100.0000 0.0000
vt 0.0000 0.0000 0.0000
vt 59.5000 50.0000 0.0000
vt 59.5000 40.5000 0.0000
vt 40.5000 50.0000 0.0000
vt 40.5000 56.3333 0.0000
vt 0.0000 56.3333 0.0000
vt 50.0000 59.5000 0.0000
vt 40.5000 59.5000 0.0000
vt 50.0000 40.5000 0.0000
vt 40.5000 40.5000 0.0000
vt 0.0000 59.5000 0.0000
vt 100.0000 59.5000 0.0000
vt 100.0000 56.3333 0.0000
vt 59.5000 59.5000 0.0000
vt 59.5000 56.3333 0.0000
vt 10.0000 39.9800 33.4835
vt 10.0000 35.5400 33.4835
vt 9.0042 35.5400 33.4202
vt 9.0042 39.9800 33.4202
vt 10.0000 31.1000 33.4835
vt 9.0042 31.1000 33.4202
vt 10.0000 26.6600 33.4835
vt 9.0042 26.6600 33.4202
vt 10.0000 22.2200 33.4835
vt 9.0042 22.2200 33.4202
vt 10.0000 17.7800 33.4835
vt 9.0042 17.7800 33.4202
vt 10.0000 13.3400 33.4835
vt 9.0042 13.3400 33.4202
vt 10.0000 8.9000 33.4835
vt 9.0042 8.9000 33.4202
vt 10.0000 4.4600 33.4835
vt 9.0042 4.4600 33.4202
vt 10.0000 0.0200 33.4835
vt 9.0042 0.0200 33.4202
vt 8.0026 35.5400 33.3176
vt 8.0026 39.9800 33.3176
vt 8.0026 31.1000 33.3176
vt 8.0026 26.6600 33.3176
vt 8.0026 22.2200 33.3176
vt 8.0026 17.7800 33.3176
vt 8.0026 13.3400 33.3176
vt 8.0026 8.9000 33.3176
vt 8.0026 4.4600 33.3176
vt 8.0026 0.0200 33.3176
vt 6.9974 35.5400 33.3176
vt 6.9974 39.9800 33.3176
vt 6.9974 31.1000 33.3176
vt 6.9974 26.6600 33.3176
vt 6.9974 22.2200 33.3176
vt 6.9974 17.7800 33.3176
vt 6.9974 13.3400 33.3176
vt 6.9974 8.9000 33.3176
vt 6.9974 4.4600 33.3176
vt 6.9974 0.0200 33.3176
vt 5.9958 35.5400 33.4202
vt 5.9958 39.9800 33.4202
vt 5.9958 31.1000 33.4202
vt 5.9958 26.6600 33.4202
vt 5.9958 22.2200 33.4202
vt 5.9958 17.7800 33.4202
vt 5.9958 13.3400 33.4202
vt 5.9958 8.9000 33.4202
vt 5.9958 4.4600 33.4202
vt 5.9958 0.0200 33.4202
vt 5.0000 35.5400 33.4835
vt 5.0000 39.9800 33.4835
vt 5.0000 31.1000 33.4835
vt 5.0000 26.6600 33.4835
vt 5.0000 22.2200 33.4835
vt 5.0000 17.7800 33.4835
vt 5.0000 13.3400 33.4835
vt 5.0000 8.9000 33.4835
vt 5.0000 4.4600 33.4835
vt 5.0000 0.0200 33.4835
vt 4.0042 35.5400 33.4202
vt 4.0042 39.9800 33.4202
vt 4.0042 31.1000 33.4202
vt 4.0042 26.6600 33.4202
vt 4.0042 22.2200 33.4202
vt 4.0042 17.7800 33.4202
vt 4.0042 13.3400 33.4202
vt 4.0042 8.9000 33.4202
vt 4.0042 4.4600 33.4202
vt 4.0042 0.0200 33.4202
vt 3.0026 35.5400 33.3176
vt 3.0026 39.9800 33.3176
vt 3.0026 31.1000 33.3176
vt 3.0026 26.6600 33.3176
vt 3.0026 22.2200 33.3176
vt 3.0026 17.7800 33.3176
vt 3.0026 13.3400 33.3176
vt 3.0026 8.9000 33.3176
vt 3.0026 4.4600 33.3176
vt 3.0026 0.0200 33.3176
vt 1.9974 35.5400 33.3176
vt 1.9974 39.9800 33.3176
vt 1.9974 31.1000 33.3176
vt 1.9974 26.6600 33.3176
vt 1.9974 22.2200 33.3176
vt 1.9974 17.7800 33.3176
vt 1.9974 13.3400 33.3176
vt 1.9974 8.9000 33.3176
vt 1.9974 4.4600 33.3176
vt 1.9974 0.0200 33.3176
vt 0.9958 35.5400 33.4202
vt 0.9958 39.9800 33.4202
vt 0.9958 31.1000 33.4202
vt 0.9958 26.6600 33.4202
vt 0.9958 22.2200 33.4202
vt 0.9958 17.7800 33.4202
vt 0.9958 13.3400 33.4202
vt 0.9958 8.9000 33.4202
vt 0.9958 4.4600 33.4202
vt 0.9958 0.0200 33.4202
vt -0.0000 35.5400 33.4835
vt -0.0000 39.9800 33.4835
vt -0.0000 31.1000 33.4835
vt -0.0000 26.6600 33.4835
vt -0.0000 22.2200 33.4835
vt -0.0000 17.7800 33.4835
vt -0.0000 13.3400 33.4835
vt -0.0000 8.9000 33.4835
vt -0.0000 4.4600 33.4835
vt -0.0000 0.0200 33.4835
# 148 texture coords

o Box001
g Box001
usemtl Cave_Material
s 2
f 1/1/1 2/2/1 3/3/1 
f 3/3/1 4/4/1 1/1/1 
s 4
f 5/5/2 6/6/2 7/7/2 
f 7/7/2 8/8/2 5/5/2 
s 16
f 9/9/3 10/10/3 11/11/3 
f 11/11/3 12/12/3 9/9/3 
s 64
f 13/10/4 14/11/4 15/12/4 
f 15/12/4 16/9/4 13/10/4 
s 2
f 17/13/5 18/14/6 19/15/5 
f 19/15/5 20/16/1 17/13/5 
f 20/16/1 19/15/5 2/2/1 
f 2/2/1 1/1/1 20/16/1 
f 21/17/1 22/18/6 4/4/1 
f 4/4/1 3/3/1 21/17/1 
s 4
f 23/19/2 24/20/2 25/21/2 
f 25/21/2 26/22/2 23/19/2 
f 8/8/2 26/22/2 25/21/2 
f 25/21/2 5/5/2 8/8/2 
f 27/23/2 28/24/2 7/7/2 
f 7/7/2 6/6/2 27/23/2 
s 8
f 10/9/7 29/25/7 30/26/7 
f 30/26/7 11/12/7 10/9/7 
f 16/10/7 31/27/7 32/28/7 
f 32/28/7 33/29/7 16/10/7 
s 32
f 13/9/8 34/25/8 35/26/8 
f 35/26/8 14/12/8 13/9/8 
f 36/27/8 37/28/8 38/29/8 
f 38/29/8 9/10/8 36/27/8 
s 8
f 39/30/7 8/5/7 7/6/7 
f 7/6/7 40/31/7 39/30/7 
f 3/7/7 2/8/7 41/32/7 
f 41/32/7 42/33/7 3/7/7 
s 16
f 24/20/3 23/23/3 43/34/3 
f 43/34/3 44/35/3 24/20/3 
f 44/35/3 43/34/3 45/29/3 
f 45/29/3 38/36/3 44/35/3 
f 38/36/3 45/29/3 10/10/3 
f 10/10/3 9/9/3 38/36/3 
f 18/24/3 17/19/3 12/12/3 
f 12/12/3 11/11/3 18/24/3 
s 32
f 46/30/8 5/5/8 25/6/8 
f 25/6/8 47/31/8 46/30/8 
f 20/7/8 1/8/8 48/32/8 
f 48/32/8 49/33/8 20/7/8 
s 64
f 28/20/4 27/23/4 50/34/4 
f 50/34/4 51/35/4 28/20/4 
f 51/35/4 50/34/4 52/29/4 
f 52/29/4 33/36/4 51/35/4 
f 16/9/4 33/36/4 52/29/4 
f 52/29/4 13/10/4 16/9/4 
f 22/24/4 21/19/4 15/12/4 
f 15/12/4 14/11/4 22/24/4 
s 8
f 23/20/7 26/21/7 53/37/7 
f 53/37/7 43/35/7 23/20/7 
f 43/35/7 53/37/7 54/38/7 
f 54/38/7 45/36/7 43/35/7 
f 45/36/7 54/38/7 29/25/7 
f 29/25/7 10/9/7 45/36/7 
f 19/22/7 18/19/7 11/12/7 
f 11/12/7 30/26/7 19/22/7 
f 53/37/7 26/21/7 8/5/7 
f 8/5/7 39/30/7 53/37/7 
f 2/8/7 19/22/7 30/26/7 
f 30/26/7 41/32/7 2/8/7 
f 21/24/7 3/7/7 42/33/7 
f 42/33/7 15/11/7 21/24/7 
f 15/11/7 42/33/7 31/27/7 
f 31/27/7 16/10/7 15/11/7 
f 7/6/7 28/23/7 51/34/7 
f 51/34/7 40/31/7 7/6/7 
f 40/31/7 51/34/7 33/29/7 
f 33/29/7 32/28/7 40/31/7 
s 32
f 27/20/8 6/21/8 55/37/8 
f 55/37/8 50/35/8 27/20/8 
f 50/35/8 55/37/8 56/38/8 
f 56/38/8 52/36/8 50/35/8 
f 52/36/8 56/38/8 34/25/8 
f 34/25/8 13/9/8 52/36/8 
f 4/22/8 22/19/8 14/12/8 
f 14/12/8 35/26/8 4/22/8 
f 6/21/8 5/5/8 46/30/8 
f 46/30/8 55/37/8 6/21/8 
f 1/8/8 4/22/8 35/26/8 
f 35/26/8 48/32/8 1/8/8 
f 17/24/8 20/7/8 49/33/8 
f 49/33/8 12/11/8 17/24/8 
f 9/10/8 12/11/8 49/33/8 
f 49/33/8 36/27/8 9/10/8 
f 25/6/8 24/23/8 44/34/8 
f 44/34/8 47/31/8 25/6/8 
f 47/31/8 44/34/8 38/29/8 
f 38/29/8 37/28/8 47/31/8 
s 2
f 29/39/9 57/40/10 58/41/11 
f 58/41/11 30/42/12 29/39/9 
f 57/40/10 59/43/13 60/44/14 
f 60/44/14 58/41/11 57/40/10 
f 59/43/13 61/45/15 62/46/16 
f 62/46/16 60/44/14 59/43/13 
f 61/45/15 63/47/17 64/48/18 
f 64/48/18 62/46/16 61/45/15 
f 63/47/17 65/49/19 66/50/20 
f 66/50/20 64/48/18 63/47/17 
f 65/49/19 67/51/21 68/52/22 
f 68/52/22 66/50/20 65/49/19 
f 67/51/21 69/53/23 70/54/24 
f 70/54/24 68/52/22 67/51/21 
f 69/53/23 71/55/25 72/56/26 
f 72/56/26 70/54/24 69/53/23 
f 71/55/25 36/57/27 49/58/28 
f 49/58/28 72/56/26 71/55/25 
f 30/42/12 58/41/11 73/59/29 
f 73/59/29 41/60/30 30/42/12 
f 58/41/11 60/44/14 74/61/31 
f 74/61/31 73/59/29 58/41/11 
f 60/44/14 62/46/16 75/62/32 
f 75/62/32 74/61/31 60/44/14 
f 62/46/16 64/48/18 76/63/33 
f 76/63/33 75/62/32 62/46/16 
f 64/48/18 66/50/20 77/64/34 
f 77/64/34 76/63/33 64/48/18 
f 66/50/20 68/52/22 78/65/35 
f 78/65/35 77/64/34 66/50/20 
f 68/52/22 70/54/24 79/66/36 
f 79/66/36 78/65/35 68/52/22 
f 70/54/24 72/56/26 80/67/37 
f 80/67/37 79/66/36 70/54/24 
f 72/56/26 49/58/28 48/68/38 
f 48/68/38 80/67/37 72/56/26 
f 41/60/30 73/59/29 81/69/39 
f 81/69/39 42/70/40 41/60/30 
f 73/59/29 74/61/31 82/71/41 
f 82/71/41 81/69/39 73/59/29 
f 74/61/31 75/62/32 83/72/42 
f 83/72/42 82/71/41 74/61/31 
f 75/62/32 76/63/33 84/73/43 
f 84/73/43 83/72/42 75/62/32 
f 76/63/33 77/64/34 85/74/44 
f 85/74/44 84/73/43 76/63/33 
f 77/64/34 78/65/35 86/75/45 
f 86/75/45 85/74/44 77/64/34 
f 78/65/35 79/66/36 87/76/46 
f 87/76/46 86/75/45 78/65/35 
f 79/66/36 80/67/37 88/77/47 
f 88/77/47 87/76/46 79/66/36 
f 80/67/37 48/68/38 35/78/48 
f 35/78/48 88/77/47 80/67/37 
f 42/70/40 81/69/39 89/79/49 
f 89/79/49 31/80/50 42/70/40 
f 81/69/39 82/71/41 90/81/51 
f 90/81/51 89/79/49 81/69/39 
f 82/71/41 83/72/42 91/82/52 
f 91/82/52 90/81/51 82/71/41 
f 83/72/42 84/73/43 92/83/53 
f 92/83/53 91/82/52 83/72/42 
f 84/73/43 85/74/44 93/84/54 
f 93/84/54 92/83/53 84/73/43 
f 85/74/44 86/75/45 94/85/55 
f 94/85/55 93/84/54 85/74/44 
f 86/75/45 87/76/46 95/86/56 
f 95/86/56 94/85/55 86/75/45 
f 87/76/46 88/77/47 96/87/57 
f 96/87/57 95/86/56 87/76/46 
f 88/77/47 35/78/48 34/88/58 
f 34/88/58 96/87/57 88/77/47 
f 31/80/50 89/79/49 97/89/59 
f 97/89/59 32/90/60 31/80/50 
f 89/79/49 90/81/51 98/91/61 
f 98/91/61 97/89/59 89/79/49 
f 90/81/51 91/82/52 99/92/62 
f 99/92/62 98/91/61 90/81/51 
f 91/82/52 92/83/53 100/93/63 
f 100/93/63 99/92/62 91/82/52 
f 92/83/53 93/84/54 101/94/64 
f 101/94/64 100/93/63 92/83/53 
f 93/84/54 94/85/55 102/95/65 
f 102/95/65 101/94/64 93/84/54 
f 94/85/55 95/86/56 103/96/66 
f 103/96/66 102/95/65 94/85/55 
f 95/86/56 96/87/57 104/97/67 
f 104/97/67 103/96/66 95/86/56 
f 96/87/57 34/88/58 56/98/68 
f 56/98/68 104/97/67 96/87/57 
f 32/90/60 97/89/59 105/99/69 
f 105/99/69 40/100/70 32/90/60 
f 97/89/59 98/91/61 106/101/71 
f 106/101/71 105/99/69 97/89/59 
f 98/91/61 99/92/62 107/102/72 
f 107/102/72 106/101/71 98/91/61 
f 99/92/62 100/93/63 108/103/73 
f 108/103/73 107/102/72 99/92/62 
f 100/93/63 101/94/64 109/104/74 
f 109/104/74 108/103/73 100/93/63 
f 101/94/64 102/95/65 110/105/75 
f 110/105/75 109/104/74 101/94/64 
f 102/95/65 103/96/66 111/106/76 
f 111/106/76 110/105/75 102/95/65 
f 103/96/66 104/97/67 112/107/77 
f 112/107/77 111/106/76 103/96/66 
f 104/97/67 56/98/68 55/108/78 
f 55/108/78 112/107/77 104/97/67 
f 40/100/70 105/99/69 113/109/79 
f 113/109/79 39/110/80 40/100/70 
f 105/99/69 106/101/71 114/111/81 
f 114/111/81 113/109/79 105/99/69 
f 106/101/71 107/102/72 115/112/82 
f 115/112/82 114/111/81 106/101/71 
f 107/102/72 108/103/73 116/113/83 
f 116/113/83 115/112/82 107/102/72 
f 108/103/73 109/104/74 117/114/84 
f 117/114/84 116/113/83 108/103/73 
f 109/104/74 110/105/75 118/115/85 
f 118/115/85 117/114/84 109/104/74 
f 110/105/75 111/106/76 119/116/86 
f 119/116/86 118/115/85 110/105/75 
f 111/106/76 112/107/77 120/117/87 
f 120/117/87 119/116/86 111/106/76 
f 112/107/77 55/108/78 46/118/88 
f 46/118/88 120/117/87 112/107/77 
f 39/110/80 113/109/79 121/119/89 
f 121/119/89 53/120/90 39/110/80 
f 113/109/79 114/111/81 122/121/91 
f 122/121/91 121/119/89 113/109/79 
f 114/111/81 115/112/82 123/122/92 
f 123/122/92 122/121/91 114/111/81 
f 115/112/82 116/113/83 124/123/93 
f 124/123/93 123/122/92 115/112/82 
f 116/113/83 117/114/84 125/124/94 
f 125/124/94 124/123/93 116/113/83 
f 117/114/84 118/115/85 126/125/95 
f 126/125/95 125/124/94 117/114/84 
f 118/115/85 119/116/86 127/126/96 
f 127/126/96 126/125/95 118/115/85 
f 119/116/86 120/117/87 128/127/97 
f 128/127/97 127/126/96 119/116/86 
f 120/117/87 46/118/88 47/128/98 
f 47/128/98 128/127/97 120/117/87 
f 53/120/90 121/119/89 129/129/99 
f 129/129/99 54/130/100 53/120/90 
f 121/119/89 122/121/91 130/131/101 
f 130/131/101 129/129/99 121/119/89 
f 122/121/91 123/122/92 131/132/102 
f 131/132/102 130/131/101 122/121/91 
f 123/122/92 124/123/93 132/133/103 
f 132/133/103 131/132/102 123/122/92 
f 124/123/93 125/124/94 133/134/104 
f 133/134/104 132/133/103 124/123/93 
f 125/124/94 126/125/95 134/135/105 
f 134/135/105 133/134/104 125/124/94 
f 126/125/95 127/126/96 135/136/106 
f 135/136/106 134/135/105 126/125/95 
f 127/126/96 128/127/97 136/137/107 
f 136/137/107 135/136/106 127/126/96 
f 128/127/97 47/128/98 37/138/108 
f 37/138/108 136/137/107 128/127/97 
f 54/130/100 129/129/99 57/139/10 
f 57/139/10 29/140/9 54/130/100 
f 129/129/99 130/131/101 59/141/13 
f 59/141/13 57/139/10 129/129/99 
f 130/131/101 131/132/102 61/142/15 
f 61/142/15 59/141/13 130/131/101 
f 131/132/102 132/133/103 63/143/17 
f 63/143/17 61/142/15 131/132/102 
f 132/133/103 133/134/104 65/144/19 
f 65/144/19 63/143/17 132/133/103 
f 133/134/104 134/135/105 67/145/21 
f 67/145/21 65/144/19 133/134/104 
f 134/135/105 135/136/106 69/146/23 
f 69/146/23 67/145/21 134/135/105 
f 135/136/106 136/137/107 71/147/25 
f 71/147/25 69/146/23 135/136/106 
f 136/137/107 37/138/108 36/148/27 
f 36/148/27 71/147/25 136/137/107 
# 272 faces

