# Blender v2.82 (sub 7) OBJ File: ''
# www.blender.org
mtllib tunnel_block_2_2.mtl
o Box005
v -9.500000 -49.999996 -50.132500
v 0.000000 -49.999996 -50.132500
v 0.000000 -50.000000 50.000000
v -9.500000 -50.000000 50.000000
v -9.500000 50.000008 -50.132492
v -9.500000 50.000000 50.000004
v 0.000000 50.000000 50.000004
v 0.000000 50.000008 -50.132492
v -50.025902 -9.499996 -50.117996
v -50.025902 0.000004 -50.117996
v 50.051800 0.000004 -50.066299
v 50.051800 -9.499996 -50.066299
v -50.000000 -9.500000 50.000000
v -50.000000 0.000000 50.000004
v 9.500000 -49.999996 -50.132500
v 50.038799 -49.999996 -50.058998
v 50.025902 -50.000000 50.000000
v 9.500000 -50.000000 50.000000
v -50.000000 -50.000000 50.000000
v -50.025902 -49.999996 -50.117996
v 9.500000 50.000000 50.000004
v 50.025902 50.000000 50.000004
v 50.038799 50.000008 -50.058990
v 9.500000 50.000008 -50.132492
v -50.025902 50.000008 -50.117989
v -50.000000 50.000000 50.000004
v 50.080700 -4.717094 5.341003
v 50.080700 -0.219799 9.225704
v 50.025902 0.000000 50.000004
v 50.025902 -9.500000 50.000000
v 50.080700 0.801903 -9.725296
v 50.080700 -3.862095 -9.990696
v 50.051800 6.333305 -50.066299
v -2.444500 -11.226398 50.000000
v -8.015000 -5.551701 50.000004
v 50.025902 6.333302 50.000004
v 8.201100 5.182301 50.000004
v 11.775300 -0.861500 50.000004
v 50.080700 50.000000 -9.499996
v 50.080700 50.000000 0.000004
v 50.080700 9.875004 -4.374695
v 50.080700 7.277004 -9.555195
v 50.080700 -8.202797 2.681999
v 50.080700 -49.999996 0.000000
v 50.080700 -49.999996 -9.500000
v 50.080700 -8.148396 -3.174198
v -50.025902 9.500004 -50.117996
v 50.051800 9.500004 -50.066299
v -50.025902 6.333305 -50.117996
v -3.193200 6.797001 50.000004
v 2.663000 7.925999 50.000004
v 3.411700 -10.097401 50.000000
v 7.316700 -5.956902 50.000004
v -50.000000 9.500000 50.000004
v -50.000000 6.333302 50.000004
v 50.080700 9.820705 1.481503
v 50.080700 50.000000 9.500004
v 50.025902 9.500000 50.000004
v 50.080700 6.422005 5.776505
v 50.080700 -50.000000 9.500000
v -7.130600 5.587399 50.000004
v -7.175700 -0.219700 50.000004
v 41.447899 -6.068699 11.734467
v 43.056499 0.889099 12.111565
v 25.238182 -5.894497 4.367153
v 27.179585 -0.025299 6.631855
v 11.766205 -4.383495 -3.007492
v 13.687405 2.044804 -1.705193
v 3.610355 -3.221497 -7.850605
v 7.646058 0.465202 -1.717117
v -3.209545 -3.883797 -3.137405
v 2.362655 0.109802 -0.444305
v -2.455564 -4.347301 9.015457
v 1.084637 1.454102 8.687859
v 4.814918 -6.395100 24.106176
v 3.318418 0.812698 22.450773
v 6.482500 -5.099701 41.684700
v 8.897800 0.626598 40.166000
v 40.786499 -8.303898 5.752361
v 25.560230 -7.643795 -3.179207
v 9.424718 -10.069996 -13.991348
v 2.555955 -8.570797 -10.451809
v -9.828718 -9.111996 -5.565613
v -13.463946 -8.404900 7.211838
v -1.823782 -8.440899 23.136374
v 2.098000 -8.620899 41.297203
v 40.165798 -9.126396 -3.931599
v 24.814732 -9.566895 -12.888027
v 11.436707 -7.975597 -23.921005
v -2.130276 -8.318695 -20.653290
v -16.983103 -9.953396 -12.086975
v -22.766567 -7.243694 4.949936
v -11.227978 -7.877201 22.800764
v -3.758200 -8.545300 41.021500
v 38.837601 -5.667797 -7.220398
v 23.102131 -5.280296 -18.356728
v 9.987006 -5.747097 -26.483803
v -8.404312 -4.549194 -27.851418
v -22.423403 -4.238396 -15.689774
v -27.304668 -5.192398 4.082439
v -14.059177 -3.938999 23.292761
v -10.796110 -5.570702 42.207790
v 38.945202 0.142303 -10.253796
v 23.542633 1.068005 -19.502525
v 10.115706 0.023502 -28.448303
v -7.497413 0.505802 -27.546021
v -20.193203 1.205704 -14.644470
v -27.468567 -0.022697 3.349442
v -19.238480 0.920898 22.204561
v -12.000111 1.530300 41.575089
v 39.387001 5.471302 -8.077297
v 23.977333 5.858803 -17.366028
v 10.632707 5.392002 -26.739700
v -6.634712 6.589905 -26.166115
v -20.678402 6.900703 -15.126175
v -27.689766 5.946705 3.208141
v -17.101278 7.200100 22.334162
v -7.290900 5.568401 41.068604
v 40.105801 8.897102 -3.415794
v 24.468731 8.456604 -13.994324
v 11.783309 10.047905 -22.053108
v -2.199876 9.704803 -20.476585
v -17.732903 8.070103 -12.522072
v -21.444967 10.779705 5.589142
v -11.908878 10.146301 22.890364
v -4.449300 9.478199 41.170204
v 40.888397 9.719604 6.239567
v 25.376133 10.379704 -4.313904
v 9.930017 7.953403 -12.166046
v 2.628755 9.452602 -10.357208
v -10.472817 8.911503 -6.126610
v -12.086146 9.618599 7.696640
v -2.490382 9.582600 23.062273
v 1.406900 9.402599 41.281403
v 40.816700 5.070400 11.085667
v 24.932781 5.244602 5.565952
v 11.253906 6.755604 -3.581394
v 4.341754 7.917603 -5.565907
v -2.235145 7.255302 -1.655407
v -3.250663 6.791801 9.267757
v 1.668318 4.743999 24.341776
v 8.040800 6.039398 42.193604
vt 0.198295 0.357562
vt 0.166655 0.357602
vt 0.166742 0.000210
vt 0.198381 0.000170
vt 0.531565 0.000013
vt 0.531651 0.357536
vt 0.500011 0.357530
vt 0.499925 0.000007
vt 0.801591 0.000045
vt 0.833269 0.000037
vt 0.833270 0.357266
vt 0.801591 0.357273
vt 0.864548 0.357813
vt 0.864548 0.715259
vt 0.832964 0.715219
vt 0.832964 0.357773
vt 0.135015 0.357642
vt 0.000000 0.357550
vt 0.000129 0.000421
vt 0.135102 0.000250
vt 0.333268 0.000000
vt 0.333268 0.357340
vt 0.468371 0.357523
vt 0.333397 0.357495
vt 0.333268 0.000234
vt 0.468284 0.000000
vt 0.666539 0.000093
vt 0.666539 0.357564
vt 0.484271 0.555371
vt 0.499268 0.569241
vt 0.500000 0.714811
vt 0.468321 0.714806
vt 0.502675 0.501586
vt 0.487122 0.500637
vt 0.500000 0.357569
vt 0.521119 0.357572
vt 0.158236 0.496319
vt 0.139701 0.516544
vt 0.000000 0.536122
vt 0.000000 0.502211
vt 0.332826 0.559299
vt 0.193658 0.554952
vt 0.205551 0.533398
vt 0.332826 0.536691
vt 0.666732 0.502414
vt 0.666733 0.536330
vt 0.532930 0.520692
vt 0.524267 0.502197
vt 0.472647 0.545876
vt 0.333269 0.536282
vt 0.333269 0.502366
vt 0.472829 0.524970
vt 0.864948 0.000030
vt 1.000000 0.000000
vt 1.000000 0.357182
vt 0.864948 0.357259
vt 0.854389 0.000033
vt 0.854389 0.357261
vt 0.666539 0.357257
vt 0.666539 0.000075
vt 0.197980 0.714941
vt 0.166370 0.714887
vt 0.155745 0.560651
vt 0.175231 0.564715
vt 0.177722 0.500382
vt 0.166370 0.357926
vt 0.197980 0.357980
vt 0.190715 0.515184
vt 0.801380 0.715179
vt 0.666733 0.715010
vt 0.666733 0.357564
vt 0.801380 0.357734
vt 0.811908 0.715192
vt 0.811908 0.357747
vt 0.999195 0.357982
vt 0.999195 0.715428
vt 0.532749 0.541599
vt 0.666733 0.570245
vt 0.666731 0.714835
vt 0.531679 0.714815
vt 0.521416 0.556931
vt 0.521119 0.714814
vt 0.333268 0.714787
vt 0.333269 0.570197
vt 0.333268 0.357572
vt 0.468321 0.357564
vt 0.531679 0.357574
vt 0.666731 0.357620
vt 0.142644 0.556311
vt 0.134760 0.714833
vt 0.000000 0.714603
vt 0.000000 0.570034
vt 0.142493 0.535582
vt 0.000000 0.558730
vt 0.000000 0.357642
vt 0.134760 0.357872
vt 0.332826 0.358210
vt 0.332826 0.502780
vt 0.332826 0.570602
vt 0.332826 0.715172
vt 0.107217 0.748911
vt 0.084479 0.741401
vt 0.089876 0.717217
vt 0.104748 0.718042
vt 0.104437 0.780205
vt 0.085442 0.771964
vt 0.097602 0.806995
vt 0.076721 0.798594
vt 0.506134 0.885910
vt 0.520872 0.887032
vt 0.524027 0.904415
vt 0.092339 0.827452
vt 0.501767 0.856787
vt 0.520562 0.863990
vt 0.162404 0.757459
vt 0.144899 0.751337
vt 0.157264 0.725656
vt 0.517381 0.818524
vt 0.162404 0.789751
vt 0.140114 0.777724
vt 0.150682 0.816767
vt 0.134089 0.806567
vt 0.146922 0.846322
vt 0.131670 0.841964
vt 0.539105 0.960034
vt 0.554680 0.946662
vt 0.568106 0.974619
vt 0.185769 0.747833
vt 0.174217 0.747833
vt 0.174486 0.715172
vt 0.520599 0.937054
vt 0.530122 0.928152
vt 0.499434 0.916671
vt 0.517345 0.903393
vt 0.109815 0.832369
vt 0.498191 0.890220
vt 0.109815 0.860767
vt 0.092975 0.852328
vt 0.502663 0.812509
vt 0.648548 0.724597
vt 0.664482 0.714835
vt 0.664482 0.754648
vt 0.526075 0.787706
vt 0.543469 0.802127
vt 0.543985 0.762700
vt 0.554567 0.772622
vt 0.159241 0.849859
vt 0.568106 0.744650
vt 0.523542 0.972626
vt 0.562205 0.981582
vt 0.548147 0.996097
vt 0.505188 0.949763
vt 0.482514 0.927444
vt 0.479440 0.896207
vt 0.473051 0.856486
vt 0.492436 0.857601
vt 0.484572 0.804110
vt 0.510683 0.774678
vt 0.529774 0.748343
vt 0.554722 0.729736
vt 0.578918 0.754668
vt 0.568106 0.749474
vt 0.574895 0.714899
vt 0.648548 0.754900
vt 0.625677 0.754900
vt 0.633822 0.714835
vt 0.487518 0.958472
vt 0.576980 0.785736
vt 0.472707 0.929841
vt 0.456678 0.899039
vt 0.451044 0.850848
vt 0.471717 0.794394
vt 0.012907 0.815854
vt 0.000000 0.812950
vt 0.004730 0.772638
vt 0.504777 0.765773
vt 0.519364 0.733131
vt 0.005197 0.849448
vt 0.541064 0.714835
vt 0.598048 0.755715
vt 0.588722 0.714835
vt 0.604200 0.716641
vt 0.598119 0.786267
vt 0.591492 0.818848
vt 0.572425 0.817629
vt 0.590281 0.851091
vt 0.573183 0.852341
vt 0.589725 0.887389
vt 0.570828 0.893002
vt 0.028985 0.769019
vt 0.011623 0.770345
vt 0.018545 0.715172
vt 0.036480 0.720093
vt 0.489524 0.754660
vt 0.029176 0.813508
vt 0.028931 0.849022
vt 0.514086 0.730856
vt 0.021154 0.880012
vt 0.003392 0.878752
vt 0.615995 0.756672
vt 0.625677 0.719101
vt 0.614277 0.787038
vt 0.609570 0.819439
vt 0.610835 0.850643
vt 0.608408 0.891117
vt 0.048869 0.770001
vt 0.055522 0.719812
vt 0.050096 0.815380
vt 0.042457 0.849636
vt 0.040473 0.881440
vt 0.405422 0.755297
vt 0.393664 0.744785
vt 0.415827 0.714835
vt 0.427186 0.728416
vt 0.381718 0.773738
vt 0.373306 0.766059
vt 0.625677 0.818246
vt 0.366512 0.800858
vt 0.357218 0.828562
vt 0.343638 0.823486
vt 0.353883 0.791279
vt 0.346132 0.868094
vt 0.333268 0.868490
vt 0.362686 0.918581
vt 0.343033 0.927461
vt 0.381389 0.952800
vt 0.368102 0.963933
vt 0.055522 0.850779
vt 0.399435 0.980277
vt 0.174217 0.750015
vt 0.162404 0.744435
vt 0.174217 0.715172
vt 0.044610 0.881486
vt 0.420695 0.768141
vt 0.440587 0.743622
vt 0.396786 0.786637
vt 0.383313 0.812071
vt 0.375842 0.834928
vt 0.365460 0.867316
vt 0.380948 0.910608
vt 0.397010 0.940117
vt 0.413876 0.966214
vt 0.437128 0.985707
vt 0.423167 1.000000
vt 0.432473 0.780676
vt 0.451044 0.754610
vt 0.412154 0.801940
vt 0.393693 0.821870
vt 0.391231 0.843100
vt 0.384380 0.869336
vt 0.391218 0.909512
vt 0.125472 0.780827
vt 0.109815 0.772119
vt 0.117825 0.739858
vt 0.126078 0.748631
vt 0.432646 0.952166
vt 0.114769 0.808867
vt 0.451044 0.972005
vt 0.070004 0.748189
vt 0.067713 0.715172
vt 0.067343 0.778490
vt 0.060419 0.805857
vt 0.080995 0.814357
vt 0.055522 0.822145
vt 0.081114 0.831691
vt 0.056200 0.846083
vt 0.133998 0.715172
vt 0.111244 0.836649
vn -0.0000 -1.0000 -0.0000
vn 0.0000 1.0000 0.0000
vn 0.0005 0.0000 -1.0000
vn 0.0005 -0.0001 -1.0000
vn -1.0000 0.0000 0.0003
vn 1.0000 -0.0002 0.0010
vn 1.0000 -0.0003 0.0013
vn 1.0000 -0.0000 0.0013
vn 1.0000 0.0000 -0.0007
vn 1.0000 -0.0005 -0.0006
vn -0.0000 -0.0000 1.0000
vn 1.0000 0.0001 -0.0004
vn 1.0000 -0.0000 0.0000
vn 1.0000 0.0000 -0.0005
vn 1.0000 0.0001 -0.0006
vn 1.0000 -0.0002 -0.0004
vn 0.0006 0.0000 -1.0000
vn 0.0005 0.0001 -1.0000
vn 0.0006 -0.0002 -1.0000
vn 1.0000 0.0002 0.0006
vn 1.0000 -0.0002 0.0008
vn 1.0000 -0.0001 0.0012
vn 1.0000 0.0000 0.0012
vn 1.0000 0.0012 0.0012
vn 1.0000 0.0000 0.0014
vn 1.0000 0.0000 0.0007
vn 1.0000 -0.0001 -0.0008
vn 1.0000 -0.0002 -0.0007
vn 1.0000 0.0001 -0.0008
vn 1.0000 0.0003 -0.0010
vn -0.0081 0.5657 -0.8246
vn -0.1003 -0.1246 -0.9871
vn -0.5014 0.0391 -0.8643
vn -0.4082 0.6492 -0.6418
vn 0.3252 0.6643 -0.6730
vn 0.3921 0.1016 -0.9143
vn 0.4562 0.4425 -0.7721
vn 0.4210 0.0011 -0.9071
vn 0.0069 0.6492 -0.7606
vn -0.1839 0.3725 -0.9096
vn -0.4614 0.8463 -0.2662
vn -0.7196 0.2530 -0.6467
vn -0.5799 0.7923 0.1894
vn -0.9877 -0.1450 0.0588
vn -0.8327 0.5189 0.1932
vn -0.9312 -0.3119 0.1886
vn -0.8100 0.5669 0.1501
vn -0.9521 0.0906 0.2920
vn -0.7571 0.6231 0.1963
vn -0.9564 0.1728 0.2355
vn -0.0082 0.9554 -0.2951
vn -0.1661 0.9095 -0.3812
vn 0.0914 0.9755 -0.2000
vn -0.0184 0.9974 -0.0695
vn -0.0004 0.8914 -0.4532
vn -0.1992 0.9586 -0.2037
vn -0.0768 0.9970 0.0005
vn -0.1636 0.9796 0.1168
vn -0.3388 0.9310 0.1360
vn -0.4619 0.8665 0.1893
vn -0.1285 0.9398 0.3167
vn -0.0713 0.9488 0.3076
vn -0.0833 0.9665 0.2428
vn -0.2493 0.8160 0.5215
vn 0.0915 0.9621 0.2567
vn 0.2829 0.9275 0.2444
vn 0.3340 0.9285 -0.1624
vn 0.4156 0.8985 -0.1414
vn 0.2371 0.9708 0.0354
vn 0.2666 0.9442 0.1931
vn -0.2712 0.5488 0.7907
vn 0.0076 0.4686 0.8834
vn -0.5035 0.4272 0.7510
vn -0.2147 0.5057 0.8356
vn 0.3559 0.4330 0.8281
vn 0.7947 0.2255 0.5635
vn 0.8571 0.4979 -0.1320
vn 0.7404 0.5966 -0.3096
vn 0.7837 0.5671 -0.2535
vn 0.8824 0.4324 -0.1857
vn -0.2657 0.0451 0.9630
vn 0.0275 -0.0976 0.9948
vn -0.5547 -0.0546 0.8303
vn -0.2439 0.0281 0.9694
vn 0.3421 -0.1425 0.9288
vn 0.8220 -0.1394 0.5521
vn 0.9986 -0.0104 -0.0513
vn 0.8787 0.1401 -0.4563
vn 0.9139 -0.2833 -0.2908
vn 0.8951 -0.0233 -0.4453
vn -0.1790 -0.5819 0.7933
vn 0.1716 -0.5270 0.8324
vn -0.4846 -0.5048 0.7144
vn -0.2350 -0.4856 0.8420
vn 0.2641 -0.6149 0.7431
vn 0.6977 -0.5140 0.4989
vn 0.9268 -0.3731 -0.0424
vn 0.7283 -0.5860 -0.3553
vn 0.7035 -0.6671 -0.2449
vn 0.6710 -0.7109 -0.2110
vn -0.0204 -0.9542 0.2985
vn 0.0973 -0.9621 0.2548
vn -0.2221 -0.8979 0.3800
vn -0.1738 -0.9069 0.3839
vn 0.0726 -0.9658 0.2489
vn 0.1464 -0.9764 0.1589
vn 0.3442 -0.9361 -0.0723
vn 0.2312 -0.9646 -0.1266
vn 0.3852 -0.8915 -0.2385
vn 0.3250 -0.9224 -0.2086
vn -0.0308 -0.9020 -0.4307
vn -0.1031 -0.9622 -0.2522
vn 0.0841 -0.9915 -0.0995
vn -0.0793 -0.9827 -0.1674
vn -0.0904 -0.9824 -0.1633
vn -0.0020 -0.9997 -0.0230
vn -0.2168 -0.9733 0.0748
vn -0.4702 -0.8501 0.2371
vn -0.2445 -0.9687 -0.0426
vn -0.1996 -0.9645 -0.1728
vn 0.0190 -0.4548 -0.8904
vn -0.3041 -0.6491 -0.6973
vn 0.4083 -0.4556 -0.7911
vn 0.2179 -0.7406 -0.6356
vn -0.1544 -0.8421 -0.5167
vn -0.3608 -0.8846 -0.2956
vn -0.5305 -0.8477 -0.0105
vn -0.7950 -0.5365 0.2831
vn -0.7622 -0.6352 0.1243
vn -0.6907 -0.7203 -0.0645
usemtl Cave_Material.002
s 1
f 1/1/1 2/2/1 3/3/1
f 3/3/1 4/4/1 1/1/1
f 5/5/2 6/6/2 7/7/2
f 7/7/2 8/8/2 5/5/2
f 9/9/3 10/10/3 11/11/3
f 11/11/3 12/12/4 9/9/3
f 9/13/5 13/14/5 14/15/5
f 14/15/5 10/16/5 9/13/5
f 15/17/1 16/18/1 17/19/1
f 17/19/1 18/20/1 15/17/1
f 2/2/1 15/17/1 18/20/1
f 18/20/1 3/3/1 2/2/1
f 4/4/1 19/21/1 20/22/1
f 20/22/1 1/1/1 4/4/1
f 21/23/2 22/24/2 23/25/2
f 23/25/2 24/26/2 21/23/2
f 21/23/2 24/26/2 8/8/2
f 8/8/2 7/7/2 21/23/2
f 5/5/2 25/27/2 26/28/2
f 26/28/2 6/6/2 5/5/2
f 27/29/6 28/30/7 29/31/8
f 29/31/8 30/32/8 27/29/6
f 31/33/9 32/34/10 11/35/9
f 11/35/9 33/36/9 31/33/9
f 34/37/11 35/38/11 14/39/11
f 14/39/11 13/40/11 34/37/11
f 36/41/11 37/42/11 38/43/11
f 38/43/11 29/44/11 36/41/11
f 39/45/12 40/46/13 41/47/13
f 41/47/13 42/48/14 39/45/12
f 43/49/13 44/50/13 45/51/15
f 45/51/15 46/52/16 43/49/13
f 47/53/3 25/54/17 23/55/18
f 23/55/18 48/56/18 47/53/3
f 49/57/3 47/53/3 48/56/18
f 48/56/18 33/58/3 49/57/3
f 10/10/3 49/57/3 33/58/3
f 33/58/3 11/11/3 10/10/3
f 12/12/4 16/59/19 20/60/3
f 20/60/3 9/9/3 12/12/4
f 21/61/11 7/62/11 50/63/11
f 50/63/11 51/64/11 21/61/11
f 52/65/11 3/66/11 18/67/11
f 18/67/11 53/68/11 52/65/11
f 54/69/5 26/70/5 25/71/5
f 25/71/5 47/72/5 54/69/5
f 55/73/5 54/69/5 47/72/5
f 47/72/5 49/74/5 55/73/5
f 55/73/5 49/74/5 10/16/5
f 10/16/5 14/15/5 55/73/5
f 9/13/5 20/75/5 19/76/5
f 19/76/5 13/14/5 9/13/5
f 56/77/20 57/78/21 22/79/22
f 22/79/22 58/80/23 56/77/20
f 59/81/24 56/77/20 58/80/23
f 58/80/23 36/82/8 59/81/24
f 28/30/7 59/81/24 36/82/8
f 36/82/8 29/31/8 28/30/7
f 30/32/8 17/83/25 60/84/26
f 60/84/26 27/29/6 30/32/8
f 40/46/13 57/78/21 56/77/20
f 56/77/20 41/47/13 40/46/13
f 27/29/6 60/84/26 44/50/13
f 44/50/13 43/49/13 27/29/6
f 46/52/16 45/51/15 16/85/27
f 16/85/27 12/86/28 46/52/16
f 32/34/10 46/52/16 12/86/28
f 12/86/28 11/35/9 32/34/10
f 48/87/29 23/88/30 39/45/12
f 39/45/12 42/48/14 48/87/29
f 33/36/9 48/87/29 42/48/14
f 42/48/14 31/33/9 33/36/9
f 61/89/11 6/90/11 26/91/11
f 26/91/11 54/92/11 61/89/11
f 62/93/11 61/89/11 54/92/11
f 54/92/11 55/94/11 62/93/11
f 35/38/11 62/93/11 55/94/11
f 55/94/11 14/39/11 35/38/11
f 13/40/11 19/95/11 4/96/11
f 4/96/11 34/37/11 13/40/11
f 50/63/11 7/62/11 6/90/11
f 6/90/11 61/89/11 50/63/11
f 34/37/11 4/96/11 3/66/11
f 3/66/11 52/65/11 34/37/11
f 53/68/11 18/67/11 17/97/11
f 17/97/11 30/98/11 53/68/11
f 53/68/11 30/98/11 29/44/11
f 29/44/11 38/43/11 53/68/11
f 58/99/11 22/100/11 21/61/11
f 21/61/11 51/64/11 58/99/11
f 36/41/11 58/99/11 51/64/11
f 51/64/11 37/42/11 36/41/11
f 63/101/31 64/102/32 28/103/33
f 28/103/33 27/104/34 63/101/31
f 65/105/35 66/106/36 64/102/32
f 64/102/32 63/101/31 65/105/35
f 67/107/37 68/108/38 66/106/36
f 66/106/36 65/105/35 67/107/37
f 69/109/39 70/110/40 68/111/38
f 68/108/38 67/107/37 69/112/39
f 71/113/41 72/114/42 70/110/40
f 70/110/40 69/109/39 71/113/41
f 73/115/43 74/116/44 72/117/42
f 72/114/42 71/113/41 73/118/43
f 75/119/45 76/120/46 74/116/44
f 74/116/44 73/115/43 75/119/45
f 77/121/47 78/122/48 76/120/46
f 76/120/46 75/119/45 77/121/47
f 53/123/49 38/124/50 78/122/48
f 78/122/48 77/121/47 53/123/49
f 79/125/51 63/126/31 27/127/34
f 27/128/34 43/129/52 79/130/51
f 80/131/53 65/132/35 63/126/31
f 63/126/31 79/125/51 80/131/53
f 81/133/54 67/134/37 65/132/35
f 65/132/35 80/131/53 81/133/54
f 82/135/55 69/112/39 67/107/37
f 67/134/37 81/133/54 82/136/55
f 83/137/56 71/138/41 69/112/39
f 69/112/39 82/135/55 83/137/56
f 84/139/57 73/118/43 71/113/41
f 71/140/41 83/141/56 84/142/57
f 85/143/58 75/144/45 73/118/43
f 73/118/43 84/139/57 85/143/58
f 86/145/59 77/146/47 75/144/45
f 75/144/45 85/143/58 86/145/59
f 52/147/60 53/123/49 77/121/47
f 77/146/47 86/145/59 52/148/60
f 87/149/61 79/125/51 43/150/52
f 43/150/52 46/151/62 87/149/61
f 88/152/63 80/131/53 79/125/51
f 79/125/51 87/149/61 88/152/63
f 89/153/64 81/133/54 80/131/53
f 80/131/53 88/152/63 89/153/64
f 90/154/65 82/136/55 81/133/54
f 81/133/54 89/153/64 90/154/65
f 91/155/66 83/156/56 82/136/55
f 82/136/55 90/154/65 91/155/66
f 92/157/67 84/139/57 83/156/56
f 83/156/56 91/155/66 92/157/67
f 93/158/68 85/143/58 84/139/57
f 84/139/57 92/157/67 93/158/68
f 94/159/69 86/145/59 85/143/58
f 85/143/58 93/158/68 94/159/69
f 34/160/70 52/148/60 86/145/59
f 86/145/59 94/159/69 34/160/70
f 95/161/71 87/162/61 46/163/62
f 46/164/62 32/165/72 95/166/71
f 96/167/73 88/152/63 87/149/61
f 87/162/61 95/161/71 96/168/73
f 97/169/74 89/153/64 88/152/63
f 88/152/63 96/167/73 97/169/74
f 98/170/75 90/154/65 89/153/64
f 89/153/64 97/169/74 98/170/75
f 99/171/76 91/155/66 90/154/65
f 90/154/65 98/170/75 99/171/76
f 100/172/77 92/157/67 91/155/66
f 91/155/66 99/171/76 100/172/77
f 101/173/78 93/174/68 92/175/67
f 92/157/67 100/172/77 101/176/78
f 102/177/79 94/159/69 93/158/68
f 93/174/68 101/173/78 102/178/79
f 35/179/80 34/160/70 94/159/69
f 94/159/69 102/177/79 35/179/80
f 103/180/81 95/161/71 32/181/72
f 32/181/72 31/182/82 103/180/81
f 104/183/83 96/168/73 95/161/71
f 95/161/71 103/180/81 104/183/83
f 105/184/84 97/185/74 96/168/73
f 96/168/73 104/183/83 105/184/84
f 106/186/85 98/187/75 97/185/74
f 97/185/74 105/184/84 106/186/85
f 107/188/86 99/189/76 98/187/75
f 98/187/75 106/186/85 107/188/86
f 108/190/87 100/191/77 99/192/76
f 99/192/76 107/193/86 108/190/87
f 109/194/88 101/176/78 100/172/77
f 100/191/77 108/190/87 109/195/88
f 110/196/89 102/178/79 101/173/78
f 101/176/78 109/194/88 110/197/89
f 62/198/90 35/199/80 102/178/79
f 102/178/79 110/196/89 62/198/90
f 111/200/91 103/180/81 31/182/82
f 31/182/82 42/201/92 111/200/91
f 112/202/93 104/183/83 103/180/81
f 103/180/81 111/200/91 112/202/93
f 113/203/94 105/184/84 104/183/83
f 104/183/83 112/202/93 113/203/94
f 114/204/95 106/186/85 105/184/84
f 105/184/84 113/203/94 114/204/95
f 115/205/96 107/188/86 106/186/85
f 106/186/85 114/204/95 115/205/96
f 116/206/97 108/190/87 107/193/86
f 107/193/86 115/207/96 116/206/97
f 117/208/98 109/195/88 108/190/87
f 108/190/87 116/206/97 117/208/98
f 118/209/99 110/196/89 109/195/88
f 109/195/88 117/208/98 118/209/99
f 61/210/100 62/198/90 110/196/89
f 110/196/89 118/209/99 61/210/100
f 119/211/101 111/212/91 42/213/92
f 42/213/92 41/214/102 119/211/101
f 120/215/103 112/216/93 111/212/91
f 111/212/91 119/211/101 120/215/103
f 121/217/104 113/203/94 112/202/93
f 112/216/93 120/215/103 121/218/104
f 122/219/105 114/220/95 113/221/94
f 113/221/94 121/218/104 122/219/105
f 123/222/106 115/223/96 114/220/95
f 114/220/95 122/219/105 123/222/106
f 124/224/107 116/225/97 115/223/96
f 115/223/96 123/222/106 124/224/107
f 125/226/108 117/227/98 116/225/97
f 116/225/97 124/224/107 125/226/108
f 126/228/109 118/209/99 117/208/98
f 117/227/98 125/226/108 126/229/109
f 50/230/110 61/231/100 118/232/99
f 118/209/99 126/228/109 50/233/110
f 127/234/111 119/211/101 41/214/102
f 41/214/102 56/235/112 127/234/111
f 128/236/113 120/215/103 119/211/101
f 119/211/101 127/234/111 128/236/113
f 129/237/114 121/218/104 120/215/103
f 120/215/103 128/236/113 129/237/114
f 130/238/115 122/219/105 121/218/104
f 121/218/104 129/237/114 130/238/115
f 131/239/116 123/222/106 122/219/105
f 122/219/105 130/238/115 131/239/116
f 132/240/117 124/224/107 123/222/106
f 123/222/106 131/239/116 132/240/117
f 133/241/118 125/226/108 124/224/107
f 124/224/107 132/240/117 133/241/118
f 134/242/119 126/229/109 125/226/108
f 125/226/108 133/241/118 134/242/119
f 51/243/120 50/244/110 126/229/109
f 126/229/109 134/242/119 51/243/120
f 135/245/121 127/234/111 56/235/112
f 56/235/112 59/246/122 135/245/121
f 136/247/123 128/236/113 127/234/111
f 127/234/111 135/245/121 136/247/123
f 137/248/124 129/237/114 128/236/113
f 128/236/113 136/247/123 137/248/124
f 138/249/125 130/238/115 129/237/114
f 129/237/114 137/248/124 138/249/125
f 139/250/126 131/239/116 130/238/115
f 130/238/115 138/249/125 139/250/126
f 140/251/127 132/240/117 131/239/116
f 131/239/116 139/250/126 140/251/127
f 141/252/128 133/253/118 132/254/117
f 132/254/117 140/255/127 141/252/128
f 142/256/129 134/242/119 133/241/118
f 133/253/118 141/252/128 142/257/129
f 37/258/130 51/243/120 134/242/119
f 134/242/119 142/256/129 37/258/130
f 64/102/32 135/259/121 59/260/122
f 59/260/122 28/103/33 64/102/32
f 66/106/36 136/261/123 135/259/121
f 135/259/121 64/102/32 66/106/36
f 68/108/38 137/262/124 136/261/123
f 136/261/123 66/106/36 68/108/38
f 70/263/40 138/264/125 137/262/124
f 137/262/124 68/108/38 70/263/40
f 72/265/42 139/266/126 138/264/125
f 138/264/125 70/263/40 72/265/42
f 74/116/44 140/255/127 139/267/126
f 139/267/126 72/117/42 74/116/44
f 76/120/46 141/252/128 140/255/127
f 140/255/127 74/116/44 76/120/46
f 78/122/48 142/257/129 141/252/128
f 141/252/128 76/120/46 78/122/48
f 38/124/50 37/268/130 142/257/129
f 142/257/129 78/122/48 38/124/50
