# 3ds Max Wavefront OBJ Exporter v0.97b - (c)2007 guruware
# File Created: 29.06.2020 00:27:02

mtllib tunnel_block_2.mtl

#
# object ARC_170_LEE_RAY_polySurface1394376_2_2
#

#
# object Box005
#

v  0.0000 0.0000 0.0000
v  0.0000 0.0000 -100.1325
v  -9.5000 0.0000 -100.1325
v  -9.5000 0.0000 0.0000
v  0.0000 100.0000 0.0000
v  -9.5000 100.0000 0.0000
v  -9.5000 100.0000 -100.1325
v  0.0000 100.0000 -100.1325
v  50.0518 50.0000 -100.0663
v  -50.0259 50.0000 -100.1180
v  -50.0259 40.5000 -100.1180
v  50.0518 40.5000 -100.0663
v  -50.0000 50.0000 0.0000
v  -50.0000 40.5000 0.0000
v  50.0259 0.0000 -0.0000
v  50.0388 0.0000 -100.0590
v  9.5000 0.0000 -100.1325
v  9.5000 0.0000 0.0000
v  -50.0259 0.0000 -100.1180
v  -50.0000 0.0000 0.0000
v  50.0388 100.0000 -100.0590
v  50.0259 100.0000 -0.0000
v  9.5000 100.0000 0.0000
v  9.5000 100.0000 -100.1325
v  -50.0000 100.0000 0.0000
v  -50.0259 100.0000 -100.1180
v  50.0259 50.0000 -0.0000
v  50.0807 49.7802 -40.7743
v  50.0807 45.2829 -44.6590
v  50.0259 40.5000 -0.0000
v  50.0807 46.1379 -59.9907
v  50.0807 50.8019 -59.7253
v  50.0518 56.3333 -100.0663
v  -8.0150 44.4483 0.0000
v  -2.4445 38.7736 0.0000
v  11.7753 49.1385 0.0000
v  8.2011 55.1823 0.0000
v  50.0259 56.3333 -0.0000
v  50.0807 59.8750 -54.3747
v  50.0807 100.0000 -50.0000
v  50.0807 100.0000 -59.5000
v  50.0807 57.2770 -59.5552
v  50.0807 0.0000 -59.5000
v  50.0807 0.0000 -50.0000
v  50.0807 41.7972 -47.3180
v  50.0807 41.8516 -53.1742
v  -50.0259 59.5000 -100.1180
v  50.0518 59.5000 -100.0663
v  -50.0259 56.3333 -100.1180
v  -3.1932 56.7970 0.0000
v  2.6630 57.9260 0.0000
v  3.4117 39.9026 0.0000
v  7.3167 44.0431 0.0000
v  -50.0000 59.5000 0.0000
v  -50.0000 56.3333 0.0000
v  50.0807 100.0000 -40.5000
v  50.0807 59.8207 -48.5185
v  50.0259 59.5000 -0.0000
v  50.0807 56.4220 -44.2235
v  50.0807 0.0000 -40.5000
v  -7.1306 55.5874 0.0000
v  -7.1757 49.7803 0.0000
v  43.1813 50.8891 -41.7573
v  41.5727 43.9313 -42.1344
v  34.6677 49.9747 -41.5710
v  32.7263 44.1055 -43.8357
v  27.0634 52.0448 -40.4647
v  25.1422 45.6165 -41.7670
v  22.8192 50.4652 -37.7809
v  19.3354 46.7785 -40.7777
v  18.0877 50.1098 -33.3714
v  12.5155 46.1162 -36.0645
v  11.5680 51.4541 -25.5871
v  8.0278 45.6527 -25.2595
v  8.5601 50.8127 -18.1142
v  10.0566 43.6049 -16.4588
v  8.8978 50.6266 -9.8340
v  6.4825 44.9003 -8.3153
v  40.9113 41.6961 -48.1165
v  32.4493 42.3562 -47.6380
v  23.8019 39.9300 -48.2663
v  18.2810 41.4292 -43.3789
v  10.4724 40.8880 -38.2847
v  3.5424 41.5951 -27.3044
v  3.4179 41.5591 -17.4286
v  2.0980 41.3791 -8.7028
v  40.1658 40.8736 -53.9316
v  31.7038 40.4331 -53.4530
v  22.5524 42.0244 -53.9943
v  15.5916 41.6813 -48.5883
v  6.1635 40.0466 -42.2601
v  -1.8664 42.7563 -29.5663
v  -2.3920 42.1228 -18.2135
v  -3.7582 41.4547 -8.9785
v  38.8376 44.3322 -57.2204
v  29.9912 44.7197 -58.9217
v  21.1027 44.2529 -56.5571
v  11.6056 45.4508 -54.0184
v  0.7232 45.7616 -45.8629
v  -6.4045 44.8076 -30.4338
v  -5.2232 46.0610 -17.7215
v  -8.8492 44.4293 -8.2415
v  38.9452 50.1423 -60.2538
v  30.4317 51.0680 -60.0675
v  21.2314 50.0235 -58.5216
v  12.5125 50.5058 -53.7130
v  2.9534 51.2057 -44.8176
v  -6.5684 49.9773 -31.1668
v  -10.4025 50.9209 -18.8097
v  -10.0532 51.5303 -8.8742
v  39.3870 55.4713 -58.0773
v  30.8664 55.8588 -57.9310
v  21.7484 55.3920 -56.8130
v  13.3752 56.5899 -52.3331
v  2.4682 56.9007 -45.2993
v  -6.7896 55.9467 -31.3081
v  -8.2653 57.2001 -18.6801
v  -7.2909 55.5684 -8.9314
v  40.1058 58.8971 -53.4158
v  31.3578 58.4566 -54.5593
v  22.8990 60.0479 -52.1264
v  15.5220 59.7048 -48.4116
v  5.4137 58.0701 -42.6952
v  -0.5448 60.7797 -28.9271
v  -3.0729 60.1463 -18.1239
v  -4.4493 59.4782 -8.8298
v  41.0132 59.7196 -47.6293
v  32.2652 60.3797 -48.7727
v  24.3072 57.9534 -46.4410
v  18.3538 59.4526 -43.2843
v  9.8283 58.9115 -38.8457
v  4.9202 59.6186 -26.8196
v  2.7513 59.5826 -17.5027
v  1.4069 59.4026 -8.7186
v  40.9415 55.0704 -42.7832
v  32.4209 55.2446 -42.6369
v  24.6299 56.7556 -42.3409
v  20.0668 57.9176 -38.4930
v  13.4899 57.2553 -34.5825
v  7.2327 56.7918 -25.0072
v  6.9100 54.7440 -16.2232
v  8.0408 56.0394 -7.8064
# 142 vertices

vn 0.0000 -1.0000 -0.0000
vn 0.0000 1.0000 -0.0000
vn 0.0005 0.0000 -1.0000
vn 0.0005 -0.0001 -1.0000
vn -1.0000 0.0000 0.0003
vn 1.0000 -0.0000 0.0013
vn 1.0000 -0.0003 0.0013
vn 1.0000 -0.0002 0.0010
vn 1.0000 0.0000 0.0013
vn 1.0000 0.0000 -0.0007
vn 1.0000 -0.0005 -0.0006
vn 0.0000 0.0000 1.0000
vn 0.0000 -0.0000 1.0000
vn 1.0000 0.0000 -0.0000
vn 1.0000 0.0001 -0.0004
vn 1.0000 0.0000 -0.0005
vn 1.0000 0.0001 -0.0006
vn 1.0000 -0.0002 -0.0004
vn 0.0005 0.0001 -1.0000
vn 0.0006 0.0000 -1.0000
vn 0.0005 -0.0000 -1.0000
vn 0.0006 -0.0002 -1.0000
vn 1.0000 -0.0001 0.0012
vn 1.0000 -0.0002 0.0008
vn 1.0000 0.0002 0.0006
vn 1.0000 0.0000 0.0012
vn 1.0000 0.0012 0.0012
vn 1.0000 0.0000 0.0007
vn 1.0000 0.0000 0.0014
vn 1.0000 -0.0001 -0.0008
vn 1.0000 -0.0002 -0.0007
vn 1.0000 0.0003 -0.0010
vn 1.0000 0.0001 -0.0008
vn -0.0528 0.0109 -0.9985
vn 0.0425 -0.1405 -0.9892
vn -0.0016 0.6058 -0.7956
vn -0.1795 0.7030 -0.6882
vn -0.0906 0.0955 -0.9913
vn -0.0420 0.6801 -0.7319
vn -0.2344 -0.1065 -0.9663
vn -0.1254 0.4885 -0.8635
vn -0.6473 0.3239 -0.6899
vn -0.3448 0.5835 -0.7353
vn -0.7105 0.2708 -0.6495
vn -0.5718 0.6856 -0.4505
vn -0.8716 -0.1623 -0.4626
vn -0.6872 0.7254 -0.0382
vn -0.9290 -0.2992 -0.2177
vn -0.8494 0.5146 -0.1172
vn -0.9835 0.0922 0.1559
vn -0.8319 0.5530 -0.0452
vn -0.9564 0.1728 0.2355
vn -0.7571 0.6231 0.1963
vn -0.0245 0.9567 -0.2900
vn 0.0018 0.8764 -0.4817
vn -0.0276 0.9496 -0.3123
vn -0.1004 0.9932 -0.0581
vn -0.1959 0.8709 -0.4508
vn -0.3339 0.8666 -0.3709
vn -0.2055 0.9775 -0.0483
vn -0.1678 0.9839 0.0617
vn -0.2842 0.9556 0.0779
vn -0.4619 0.8665 0.1893
vn -0.0824 0.9316 0.3541
vn -0.0713 0.9488 0.3076
vn 0.0821 0.9841 0.1574
vn 0.1205 0.8913 0.4371
vn 0.1835 0.9438 0.2749
vn 0.2273 0.9459 0.2314
vn 0.3417 0.9398 0.0028
vn 0.4659 0.8757 0.1266
vn 0.3323 0.9351 0.1229
vn 0.2666 0.9442 0.1931
vn -0.0329 0.5826 0.8121
vn 0.0076 0.4686 0.8834
vn 0.0280 0.4966 0.8675
vn 0.2708 0.5590 0.7837
vn 0.4649 0.3884 0.7956
vn 0.7216 0.2257 0.6545
vn 0.7902 0.5863 0.1783
vn 0.7776 0.6185 0.1128
vn 0.8575 0.5103 0.0659
vn 0.9316 0.3623 -0.0283
vn 0.0408 0.0316 0.9987
vn 0.0275 -0.0976 0.9948
vn 0.0502 -0.1024 0.9935
vn 0.3352 -0.0052 0.9421
vn 0.5102 -0.1386 0.8488
vn 0.7392 -0.1247 0.6618
vn 0.9253 0.0079 0.3792
vn 0.9858 0.1641 0.0356
vn 0.9919 -0.1231 -0.0326
vn 0.9708 -0.0189 -0.2393
vn 0.0505 -0.5837 0.8104
vn 0.1716 -0.5270 0.8324
vn 0.0396 -0.6094 0.7919
vn 0.2612 -0.5289 0.8075
vn 0.3922 -0.5932 0.7031
vn 0.6111 -0.5232 0.5940
vn 0.8604 -0.3955 0.3214
vn 0.7953 -0.6035 0.0582
vn 0.8049 -0.5824 -0.1139
vn 0.7314 -0.6681 -0.1369
vn 0.0521 -0.9300 0.3638
vn 0.0922 -0.9620 0.2571
vn 0.0274 -0.9004 0.4343
vn 0.0132 -0.9656 0.2598
vn 0.1895 -0.9501 0.2480
vn 0.1418 -0.9702 0.1964
vn 0.1957 -0.9743 0.1115
vn 0.2340 -0.9722 0.0057
vn 0.4408 -0.8779 -0.1870
vn 0.3250 -0.9224 -0.2086
vn -0.0176 -0.9392 -0.3430
vn -0.0010 -0.9435 -0.3315
vn 0.0888 -0.9879 -0.1273
vn -0.1232 -0.9679 -0.2191
vn -0.1347 -0.9768 -0.1663
vn -0.0095 -0.9973 -0.0726
vn -0.4439 -0.8910 -0.0950
vn -0.4130 -0.9089 -0.0583
vn -0.2174 -0.9706 -0.1038
vn -0.1996 -0.9645 -0.1728
vn -0.0385 -0.4955 -0.8678
vn 0.0067 -0.6350 -0.7725
vn -0.1070 -0.5338 -0.8388
vn -0.3255 -0.7413 -0.5870
vn -0.4244 -0.7261 -0.5409
vn -0.3820 -0.8083 -0.4481
vn -0.7100 -0.6475 -0.2769
vn -0.8724 -0.4883 0.0209
vn -0.7725 -0.6326 0.0562
vn -0.6907 -0.7203 -0.0645
# 133 vertex normals

vt -49.0000 100.0000 0.0000
vt -49.0000 0.0000 0.0000
vt -39.5000 0.0000 0.0000
vt -39.5000 100.0000 0.0000
vt 50.0000 100.0000 0.0000
vt 40.5000 100.0000 0.0000
vt 40.5000 0.0000 0.0000
vt 50.0000 0.0000 0.0000
vt 100.0000 50.0000 0.0000
vt 0.0000 50.0000 0.0000
vt 0.0000 40.5000 0.0000
vt 100.0000 40.5000 0.0000
vt -99.0000 100.0000 0.0000
vt -99.0000 0.0000 0.0000
vt -58.5000 0.0000 0.0000
vt -58.5000 100.0000 0.0000
vt 1.0000 0.0000 0.0000
vt 1.0000 100.0000 0.0000
vt 100.0000 0.0000 0.0000
vt 100.0000 100.0000 0.0000
vt 59.5000 100.0000 0.0000
vt 59.5000 0.0000 0.0000
vt 0.0000 100.0000 0.0000
vt 0.0000 0.0000 0.0000
vt 59.5000 50.0000 0.0000
vt 59.5000 40.5000 0.0000
vt 40.5000 50.0000 0.0000
vt 40.5000 56.3333 0.0000
vt 0.0000 56.3333 0.0000
vt 50.0000 59.5000 0.0000
vt 40.5000 59.5000 0.0000
vt 50.0000 40.5000 0.0000
vt 40.5000 40.5000 0.0000
vt 0.0000 59.5000 0.0000
vt 100.0000 59.5000 0.0000
vt 100.0000 56.3333 0.0000
vt 59.5000 59.5000 0.0000
vt 59.5000 56.3333 0.0000
vt 10.0000 39.9800 33.4835
vt 10.0000 35.5400 33.4835
vt 9.0042 35.5400 33.4202
vt 9.0042 39.9800 33.4202
vt 10.0000 31.1000 33.4835
vt 9.0042 31.1000 33.4202
vt 10.0000 26.6600 33.4835
vt 9.0042 26.6600 33.4202
vt 10.0000 22.2200 33.4835
vt 9.0042 22.2200 33.4202
vt 10.0000 17.7800 33.4835
vt 9.0042 17.7800 33.4202
vt 10.0000 13.3400 33.4835
vt 9.0042 13.3400 33.4202
vt 10.0000 8.9000 33.4835
vt 9.0042 8.9000 33.4202
vt 10.0000 4.4600 33.4835
vt 9.0042 4.4600 33.4202
vt 10.0000 0.0200 33.4835
vt 9.0042 0.0200 33.4202
vt 8.0026 35.5400 33.3176
vt 8.0026 39.9800 33.3176
vt 8.0026 31.1000 33.3176
vt 8.0026 26.6600 33.3176
vt 8.0026 22.2200 33.3176
vt 8.0026 17.7800 33.3176
vt 8.0026 13.3400 33.3176
vt 8.0026 8.9000 33.3176
vt 8.0026 4.4600 33.3176
vt 8.0026 0.0200 33.3176
vt 6.9974 35.5400 33.3176
vt 6.9974 39.9800 33.3176
vt 6.9974 31.1000 33.3176
vt 6.9974 26.6600 33.3176
vt 6.9974 22.2200 33.3176
vt 6.9974 17.7800 33.3176
vt 6.9974 13.3400 33.3176
vt 6.9974 8.9000 33.3176
vt 6.9974 4.4600 33.3176
vt 6.9974 0.0200 33.3176
vt 5.9958 35.5400 33.4202
vt 5.9958 39.9800 33.4202
vt 5.9958 31.1000 33.4202
vt 5.9958 26.6600 33.4202
vt 5.9958 22.2200 33.4202
vt 5.9958 17.7800 33.4202
vt 5.9958 13.3400 33.4202
vt 5.9958 8.9000 33.4202
vt 5.9958 4.4600 33.4202
vt 5.9958 0.0200 33.4202
vt 5.0000 35.5400 33.4835
vt 5.0000 39.9800 33.4835
vt 5.0000 31.1000 33.4835
vt 5.0000 26.6600 33.4835
vt 5.0000 22.2200 33.4835
vt 5.0000 17.7800 33.4835
vt 5.0000 13.3400 33.4835
vt 5.0000 8.9000 33.4835
vt 5.0000 4.4600 33.4835
vt 5.0000 0.0200 33.4835
vt 4.0042 35.5400 33.4202
vt 4.0042 39.9800 33.4202
vt 4.0042 31.1000 33.4202
vt 4.0042 26.6600 33.4202
vt 4.0042 22.2200 33.4202
vt 4.0042 17.7800 33.4202
vt 4.0042 13.3400 33.4202
vt 4.0042 8.9000 33.4202
vt 4.0042 4.4600 33.4202
vt 4.0042 0.0200 33.4202
vt 3.0026 35.5400 33.3176
vt 3.0026 39.9800 33.3176
vt 3.0026 31.1000 33.3176
vt 3.0026 26.6600 33.3176
vt 3.0026 22.2200 33.3176
vt 3.0026 17.7800 33.3176
vt 3.0026 13.3400 33.3176
vt 3.0026 8.9000 33.3176
vt 3.0026 4.4600 33.3176
vt 3.0026 0.0200 33.3176
vt 1.9974 35.5400 33.3176
vt 1.9974 39.9800 33.3176
vt 1.9974 31.1000 33.3176
vt 1.9974 26.6600 33.3176
vt 1.9974 22.2200 33.3176
vt 1.9974 17.7800 33.3176
vt 1.9974 13.3400 33.3176
vt 1.9974 8.9000 33.3176
vt 1.9974 4.4600 33.3176
vt 1.9974 0.0200 33.3176
vt 0.9958 35.5400 33.4202
vt 0.9958 39.9800 33.4202
vt 0.9958 31.1000 33.4202
vt 0.9958 26.6600 33.4202
vt 0.9958 22.2200 33.4202
vt 0.9958 17.7800 33.4202
vt 0.9958 13.3400 33.4202
vt 0.9958 8.9000 33.4202
vt 0.9958 4.4600 33.4202
vt 0.9958 0.0200 33.4202
vt -0.0000 35.5400 33.4835
vt -0.0000 39.9800 33.4835
vt -0.0000 31.1000 33.4835
vt -0.0000 26.6600 33.4835
vt -0.0000 22.2200 33.4835
vt -0.0000 17.7800 33.4835
vt -0.0000 13.3400 33.4835
vt -0.0000 8.9000 33.4835
vt -0.0000 4.4600 33.4835
vt -0.0000 0.0200 33.4835
# 148 texture coords

o Box005
g Box005
usemtl Cave_Material
s 2
f 3/3/1 2/2/1 1/1/1 
f 1/1/1 4/4/1 3/3/1 
s 4
f 7/7/2 6/6/2 5/5/2 
f 5/5/2 8/8/2 7/7/2 
s 16
f 11/11/3 10/10/3 9/9/3 
f 9/9/3 12/12/4 11/11/3 
s 64
f 11/12/5 14/11/5 13/10/5 
f 13/10/5 10/9/5 11/12/5 
s 2
f 17/15/1 16/14/1 15/13/1 
f 15/13/1 18/16/1 17/15/1 
f 2/2/1 17/15/1 18/16/1 
f 18/16/1 1/1/1 2/2/1 
f 4/4/1 20/18/1 19/17/1 
f 19/17/1 3/3/1 4/4/1 
s 4
f 23/21/2 22/20/2 21/19/2 
f 21/19/2 24/22/2 23/21/2 
f 23/21/2 24/22/2 8/8/2 
f 8/8/2 5/5/2 23/21/2 
f 7/7/2 26/24/2 25/23/2 
f 25/23/2 6/6/2 7/7/2 
s 8
f 29/26/8 28/25/7 27/9/6 
f 27/9/6 30/12/9 29/26/8 
f 32/28/10 31/27/11 9/10/10 
f 9/10/10 33/29/10 32/28/10 
s 32
f 35/26/12 34/25/12 13/9/12 
f 13/9/12 14/12/12 35/26/12 
f 38/29/12 37/28/12 36/27/13 
f 36/27/13 27/10/13 38/29/12 
s 8
f 41/6/15 40/5/14 39/30/14 
f 39/30/14 42/31/16 41/6/15 
f 45/32/14 44/8/14 43/7/17 
f 43/7/17 46/33/18 45/32/14 
s 16
f 47/34/3 26/23/20 21/20/19 
f 21/20/19 48/35/19 47/34/3 
f 49/29/3 47/34/3 48/35/19 
f 48/35/19 33/36/3 49/29/3 
f 10/10/3 49/29/3 33/36/3 
f 33/36/3 9/9/3 10/10/3 
f 12/12/4 16/19/22 19/24/21 
f 19/24/21 11/11/3 12/12/4 
s 32
f 23/6/13 5/5/12 50/30/12 
f 50/30/12 51/31/12 23/6/13 
f 52/32/12 1/8/12 18/7/12 
f 18/7/12 53/33/13 52/32/12 
s 64
f 54/34/5 25/23/5 26/20/5 
f 26/20/5 47/35/5 54/34/5 
f 55/29/5 54/34/5 47/35/5 
f 47/35/5 49/36/5 55/29/5 
f 55/29/5 49/36/5 10/9/5 
f 10/9/5 13/10/5 55/29/5 
f 11/12/5 19/19/5 20/24/5 
f 20/24/5 14/11/5 11/12/5 
s 8
f 57/37/25 56/21/24 22/20/23 
f 22/20/23 58/35/26 57/37/25 
f 59/38/27 57/37/25 58/35/26 
f 58/35/26 38/36/9 59/38/27 
f 28/25/7 59/38/27 38/36/9 
f 38/36/9 27/9/6 28/25/7 
f 30/12/9 15/19/29 60/22/28 
f 60/22/28 29/26/8 30/12/9 
f 40/5/14 56/21/24 57/37/25 
f 57/37/25 39/30/14 40/5/14 
f 29/26/8 60/22/28 44/8/14 
f 44/8/14 45/32/14 29/26/8 
f 46/33/18 43/7/17 16/24/30 
f 16/24/30 12/11/31 46/33/18 
f 31/27/11 46/33/18 12/11/31 
f 12/11/31 9/10/10 31/27/11 
f 48/34/33 21/23/32 41/6/15 
f 41/6/15 42/31/16 48/34/33 
f 33/29/10 48/34/33 42/31/16 
f 42/31/16 32/28/10 33/29/10 
s 32
f 61/37/12 6/21/12 25/20/12 
f 25/20/12 54/35/12 61/37/12 
f 62/38/12 61/37/12 54/35/12 
f 54/35/12 55/36/12 62/38/12 
f 34/25/12 62/38/12 55/36/12 
f 55/36/12 13/9/12 34/25/12 
f 14/12/12 20/19/12 4/22/12 
f 4/22/12 35/26/12 14/12/12 
f 50/30/12 5/5/12 6/21/12 
f 6/21/12 61/37/12 50/30/12 
f 35/26/12 4/22/12 1/8/12 
f 1/8/12 52/32/12 35/26/12 
f 53/33/13 18/7/12 15/24/12 
f 15/24/12 30/11/12 53/33/13 
f 53/33/13 30/11/12 27/10/13 
f 27/10/13 36/27/13 53/33/13 
f 58/34/13 22/23/12 23/6/13 
f 23/6/13 51/31/12 58/34/13 
f 38/29/12 58/34/13 51/31/12 
f 51/31/12 37/28/12 38/29/12 
s 2
f 64/41/36 63/40/35 28/39/34 
f 28/39/34 29/42/37 64/41/36 
f 66/44/39 65/43/38 63/40/35 
f 63/40/35 64/41/36 66/44/39 
f 68/46/41 67/45/40 65/43/38 
f 65/43/38 66/44/39 68/46/41 
f 70/48/43 69/47/42 67/45/40 
f 67/45/40 68/46/41 70/48/43 
f 72/50/45 71/49/44 69/47/42 
f 69/47/42 70/48/43 72/50/45 
f 74/52/47 73/51/46 71/49/44 
f 71/49/44 72/50/45 74/52/47 
f 76/54/49 75/53/48 73/51/46 
f 73/51/46 74/52/47 76/54/49 
f 78/56/51 77/55/50 75/53/48 
f 75/53/48 76/54/49 78/56/51 
f 53/58/53 36/57/52 77/55/50 
f 77/55/50 78/56/51 53/58/53 
f 79/59/54 64/41/36 29/42/37 
f 29/42/37 45/60/55 79/59/54 
f 80/61/56 66/44/39 64/41/36 
f 64/41/36 79/59/54 80/61/56 
f 81/62/57 68/46/41 66/44/39 
f 66/44/39 80/61/56 81/62/57 
f 82/63/58 70/48/43 68/46/41 
f 68/46/41 81/62/57 82/63/58 
f 83/64/59 72/50/45 70/48/43 
f 70/48/43 82/63/58 83/64/59 
f 84/65/60 74/52/47 72/50/45 
f 72/50/45 83/64/59 84/65/60 
f 85/66/61 76/54/49 74/52/47 
f 74/52/47 84/65/60 85/66/61 
f 86/67/62 78/56/51 76/54/49 
f 76/54/49 85/66/61 86/67/62 
f 52/68/63 53/58/53 78/56/51 
f 78/56/51 86/67/62 52/68/63 
f 87/69/64 79/59/54 45/60/55 
f 45/60/55 46/70/65 87/69/64 
f 88/71/66 80/61/56 79/59/54 
f 79/59/54 87/69/64 88/71/66 
f 89/72/67 81/62/57 80/61/56 
f 80/61/56 88/71/66 89/72/67 
f 90/73/68 82/63/58 81/62/57 
f 81/62/57 89/72/67 90/73/68 
f 91/74/69 83/64/59 82/63/58 
f 82/63/58 90/73/68 91/74/69 
f 92/75/70 84/65/60 83/64/59 
f 83/64/59 91/74/69 92/75/70 
f 93/76/71 85/66/61 84/65/60 
f 84/65/60 92/75/70 93/76/71 
f 94/77/72 86/67/62 85/66/61 
f 85/66/61 93/76/71 94/77/72 
f 35/78/73 52/68/63 86/67/62 
f 86/67/62 94/77/72 35/78/73 
f 95/79/74 87/69/64 46/70/65 
f 46/70/65 31/80/75 95/79/74 
f 96/81/76 88/71/66 87/69/64 
f 87/69/64 95/79/74 96/81/76 
f 97/82/77 89/72/67 88/71/66 
f 88/71/66 96/81/76 97/82/77 
f 98/83/78 90/73/68 89/72/67 
f 89/72/67 97/82/77 98/83/78 
f 99/84/79 91/74/69 90/73/68 
f 90/73/68 98/83/78 99/84/79 
f 100/85/80 92/75/70 91/74/69 
f 91/74/69 99/84/79 100/85/80 
f 101/86/81 93/76/71 92/75/70 
f 92/75/70 100/85/80 101/86/81 
f 102/87/82 94/77/72 93/76/71 
f 93/76/71 101/86/81 102/87/82 
f 34/88/83 35/78/73 94/77/72 
f 94/77/72 102/87/82 34/88/83 
f 103/89/84 95/79/74 31/80/75 
f 31/80/75 32/90/85 103/89/84 
f 104/91/86 96/81/76 95/79/74 
f 95/79/74 103/89/84 104/91/86 
f 105/92/87 97/82/77 96/81/76 
f 96/81/76 104/91/86 105/92/87 
f 106/93/88 98/83/78 97/82/77 
f 97/82/77 105/92/87 106/93/88 
f 107/94/89 99/84/79 98/83/78 
f 98/83/78 106/93/88 107/94/89 
f 108/95/90 100/85/80 99/84/79 
f 99/84/79 107/94/89 108/95/90 
f 109/96/91 101/86/81 100/85/80 
f 100/85/80 108/95/90 109/96/91 
f 110/97/92 102/87/82 101/86/81 
f 101/86/81 109/96/91 110/97/92 
f 62/98/93 34/88/83 102/87/82 
f 102/87/82 110/97/92 62/98/93 
f 111/99/94 103/89/84 32/90/85 
f 32/90/85 42/100/95 111/99/94 
f 112/101/96 104/91/86 103/89/84 
f 103/89/84 111/99/94 112/101/96 
f 113/102/97 105/92/87 104/91/86 
f 104/91/86 112/101/96 113/102/97 
f 114/103/98 106/93/88 105/92/87 
f 105/92/87 113/102/97 114/103/98 
f 115/104/99 107/94/89 106/93/88 
f 106/93/88 114/103/98 115/104/99 
f 116/105/100 108/95/90 107/94/89 
f 107/94/89 115/104/99 116/105/100 
f 117/106/101 109/96/91 108/95/90 
f 108/95/90 116/105/100 117/106/101 
f 118/107/102 110/97/92 109/96/91 
f 109/96/91 117/106/101 118/107/102 
f 61/108/103 62/98/93 110/97/92 
f 110/97/92 118/107/102 61/108/103 
f 119/109/104 111/99/94 42/100/95 
f 42/100/95 39/110/105 119/109/104 
f 120/111/106 112/101/96 111/99/94 
f 111/99/94 119/109/104 120/111/106 
f 121/112/107 113/102/97 112/101/96 
f 112/101/96 120/111/106 121/112/107 
f 122/113/108 114/103/98 113/102/97 
f 113/102/97 121/112/107 122/113/108 
f 123/114/109 115/104/99 114/103/98 
f 114/103/98 122/113/108 123/114/109 
f 124/115/110 116/105/100 115/104/99 
f 115/104/99 123/114/109 124/115/110 
f 125/116/111 117/106/101 116/105/100 
f 116/105/100 124/115/110 125/116/111 
f 126/117/112 118/107/102 117/106/101 
f 117/106/101 125/116/111 126/117/112 
f 50/118/113 61/108/103 118/107/102 
f 118/107/102 126/117/112 50/118/113 
f 127/119/114 119/109/104 39/110/105 
f 39/110/105 57/120/115 127/119/114 
f 128/121/116 120/111/106 119/109/104 
f 119/109/104 127/119/114 128/121/116 
f 129/122/117 121/112/107 120/111/106 
f 120/111/106 128/121/116 129/122/117 
f 130/123/118 122/113/108 121/112/107 
f 121/112/107 129/122/117 130/123/118 
f 131/124/119 123/114/109 122/113/108 
f 122/113/108 130/123/118 131/124/119 
f 132/125/120 124/115/110 123/114/109 
f 123/114/109 131/124/119 132/125/120 
f 133/126/121 125/116/111 124/115/110 
f 124/115/110 132/125/120 133/126/121 
f 134/127/122 126/117/112 125/116/111 
f 125/116/111 133/126/121 134/127/122 
f 51/128/123 50/118/113 126/117/112 
f 126/117/112 134/127/122 51/128/123 
f 135/129/124 127/119/114 57/120/115 
f 57/120/115 59/130/125 135/129/124 
f 136/131/126 128/121/116 127/119/114 
f 127/119/114 135/129/124 136/131/126 
f 137/132/127 129/122/117 128/121/116 
f 128/121/116 136/131/126 137/132/127 
f 138/133/128 130/123/118 129/122/117 
f 129/122/117 137/132/127 138/133/128 
f 139/134/129 131/124/119 130/123/118 
f 130/123/118 138/133/128 139/134/129 
f 140/135/130 132/125/120 131/124/119 
f 131/124/119 139/134/129 140/135/130 
f 141/136/131 133/126/121 132/125/120 
f 132/125/120 140/135/130 141/136/131 
f 142/137/132 134/127/122 133/126/121 
f 133/126/121 141/136/131 142/137/132 
f 37/138/133 51/128/123 134/127/122 
f 134/127/122 142/137/132 37/138/133 
f 63/139/35 135/129/124 59/130/125 
f 59/130/125 28/140/34 63/139/35 
f 65/141/38 136/131/126 135/129/124 
f 135/129/124 63/139/35 65/141/38 
f 67/142/40 137/132/127 136/131/126 
f 136/131/126 65/141/38 67/142/40 
f 69/143/42 138/133/128 137/132/127 
f 137/132/127 67/142/40 69/143/42 
f 71/144/44 139/134/129 138/133/128 
f 138/133/128 69/143/42 71/144/44 
f 73/145/46 140/135/130 139/134/129 
f 139/134/129 71/144/44 73/145/46 
f 75/146/48 141/136/131 140/135/130 
f 140/135/130 73/145/46 75/146/48 
f 77/147/50 142/137/132 141/136/131 
f 141/136/131 75/146/48 77/147/50 
f 36/148/52 37/138/133 142/137/132 
f 142/137/132 77/147/50 36/148/52 
# 272 faces

