# 3ds Max Wavefront OBJ Exporter v0.97b - (c)2007 guruware
# File Created: 29.06.2020 00:54:47

mtllib tunnel_block_1_cube.mtl

#
# object ARC_170_LEE_RAY_polySurface1394376_2_2
#

#
# object Box001
#

v  0.0000 0.0000 -98.1331
v  0.0000 0.0000 0.0284
v  -9.5000 0.0000 0.0284
v  -9.5000 0.0000 -98.1331
v  0.0000 100.0000 -98.1331
v  -9.5000 100.0000 -98.1331
v  -9.5000 100.0000 0.0284
v  0.0000 100.0000 0.0284
v  50.0000 50.0000 -98.1331
v  50.0000 50.0000 -0.0000
v  50.0000 40.5000 -0.0000
v  50.0000 40.5000 -98.1331
v  -50.0000 50.0000 -98.1331
v  -50.0000 40.5000 -98.1331
v  -50.0000 40.5000 -0.0000
v  -50.0000 50.0000 -0.0000
v  50.0000 0.0000 -98.1331
v  50.0000 0.0000 -0.0000
v  9.5000 0.0000 0.0284
v  9.5000 0.0000 -98.1331
v  -50.0000 0.0000 -0.0000
v  -50.0000 0.0000 -98.1331
v  50.0000 100.0000 -0.0000
v  50.0000 100.0000 -98.1331
v  9.5000 100.0000 -98.1331
v  9.5000 100.0000 0.0284
v  -50.0000 100.0000 -98.1331
v  -50.0000 100.0000 -0.0000
v  9.2257 49.7802 0.0284
v  5.3410 45.2829 0.0284
v  -9.9907 46.1379 0.0284
v  -9.7253 50.8019 0.0284
v  -50.0000 56.3333 -0.0000
v  -8.0150 44.4483 -98.1331
v  -2.4445 38.7736 -98.1331
v  11.7753 49.1385 -98.1331
v  8.2011 55.1823 -98.1331
v  50.0000 56.3333 -98.1331
v  -4.3747 59.8750 0.0284
v  -9.5552 57.2770 0.0284
v  2.6820 41.7972 0.0284
v  -3.1742 41.8516 0.0284
v  50.0000 59.5000 -0.0000
v  50.0000 59.5000 -98.1331
v  50.0000 56.3333 -0.0000
v  -3.1932 56.7970 -98.1331
v  2.6630 57.9260 -98.1331
v  3.4117 39.9026 -98.1331
v  7.3167 44.0431 -98.1331
v  -50.0000 59.5000 -98.1331
v  -50.0000 59.5000 -0.0000
v  -50.0000 56.3333 -98.1331
v  1.4815 59.8207 0.0284
v  5.7765 56.4220 0.0284
v  -7.1306 55.5874 -98.1331
v  -7.1757 49.7803 -98.1331
v  8.7138 50.8891 -9.5153
v  8.0631 43.9313 -11.3861
v  9.1925 49.9747 -20.4443
v  6.6251 44.1055 -22.3152
v  9.0955 52.0448 -31.3733
v  7.3404 45.6165 -33.2442
v  8.8040 50.4652 -42.3023
v  4.4667 46.7785 -44.1732
v  11.1356 50.1098 -53.2314
v  5.1359 46.1162 -55.1022
v  9.3667 51.4541 -64.1604
v  6.1521 45.6527 -66.0313
v  7.1757 50.8127 -75.0894
v  8.8108 43.6049 -76.9603
v  8.8978 50.6266 -86.0184
v  6.4825 44.9003 -87.8893
v  2.0571 41.6961 -10.9088
v  2.8325 42.3562 -21.8378
v  0.7156 39.9300 -32.7668
v  1.6868 41.4292 -43.6959
v  2.1438 40.8880 -54.6249
v  1.2378 41.5951 -65.5539
v  2.1129 41.5591 -76.4829
v  2.0980 41.3791 -87.4120
v  -3.7990 40.8736 -10.5692
v  -3.0236 40.4331 -21.4983
v  -5.1406 42.0244 -32.4273
v  -4.1693 41.6813 -43.3563
v  -3.7124 40.0466 -54.2853
v  -4.6184 42.7563 -65.2144
v  -3.7433 42.1228 -76.1434
v  -3.7582 41.4547 -87.0724
v  -7.2685 44.3322 -11.4771
v  -8.7066 44.7197 -22.4061
v  -7.9913 44.2529 -33.3352
v  -10.8650 45.4508 -44.2642
v  -10.1958 45.7616 -55.1932
v  -9.1796 44.8076 -66.1223
v  -6.5209 46.0610 -77.0513
v  -8.8492 44.4293 -87.9803
v  -10.2372 50.1423 -10.6976
v  -9.7585 51.0680 -21.6267
v  -9.8555 50.0235 -32.5557
v  -10.1470 50.5058 -43.4847
v  -7.8154 51.2057 -54.4138
v  -9.5843 49.9773 -65.3428
v  -11.7753 50.9209 -76.2718
v  -10.0532 51.5303 -87.2009
v  -8.0171 55.4713 -10.6272
v  -7.5790 55.8588 -21.5563
v  -8.0714 55.3920 -32.4853
v  -8.5206 56.5899 -43.4143
v  -8.4967 56.9007 -54.3433
v  -9.8405 55.9467 -65.2724
v  -9.6349 57.2001 -76.2014
v  -7.2909 55.5684 -87.1304
v  -3.3015 58.8971 -10.7524
v  -4.1732 58.4566 -21.6814
v  -3.2467 60.0479 -32.6104
v  -4.0511 59.7048 -43.5394
v  -4.5665 58.0701 -54.4685
v  -3.1579 60.7797 -65.3975
v  -4.4138 60.1463 -76.3265
v  -4.4493 59.4782 -87.2556
v  2.5546 59.7196 -10.8894
v  1.6830 60.3797 -21.8184
v  2.6095 57.9534 -32.7475
v  1.8051 59.4526 -43.6765
v  1.2897 58.9115 -54.6055
v  2.6983 59.6186 -65.5345
v  1.4424 59.5826 -76.4636
v  1.4069 59.4026 -87.3926
v  7.3146 55.0704 -12.0131
v  7.7527 55.2446 -22.9421
v  7.2603 56.7556 -33.8711
v  6.8111 57.9176 -44.8002
v  6.8350 57.2553 -55.7292
v  5.4912 56.7918 -66.6582
v  5.6967 54.7440 -77.5872
v  8.0408 56.0394 -88.5163
# 136 vertices

vn 0.0000 -1.0000 -0.0000
vn 0.0000 1.0000 -0.0000
vn 1.0000 0.0000 -0.0000
vn -1.0000 0.0000 -0.0000
vn 0.0007 -0.0000 1.0000
vn 0.0007 -0.0002 1.0000
vn 0.0005 -0.0001 1.0000
vn 0.0007 0.0000 1.0000
vn -0.0007 0.0000 1.0000
vn -0.0006 -0.0005 1.0000
vn 0.0000 0.0000 -1.0000
vn 0.0000 0.0000 1.0000
vn -0.0004 0.0000 1.0000
vn -0.0005 0.0000 1.0000
vn -0.0004 0.0001 1.0000
vn -0.0003 -0.0001 1.0000
vn 0.0006 -0.0001 1.0000
vn 0.0004 -0.0001 1.0000
vn 0.0003 0.0001 1.0000
vn 0.0006 0.0000 1.0000
vn 0.0006 0.0006 1.0000
vn 0.0004 0.0000 1.0000
vn -0.0007 0.0001 1.0000
vn -0.0007 -0.0000 1.0000
vn -0.9946 0.0421 -0.0947
vn -0.9896 -0.1435 0.0067
vn -0.7910 0.6118 -0.0036
vn -0.7115 0.6893 -0.1365
vn -0.9959 0.0813 -0.0385
vn -0.7353 0.6777 0.0038
vn -0.9971 -0.0515 0.0559
vn -0.8653 0.4829 0.1345
vn -0.9378 0.3328 -0.0993
vn -0.7999 0.5993 0.0320
vn -0.9706 0.2354 -0.0501
vn -0.7065 0.7053 -0.0591
vn -0.9864 -0.1131 0.1191
vn -0.7030 0.7006 -0.1219
vn -0.9530 -0.2922 0.0804
vn -0.8596 0.5107 0.0173
vn -0.9775 0.0894 -0.1908
vn -0.8252 0.5642 -0.0265
vn -0.9697 0.1628 -0.1822
vn -0.7568 0.6333 -0.1615
vn -0.2878 0.9570 -0.0362
vn -0.4737 0.8806 -0.0111
vn -0.3232 0.9463 0.0037
vn -0.1455 0.9881 -0.0493
vn -0.4909 0.8701 0.0442
vn -0.5463 0.8364 0.0447
vn -0.2630 0.9646 -0.0173
vn -0.1484 0.9866 -0.0674
vn -0.3038 0.9502 -0.0701
vn -0.4667 0.8717 -0.1497
vn 0.3347 0.9402 -0.0629
vn 0.3051 0.9501 -0.0646
vn 0.1419 0.9878 0.0636
vn 0.4448 0.8948 -0.0396
vn 0.3183 0.9480 -0.0041
vn 0.2602 0.9650 0.0332
vn 0.3012 0.9469 0.1129
vn 0.4782 0.8764 -0.0567
vn 0.3109 0.9472 -0.0780
vn 0.2736 0.9499 -0.1511
vn 0.8055 0.5926 -0.0080
vn 0.8839 0.4677 0.0059
vn 0.8605 0.5084 -0.0327
vn 0.8219 0.5684 -0.0370
vn 0.9201 0.3916 -0.0100
vn 0.9686 0.2482 -0.0161
vn 0.7796 0.6193 0.0936
vn 0.7822 0.6230 0.0051
vn 0.8518 0.5237 -0.0116
vn 0.9359 0.3518 0.0181
vn 0.9987 0.0151 0.0495
vn 0.9947 -0.0984 0.0296
vn 0.9936 -0.1111 -0.0221
vn 1.0000 0.0003 -0.0057
vn 0.9908 -0.1356 0.0003
vn 0.9930 -0.1169 0.0179
vn 0.9963 -0.0030 -0.0864
vn 0.9851 0.1553 0.0739
vn 0.9879 -0.1372 0.0727
vn 0.9816 -0.0294 0.1885
vn 0.8091 -0.5835 0.0690
vn 0.8345 -0.5245 0.1691
vn 0.7841 -0.6205 -0.0150
vn 0.8409 -0.5403 -0.0299
vn 0.8033 -0.5950 -0.0267
vn 0.8185 -0.5729 -0.0418
vn 0.9126 -0.4058 -0.0509
vn 0.7956 -0.6051 0.0279
vn 0.8032 -0.5768 0.1491
vn 0.7454 -0.6560 0.1185
vn 0.3664 -0.9286 0.0586
vn 0.2569 -0.9628 0.0839
vn 0.4328 -0.9014 0.0093
vn 0.1966 -0.9772 -0.0798
vn 0.3060 -0.9515 0.0302
vn 0.2181 -0.9749 -0.0456
vn 0.1692 -0.9823 -0.0808
vn 0.2355 -0.9716 0.0204
vn 0.4272 -0.8865 0.1776
vn 0.3120 -0.9363 0.1610
vn -0.3439 -0.9387 -0.0253
vn -0.3308 -0.9437 -0.0022
vn -0.1507 -0.9864 0.0649
vn -0.2397 -0.9708 0.0052
vn -0.1940 -0.9810 -0.0053
vn -0.0955 -0.9947 0.0383
vn -0.4769 -0.8769 -0.0604
vn -0.4233 -0.9059 0.0106
vn -0.2312 -0.9705 0.0681
vn -0.1887 -0.9715 0.1436
vn -0.8470 -0.5299 -0.0416
vn -0.7667 -0.6420 -0.0076
vn -0.8448 -0.5334 -0.0422
vn -0.7080 -0.7061 0.0122
vn -0.6716 -0.7400 -0.0380
vn -0.6182 -0.7828 0.0715
vn -0.7587 -0.6449 0.0919
vn -0.8575 -0.5059 -0.0931
vn -0.7709 -0.6318 -0.0806
vn -0.6888 -0.7231 0.0516
# 124 vertex normals

vt -49.0000 100.0000 0.0000
vt -49.0000 0.0000 0.0000
vt -39.5000 0.0000 0.0000
vt -39.5000 100.0000 0.0000
vt 50.0000 100.0000 0.0000
vt 40.5000 100.0000 0.0000
vt 40.5000 0.0000 0.0000
vt 50.0000 0.0000 0.0000
vt 100.0000 50.0000 0.0000
vt 0.0000 50.0000 0.0000
vt 0.0000 40.5000 0.0000
vt 100.0000 40.5000 0.0000
vt -99.0000 100.0000 0.0000
vt -99.0000 0.0000 0.0000
vt -58.5000 0.0000 0.0000
vt -58.5000 100.0000 0.0000
vt 1.0000 0.0000 0.0000
vt 1.0000 100.0000 0.0000
vt 100.0000 0.0000 0.0000
vt 100.0000 100.0000 0.0000
vt 59.5000 100.0000 0.0000
vt 59.5000 0.0000 0.0000
vt 0.0000 100.0000 0.0000
vt 0.0000 0.0000 0.0000
vt 59.5000 50.0000 0.0000
vt 59.5000 40.5000 0.0000
vt 40.5000 50.0000 0.0000
vt 40.5000 56.3333 0.0000
vt 0.0000 56.3333 0.0000
vt 50.0000 59.5000 0.0000
vt 40.5000 59.5000 0.0000
vt 50.0000 40.5000 0.0000
vt 40.5000 40.5000 0.0000
vt 0.0000 59.5000 0.0000
vt 100.0000 59.5000 0.0000
vt 100.0000 56.3333 0.0000
vt 59.5000 59.5000 0.0000
vt 59.5000 56.3333 0.0000
vt 10.0000 39.9800 33.4835
vt 10.0000 35.5400 33.4835
vt 9.0042 35.5400 33.4202
vt 9.0042 39.9800 33.4202
vt 10.0000 31.1000 33.4835
vt 9.0042 31.1000 33.4202
vt 10.0000 26.6600 33.4835
vt 9.0042 26.6600 33.4202
vt 10.0000 22.2200 33.4835
vt 9.0042 22.2200 33.4202
vt 10.0000 17.7800 33.4835
vt 9.0042 17.7800 33.4202
vt 10.0000 13.3400 33.4835
vt 9.0042 13.3400 33.4202
vt 10.0000 8.9000 33.4835
vt 9.0042 8.9000 33.4202
vt 10.0000 4.4600 33.4835
vt 9.0042 4.4600 33.4202
vt 10.0000 0.0200 33.4835
vt 9.0042 0.0200 33.4202
vt 8.0026 35.5400 33.3176
vt 8.0026 39.9800 33.3176
vt 8.0026 31.1000 33.3176
vt 8.0026 26.6600 33.3176
vt 8.0026 22.2200 33.3176
vt 8.0026 17.7800 33.3176
vt 8.0026 13.3400 33.3176
vt 8.0026 8.9000 33.3176
vt 8.0026 4.4600 33.3176
vt 8.0026 0.0200 33.3176
vt 6.9974 35.5400 33.3176
vt 6.9974 39.9800 33.3176
vt 6.9974 31.1000 33.3176
vt 6.9974 26.6600 33.3176
vt 6.9974 22.2200 33.3176
vt 6.9974 17.7800 33.3176
vt 6.9974 13.3400 33.3176
vt 6.9974 8.9000 33.3176
vt 6.9974 4.4600 33.3176
vt 6.9974 0.0200 33.3176
vt 5.9958 35.5400 33.4202
vt 5.9958 39.9800 33.4202
vt 5.9958 31.1000 33.4202
vt 5.9958 26.6600 33.4202
vt 5.9958 22.2200 33.4202
vt 5.9958 17.7800 33.4202
vt 5.9958 13.3400 33.4202
vt 5.9958 8.9000 33.4202
vt 5.9958 4.4600 33.4202
vt 5.9958 0.0200 33.4202
vt 5.0000 35.5400 33.4835
vt 5.0000 39.9800 33.4835
vt 5.0000 31.1000 33.4835
vt 5.0000 26.6600 33.4835
vt 5.0000 22.2200 33.4835
vt 5.0000 17.7800 33.4835
vt 5.0000 13.3400 33.4835
vt 5.0000 8.9000 33.4835
vt 5.0000 4.4600 33.4835
vt 5.0000 0.0200 33.4835
vt 4.0042 35.5400 33.4202
vt 4.0042 39.9800 33.4202
vt 4.0042 31.1000 33.4202
vt 4.0042 26.6600 33.4202
vt 4.0042 22.2200 33.4202
vt 4.0042 17.7800 33.4202
vt 4.0042 13.3400 33.4202
vt 4.0042 8.9000 33.4202
vt 4.0042 4.4600 33.4202
vt 4.0042 0.0200 33.4202
vt 3.0026 35.5400 33.3176
vt 3.0026 39.9800 33.3176
vt 3.0026 31.1000 33.3176
vt 3.0026 26.6600 33.3176
vt 3.0026 22.2200 33.3176
vt 3.0026 17.7800 33.3176
vt 3.0026 13.3400 33.3176
vt 3.0026 8.9000 33.3176
vt 3.0026 4.4600 33.3176
vt 3.0026 0.0200 33.3176
vt 1.9974 35.5400 33.3176
vt 1.9974 39.9800 33.3176
vt 1.9974 31.1000 33.3176
vt 1.9974 26.6600 33.3176
vt 1.9974 22.2200 33.3176
vt 1.9974 17.7800 33.3176
vt 1.9974 13.3400 33.3176
vt 1.9974 8.9000 33.3176
vt 1.9974 4.4600 33.3176
vt 1.9974 0.0200 33.3176
vt 0.9958 35.5400 33.4202
vt 0.9958 39.9800 33.4202
vt 0.9958 31.1000 33.4202
vt 0.9958 26.6600 33.4202
vt 0.9958 22.2200 33.4202
vt 0.9958 17.7800 33.4202
vt 0.9958 13.3400 33.4202
vt 0.9958 8.9000 33.4202
vt 0.9958 4.4600 33.4202
vt 0.9958 0.0200 33.4202
vt -0.0000 35.5400 33.4835
vt -0.0000 39.9800 33.4835
vt -0.0000 31.1000 33.4835
vt -0.0000 26.6600 33.4835
vt -0.0000 22.2200 33.4835
vt -0.0000 17.7800 33.4835
vt -0.0000 13.3400 33.4835
vt -0.0000 8.9000 33.4835
vt -0.0000 4.4600 33.4835
vt -0.0000 0.0200 33.4835
# 148 texture coords

o Box001
g Box001
usemtl Cave_Material
s 2
f 1/1/1 2/2/1 3/3/1 
f 3/3/1 4/4/1 1/1/1 
s 4
f 5/5/2 6/6/2 7/7/2 
f 7/7/2 8/8/2 5/5/2 
s 16
f 9/9/3 10/10/3 11/11/3 
f 11/11/3 12/12/3 9/9/3 
s 64
f 13/10/4 14/11/4 15/12/4 
f 15/12/4 16/9/4 13/10/4 
s 2
f 17/13/1 18/14/1 19/15/1 
f 19/15/1 20/16/1 17/13/1 
f 20/16/1 19/15/1 2/2/1 
f 2/2/1 1/1/1 20/16/1 
f 21/17/1 22/18/1 4/4/1 
f 4/4/1 3/3/1 21/17/1 
s 4
f 23/19/2 24/20/2 25/21/2 
f 25/21/2 26/22/2 23/19/2 
f 8/8/2 26/22/2 25/21/2 
f 25/21/2 5/5/2 8/8/2 
f 27/23/2 28/24/2 7/7/2 
f 7/7/2 6/6/2 27/23/2 
s 8
f 10/9/5 29/25/6 30/26/7 
f 30/26/7 11/12/8 10/9/5 
f 16/10/9 31/27/10 32/28/9 
f 32/28/9 33/29/9 16/10/9 
s 32
f 13/9/11 34/25/11 35/26/11 
f 35/26/11 14/12/11 13/9/11 
f 36/27/11 37/28/11 38/29/11 
f 38/29/11 9/10/11 36/27/11 
s 8
f 39/30/12 8/5/12 7/6/13 
f 7/6/13 40/31/14 39/30/12 
f 3/7/15 2/8/12 41/32/12 
f 41/32/12 42/33/16 3/7/15 
s 16
f 24/20/3 23/23/3 43/34/3 
f 43/34/3 44/35/3 24/20/3 
f 44/35/3 43/34/3 45/29/3 
f 45/29/3 38/36/3 44/35/3 
f 38/36/3 45/29/3 10/10/3 
f 10/10/3 9/9/3 38/36/3 
f 18/24/3 17/19/3 12/12/3 
f 12/12/3 11/11/3 18/24/3 
s 32
f 46/30/11 5/5/11 25/6/11 
f 25/6/11 47/31/11 46/30/11 
f 20/7/11 1/8/11 48/32/11 
f 48/32/11 49/33/11 20/7/11 
s 64
f 28/20/4 27/23/4 50/34/4 
f 50/34/4 51/35/4 28/20/4 
f 51/35/4 50/34/4 52/29/4 
f 52/29/4 33/36/4 51/35/4 
f 16/9/4 33/36/4 52/29/4 
f 52/29/4 13/10/4 16/9/4 
f 22/24/4 21/19/4 15/12/4 
f 15/12/4 14/11/4 22/24/4 
s 8
f 23/20/17 26/21/18 53/37/19 
f 53/37/19 43/35/20 23/20/17 
f 43/35/20 53/37/19 54/38/21 
f 54/38/21 45/36/8 43/35/20 
f 45/36/8 54/38/21 29/25/6 
f 29/25/6 10/9/5 45/36/8 
f 19/22/22 18/19/8 11/12/8 
f 11/12/8 30/26/7 19/22/22 
f 53/37/19 26/21/18 8/5/12 
f 8/5/12 39/30/12 53/37/19 
f 2/8/12 19/22/22 30/26/7 
f 30/26/7 41/32/12 2/8/12 
f 21/24/23 3/7/15 42/33/16 
f 42/33/16 15/11/24 21/24/23 
f 15/11/24 42/33/16 31/27/10 
f 31/27/10 16/10/9 15/11/24 
f 7/6/13 28/23/9 51/34/9 
f 51/34/9 40/31/14 7/6/13 
f 40/31/14 51/34/9 33/29/9 
f 33/29/9 32/28/9 40/31/14 
s 32
f 27/20/11 6/21/11 55/37/11 
f 55/37/11 50/35/11 27/20/11 
f 50/35/11 55/37/11 56/38/11 
f 56/38/11 52/36/11 50/35/11 
f 52/36/11 56/38/11 34/25/11 
f 34/25/11 13/9/11 52/36/11 
f 4/22/11 22/19/11 14/12/11 
f 14/12/11 35/26/11 4/22/11 
f 6/21/11 5/5/11 46/30/11 
f 46/30/11 55/37/11 6/21/11 
f 1/8/11 4/22/11 35/26/11 
f 35/26/11 48/32/11 1/8/11 
f 17/24/11 20/7/11 49/33/11 
f 49/33/11 12/11/11 17/24/11 
f 9/10/11 12/11/11 49/33/11 
f 49/33/11 36/27/11 9/10/11 
f 25/6/11 24/23/11 44/34/11 
f 44/34/11 47/31/11 25/6/11 
f 47/31/11 44/34/11 38/29/11 
f 38/29/11 37/28/11 47/31/11 
s 2
f 29/39/25 57/40/26 58/41/27 
f 58/41/27 30/42/28 29/39/25 
f 57/40/26 59/43/29 60/44/30 
f 60/44/30 58/41/27 57/40/26 
f 59/43/29 61/45/31 62/46/32 
f 62/46/32 60/44/30 59/43/29 
f 61/45/31 63/47/33 64/48/34 
f 64/48/34 62/46/32 61/45/31 
f 63/47/33 65/49/35 66/50/36 
f 66/50/36 64/48/34 63/47/33 
f 65/49/35 67/51/37 68/52/38 
f 68/52/38 66/50/36 65/49/35 
f 67/51/37 69/53/39 70/54/40 
f 70/54/40 68/52/38 67/51/37 
f 69/53/39 71/55/41 72/56/42 
f 72/56/42 70/54/40 69/53/39 
f 71/55/41 36/57/43 49/58/44 
f 49/58/44 72/56/42 71/55/41 
f 30/42/28 58/41/27 73/59/45 
f 73/59/45 41/60/46 30/42/28 
f 58/41/27 60/44/30 74/61/47 
f 74/61/47 73/59/45 58/41/27 
f 60/44/30 62/46/32 75/62/48 
f 75/62/48 74/61/47 60/44/30 
f 62/46/32 64/48/34 76/63/49 
f 76/63/49 75/62/48 62/46/32 
f 64/48/34 66/50/36 77/64/50 
f 77/64/50 76/63/49 64/48/34 
f 66/50/36 68/52/38 78/65/51 
f 78/65/51 77/64/50 66/50/36 
f 68/52/38 70/54/40 79/66/52 
f 79/66/52 78/65/51 68/52/38 
f 70/54/40 72/56/42 80/67/53 
f 80/67/53 79/66/52 70/54/40 
f 72/56/42 49/58/44 48/68/54 
f 48/68/54 80/67/53 72/56/42 
f 41/60/46 73/59/45 81/69/55 
f 81/69/55 42/70/56 41/60/46 
f 73/59/45 74/61/47 82/71/57 
f 82/71/57 81/69/55 73/59/45 
f 74/61/47 75/62/48 83/72/58 
f 83/72/58 82/71/57 74/61/47 
f 75/62/48 76/63/49 84/73/59 
f 84/73/59 83/72/58 75/62/48 
f 76/63/49 77/64/50 85/74/60 
f 85/74/60 84/73/59 76/63/49 
f 77/64/50 78/65/51 86/75/61 
f 86/75/61 85/74/60 77/64/50 
f 78/65/51 79/66/52 87/76/62 
f 87/76/62 86/75/61 78/65/51 
f 79/66/52 80/67/53 88/77/63 
f 88/77/63 87/76/62 79/66/52 
f 80/67/53 48/68/54 35/78/64 
f 35/78/64 88/77/63 80/67/53 
f 42/70/56 81/69/55 89/79/65 
f 89/79/65 31/80/66 42/70/56 
f 81/69/55 82/71/57 90/81/67 
f 90/81/67 89/79/65 81/69/55 
f 82/71/57 83/72/58 91/82/68 
f 91/82/68 90/81/67 82/71/57 
f 83/72/58 84/73/59 92/83/69 
f 92/83/69 91/82/68 83/72/58 
f 84/73/59 85/74/60 93/84/70 
f 93/84/70 92/83/69 84/73/59 
f 85/74/60 86/75/61 94/85/71 
f 94/85/71 93/84/70 85/74/60 
f 86/75/61 87/76/62 95/86/72 
f 95/86/72 94/85/71 86/75/61 
f 87/76/62 88/77/63 96/87/73 
f 96/87/73 95/86/72 87/76/62 
f 88/77/63 35/78/64 34/88/74 
f 34/88/74 96/87/73 88/77/63 
f 31/80/66 89/79/65 97/89/75 
f 97/89/75 32/90/76 31/80/66 
f 89/79/65 90/81/67 98/91/77 
f 98/91/77 97/89/75 89/79/65 
f 90/81/67 91/82/68 99/92/78 
f 99/92/78 98/91/77 90/81/67 
f 91/82/68 92/83/69 100/93/79 
f 100/93/79 99/92/78 91/82/68 
f 92/83/69 93/84/70 101/94/80 
f 101/94/80 100/93/79 92/83/69 
f 93/84/70 94/85/71 102/95/81 
f 102/95/81 101/94/80 93/84/70 
f 94/85/71 95/86/72 103/96/82 
f 103/96/82 102/95/81 94/85/71 
f 95/86/72 96/87/73 104/97/83 
f 104/97/83 103/96/82 95/86/72 
f 96/87/73 34/88/74 56/98/84 
f 56/98/84 104/97/83 96/87/73 
f 32/90/76 97/89/75 105/99/85 
f 105/99/85 40/100/86 32/90/76 
f 97/89/75 98/91/77 106/101/87 
f 106/101/87 105/99/85 97/89/75 
f 98/91/77 99/92/78 107/102/88 
f 107/102/88 106/101/87 98/91/77 
f 99/92/78 100/93/79 108/103/89 
f 108/103/89 107/102/88 99/92/78 
f 100/93/79 101/94/80 109/104/90 
f 109/104/90 108/103/89 100/93/79 
f 101/94/80 102/95/81 110/105/91 
f 110/105/91 109/104/90 101/94/80 
f 102/95/81 103/96/82 111/106/92 
f 111/106/92 110/105/91 102/95/81 
f 103/96/82 104/97/83 112/107/93 
f 112/107/93 111/106/92 103/96/82 
f 104/97/83 56/98/84 55/108/94 
f 55/108/94 112/107/93 104/97/83 
f 40/100/86 105/99/85 113/109/95 
f 113/109/95 39/110/96 40/100/86 
f 105/99/85 106/101/87 114/111/97 
f 114/111/97 113/109/95 105/99/85 
f 106/101/87 107/102/88 115/112/98 
f 115/112/98 114/111/97 106/101/87 
f 107/102/88 108/103/89 116/113/99 
f 116/113/99 115/112/98 107/102/88 
f 108/103/89 109/104/90 117/114/100 
f 117/114/100 116/113/99 108/103/89 
f 109/104/90 110/105/91 118/115/101 
f 118/115/101 117/114/100 109/104/90 
f 110/105/91 111/106/92 119/116/102 
f 119/116/102 118/115/101 110/105/91 
f 111/106/92 112/107/93 120/117/103 
f 120/117/103 119/116/102 111/106/92 
f 112/107/93 55/108/94 46/118/104 
f 46/118/104 120/117/103 112/107/93 
f 39/110/96 113/109/95 121/119/105 
f 121/119/105 53/120/106 39/110/96 
f 113/109/95 114/111/97 122/121/107 
f 122/121/107 121/119/105 113/109/95 
f 114/111/97 115/112/98 123/122/108 
f 123/122/108 122/121/107 114/111/97 
f 115/112/98 116/113/99 124/123/109 
f 124/123/109 123/122/108 115/112/98 
f 116/113/99 117/114/100 125/124/110 
f 125/124/110 124/123/109 116/113/99 
f 117/114/100 118/115/101 126/125/111 
f 126/125/111 125/124/110 117/114/100 
f 118/115/101 119/116/102 127/126/112 
f 127/126/112 126/125/111 118/115/101 
f 119/116/102 120/117/103 128/127/113 
f 128/127/113 127/126/112 119/116/102 
f 120/117/103 46/118/104 47/128/114 
f 47/128/114 128/127/113 120/117/103 
f 53/120/106 121/119/105 129/129/115 
f 129/129/115 54/130/116 53/120/106 
f 121/119/105 122/121/107 130/131/117 
f 130/131/117 129/129/115 121/119/105 
f 122/121/107 123/122/108 131/132/118 
f 131/132/118 130/131/117 122/121/107 
f 123/122/108 124/123/109 132/133/119 
f 132/133/119 131/132/118 123/122/108 
f 124/123/109 125/124/110 133/134/120 
f 133/134/120 132/133/119 124/123/109 
f 125/124/110 126/125/111 134/135/121 
f 134/135/121 133/134/120 125/124/110 
f 126/125/111 127/126/112 135/136/122 
f 135/136/122 134/135/121 126/125/111 
f 127/126/112 128/127/113 136/137/123 
f 136/137/123 135/136/122 127/126/112 
f 128/127/113 47/128/114 37/138/124 
f 37/138/124 136/137/123 128/127/113 
f 54/130/116 129/129/115 57/139/26 
f 57/139/26 29/140/25 54/130/116 
f 129/129/115 130/131/117 59/141/29 
f 59/141/29 57/139/26 129/129/115 
f 130/131/117 131/132/118 61/142/31 
f 61/142/31 59/141/29 130/131/117 
f 131/132/118 132/133/119 63/143/33 
f 63/143/33 61/142/31 131/132/118 
f 132/133/119 133/134/120 65/144/35 
f 65/144/35 63/143/33 132/133/119 
f 133/134/120 134/135/121 67/145/37 
f 67/145/37 65/144/35 133/134/120 
f 134/135/121 135/136/122 69/146/39 
f 69/146/39 67/145/37 134/135/121 
f 135/136/122 136/137/123 71/147/41 
f 71/147/41 69/146/39 135/136/122 
f 136/137/123 37/138/124 36/148/43 
f 36/148/43 71/147/41 136/137/123 
# 272 faces

